<?xml version="1.0" encoding="us-ascii" standalone="no"?><svg xmlns="http://www.w3.org/2000/svg" xmlns:xlink="http://www.w3.org/1999/xlink" contentStyleType="text/css" height="910px" preserveAspectRatio="none" style="width:1136px;height:910px;background:#FFFFFF;" version="1.1" viewBox="0 0 1136 910" width="1136px" zoomAndPan="magnify"><defs/><g><text fill="#000000" font-family="Helvetica" font-size="14" font-weight="bold" lengthAdjust="spacing" textLength="777" x="180.5" y="29.5332">CU-01 Iniciando sesion en el sistema (excepcion: datos incompletos, credenciales invalidas o usuario inactivo)</text><rect fill="none" height="612.1875" style="stroke:#000000;stroke-width:1.5;" width="1119" x="10" y="198.9219"/><line style="stroke:#9CC49A;stroke-width:0.5;stroke-dasharray:5.0,5.0;" x1="47" x2="47" y1="121.2188" y2="828.1094"/><line style="stroke:#9CC49A;stroke-width:0.5;stroke-dasharray:5.0,5.0;" x1="380" x2="380" y1="121.2188" y2="828.1094"/><line style="stroke:#9CC49A;stroke-width:0.5;stroke-dasharray:5.0,5.0;" x1="634.5" x2="634.5" y1="121.2188" y2="828.1094"/><line style="stroke:#9CC49A;stroke-width:0.5;stroke-dasharray:5.0,5.0;" x1="901" x2="901" y1="121.2188" y2="828.1094"/><line style="stroke:#9CC49A;stroke-width:0.5;stroke-dasharray:5.0,5.0;" x1="963" x2="963" y1="121.2188" y2="828.1094"/><line style="stroke:#9CC49A;stroke-width:0.5;stroke-dasharray:5.0,5.0;" x1="1056" x2="1056" y1="121.2188" y2="828.1094"/><text fill="#000000" font-family="Helvetica" font-size="14" lengthAdjust="spacing" textLength="48" x="20" y="118.1426">Usuario</text><ellipse cx="47" cy="52.1094" fill="#EAF3E7" rx="8" ry="8" style="stroke:#2E5E2A;stroke-width:0.5;"/><path d="M47,60.1094 L47,87.1094 M34,68.1094 L60,68.1094 M47,87.1094 L34,102.1094 M47,87.1094 L60,102.1094 " fill="none" style="stroke:#2E5E2A;stroke-width:0.5;"/><text fill="#000000" font-family="Helvetica" font-size="14" lengthAdjust="spacing" textLength="48" x="20" y="841.6426">Usuario</text><ellipse cx="47" cy="853.2188" fill="#EAF3E7" rx="8" ry="8" style="stroke:#2E5E2A;stroke-width:0.5;"/><path d="M47,861.2188 L47,888.2188 M34,869.2188 L60,869.2188 M47,888.2188 L34,903.2188 M47,888.2188 L60,903.2188 " fill="none" style="stroke:#2E5E2A;stroke-width:0.5;"/><rect fill="#EAF3E7" height="31.6094" rx="2.5" ry="2.5" style="stroke:#2E5E2A;stroke-width:0.5;" width="66" x="347" y="88.6094"/><text fill="#000000" font-family="Helvetica" font-size="14" lengthAdjust="spacing" textLength="52" x="354" y="110.1426">V_Login</text><rect fill="#EAF3E7" height="31.6094" rx="2.5" ry="2.5" style="stroke:#2E5E2A;stroke-width:0.5;" width="66" x="347" y="827.1094"/><text fill="#000000" font-family="Helvetica" font-size="14" lengthAdjust="spacing" textLength="52" x="354" y="848.6426">V_Login</text><rect fill="#EAF3E7" height="31.6094" rx="2.5" ry="2.5" style="stroke:#2E5E2A;stroke-width:0.5;" width="117" x="576.5" y="88.6094"/><text fill="#000000" font-family="Helvetica" font-size="14" lengthAdjust="spacing" textLength="103" x="583.5" y="110.1426">C_Autenticacion</text><rect fill="#EAF3E7" height="31.6094" rx="2.5" ry="2.5" style="stroke:#2E5E2A;stroke-width:0.5;" width="117" x="576.5" y="827.1094"/><text fill="#000000" font-family="Helvetica" font-size="14" lengthAdjust="spacing" textLength="103" x="583.5" y="848.6426">C_Autenticacion</text><rect fill="#EAF3E7" height="31.6094" rx="2.5" ry="2.5" style="stroke:#2E5E2A;stroke-width:0.5;" width="66" x="868" y="88.6094"/><text fill="#000000" font-family="Helvetica" font-size="14" lengthAdjust="spacing" textLength="52" x="875" y="110.1426">:Usuario</text><rect fill="#EAF3E7" height="31.6094" rx="2.5" ry="2.5" style="stroke:#2E5E2A;stroke-width:0.5;" width="66" x="868" y="827.1094"/><text fill="#000000" font-family="Helvetica" font-size="14" lengthAdjust="spacing" textLength="52" x="875" y="848.6426">:Usuario</text><rect fill="#EAF3E7" height="31.6094" rx="2.5" ry="2.5" style="stroke:#2E5E2A;stroke-width:0.5;" width="39" x="944" y="88.6094"/><text fill="#000000" font-family="Helvetica" font-size="14" lengthAdjust="spacing" textLength="25" x="951" y="110.1426">:Rol</text><rect fill="#EAF3E7" height="31.6094" rx="2.5" ry="2.5" style="stroke:#2E5E2A;stroke-width:0.5;" width="39" x="944" y="827.1094"/><text fill="#000000" font-family="Helvetica" font-size="14" lengthAdjust="spacing" textLength="25" x="951" y="848.6426">:Rol</text><rect fill="#EAF3E7" height="31.6094" rx="2.5" ry="2.5" style="stroke:#2E5E2A;stroke-width:0.5;" width="126" x="993" y="88.6094"/><text fill="#000000" font-family="Helvetica" font-size="14" lengthAdjust="spacing" textLength="112" x="1000" y="110.1426">:BitacoraAuditoria</text><rect fill="#EAF3E7" height="31.6094" rx="2.5" ry="2.5" style="stroke:#2E5E2A;stroke-width:0.5;" width="126" x="993" y="827.1094"/><text fill="#000000" font-family="Helvetica" font-size="14" lengthAdjust="spacing" textLength="112" x="1000" y="848.6426">:BitacoraAuditoria</text><polygon fill="#4B7A46" points="368,149.5703,378,153.5703,368,157.5703,372,153.5703" style="stroke:#4B7A46;stroke-width:1.0;"/><line style="stroke:#4B7A46;stroke-width:1.0;" x1="47" x2="374" y1="153.5703" y2="153.5703"/><text fill="#000000" font-family="Helvetica" font-size="13" lengthAdjust="spacing" textLength="161" x="133" y="148.7139">ingresa correo y contrasena</text><polygon fill="#4B7A46" points="623,179.9219,633,183.9219,623,187.9219,627,183.9219" style="stroke:#4B7A46;stroke-width:1.0;"/><line style="stroke:#4B7A46;stroke-width:1.0;" x1="380" x2="629" y1="183.9219" y2="183.9219"/><text fill="#000000" font-family="Helvetica" font-size="13" lengthAdjust="spacing" textLength="190" x="412.5" y="179.0654">iniciarSesion(correo, contrasena)</text><path d="M10,198.9219 L71,198.9219 L71,207.2734 L61,217.2734 L10,217.2734 L10,198.9219 " fill="#EEEEEE" style="stroke:#000000;stroke-width:1.5;"/><rect fill="none" height="612.1875" style="stroke:#000000;stroke-width:1.5;" width="1119" x="10" y="198.9219"/><text fill="#000000" font-family="Helvetica" font-size="13" font-weight="bold" lengthAdjust="spacing" textLength="16" x="25" y="213.417">alt</text><text fill="#000000" font-family="Helvetica" font-size="11" font-weight="bold" lengthAdjust="spacing" textLength="158" x="86" y="212.3408">[correo o contrasena vacios]</text><polygon fill="#4B7A46" points="391,235.625,381,239.625,391,243.625,387,239.625" style="stroke:#4B7A46;stroke-width:1.0;"/><line style="stroke:#4B7A46;stroke-width:1.0;stroke-dasharray:2.0,2.0;" x1="385" x2="634" y1="239.625" y2="239.625"/><text fill="#000000" font-family="Helvetica" font-size="13" lengthAdjust="spacing" textLength="85" x="465" y="234.7686">campo faltante</text><polygon fill="#4B7A46" points="58,265.9766,48,269.9766,58,273.9766,54,269.9766" style="stroke:#4B7A46;stroke-width:1.0;"/><line style="stroke:#4B7A46;stroke-width:1.0;stroke-dasharray:2.0,2.0;" x1="52" x2="379" y1="269.9766" y2="269.9766"/><text fill="#000000" font-family="Helvetica" font-size="13" lengthAdjust="spacing" textLength="287" x="70" y="265.1201">senala el campo faltante y no intenta la validacion</text><line style="stroke:#000000;stroke-width:1.0;stroke-dasharray:2.0,2.0;" x1="10" x2="1129" y1="278.9766" y2="278.9766"/><text fill="#000000" font-family="Helvetica" font-size="11" font-weight="bold" lengthAdjust="spacing" textLength="244" x="15" y="290.3955">[correo inexistente o contrasena incorrecta]</text><polygon fill="#4B7A46" points="889,312.1641,899,316.1641,889,320.1641,893,316.1641" style="stroke:#4B7A46;stroke-width:1.0;"/><line style="stroke:#4B7A46;stroke-width:1.0;" x1="635" x2="895" y1="316.1641" y2="316.1641"/><text fill="#000000" font-family="Helvetica" font-size="13" lengthAdjust="spacing" textLength="141" x="697.5" y="311.3076">buscarPorCorreo(correo)</text><polygon fill="#4B7A46" points="646,342.5156,636,346.5156,646,350.5156,642,346.5156" style="stroke:#4B7A46;stroke-width:1.0;"/><line style="stroke:#4B7A46;stroke-width:1.0;stroke-dasharray:2.0,2.0;" x1="640" x2="900" y1="346.5156" y2="346.5156"/><text fill="#000000" font-family="Helvetica" font-size="13" lengthAdjust="spacing" textLength="242" x="647" y="341.6592">sin coincidencia o contrasena no coincide</text><polygon fill="#4B7A46" points="391,372.8672,381,376.8672,391,380.8672,387,376.8672" style="stroke:#4B7A46;stroke-width:1.0;"/><line style="stroke:#4B7A46;stroke-width:1.0;stroke-dasharray:2.0,2.0;" x1="385" x2="634" y1="376.8672" y2="376.8672"/><text fill="#000000" font-family="Helvetica" font-size="13" lengthAdjust="spacing" textLength="231" x="392" y="372.0107">error de credenciales(mensaje generico)</text><polygon fill="#4B7A46" points="58,403.2188,48,407.2188,58,411.2188,54,407.2188" style="stroke:#4B7A46;stroke-width:1.0;"/><line style="stroke:#4B7A46;stroke-width:1.0;stroke-dasharray:2.0,2.0;" x1="52" x2="379" y1="407.2188" y2="407.2188"/><text fill="#000000" font-family="Helvetica" font-size="13" lengthAdjust="spacing" textLength="309" x="59" y="402.3623">muestra el mensaje de error sin indicar cual dato fallo</text><line style="stroke:#000000;stroke-width:1.0;stroke-dasharray:2.0,2.0;" x1="10" x2="1129" y1="416.2188" y2="416.2188"/><text fill="#000000" font-family="Helvetica" font-size="11" font-weight="bold" lengthAdjust="spacing" textLength="229" x="15" y="427.6377">[usuario encontrado en estado "inactivo"]</text><polygon fill="#4B7A46" points="889,449.4063,899,453.4063,889,457.4063,893,453.4063" style="stroke:#4B7A46;stroke-width:1.0;"/><line style="stroke:#4B7A46;stroke-width:1.0;" x1="635" x2="895" y1="453.4063" y2="453.4063"/><text fill="#000000" font-family="Helvetica" font-size="13" lengthAdjust="spacing" textLength="141" x="697.5" y="448.5498">buscarPorCorreo(correo)</text><polygon fill="#4B7A46" points="646,479.7578,636,483.7578,646,487.7578,642,483.7578" style="stroke:#4B7A46;stroke-width:1.0;"/><line style="stroke:#4B7A46;stroke-width:1.0;stroke-dasharray:2.0,2.0;" x1="640" x2="900" y1="483.7578" y2="483.7578"/><text fill="#000000" font-family="Helvetica" font-size="13" lengthAdjust="spacing" textLength="222" x="657" y="478.9014">usuario encontrado (estado="inactivo")</text><polygon fill="#4B7A46" points="391,510.1094,381,514.1094,391,518.1094,387,514.1094" style="stroke:#4B7A46;stroke-width:1.0;"/><line style="stroke:#4B7A46;stroke-width:1.0;stroke-dasharray:2.0,2.0;" x1="385" x2="634" y1="514.1094" y2="514.1094"/><text fill="#000000" font-family="Helvetica" font-size="13" lengthAdjust="spacing" textLength="119" x="448" y="509.2529">cuenta deshabilitada</text><polygon fill="#4B7A46" points="58,540.4609,48,544.4609,58,548.4609,54,544.4609" style="stroke:#4B7A46;stroke-width:1.0;"/><line style="stroke:#4B7A46;stroke-width:1.0;stroke-dasharray:2.0,2.0;" x1="52" x2="379" y1="544.4609" y2="544.4609"/><text fill="#000000" font-family="Helvetica" font-size="13" lengthAdjust="spacing" textLength="233" x="97" y="539.6045">informa que la cuenta esta deshabilitada</text><line style="stroke:#000000;stroke-width:1.0;stroke-dasharray:2.0,2.0;" x1="10" x2="1129" y1="553.4609" y2="553.4609"/><text fill="#000000" font-family="Helvetica" font-size="11" font-weight="bold" lengthAdjust="spacing" textLength="214" x="15" y="564.8799">[credenciales validas y cuenta "activo"]</text><polygon fill="#4B7A46" points="889,586.6484,899,590.6484,889,594.6484,893,590.6484" style="stroke:#4B7A46;stroke-width:1.0;"/><line style="stroke:#4B7A46;stroke-width:1.0;" x1="635" x2="895" y1="590.6484" y2="590.6484"/><text fill="#000000" font-family="Helvetica" font-size="13" lengthAdjust="spacing" textLength="141" x="697.5" y="585.792">buscarPorCorreo(correo)</text><polygon fill="#4B7A46" points="646,617,636,621,646,625,642,621" style="stroke:#4B7A46;stroke-width:1.0;"/><line style="stroke:#4B7A46;stroke-width:1.0;stroke-dasharray:2.0,2.0;" x1="640" x2="900" y1="621" y2="621"/><text fill="#000000" font-family="Helvetica" font-size="13" lengthAdjust="spacing" textLength="212" x="662" y="616.1436">usuario encontrado (estado="activo")</text><polygon fill="#4B7A46" points="951.5,647.3516,961.5,651.3516,951.5,655.3516,955.5,651.3516" style="stroke:#4B7A46;stroke-width:1.0;"/><line style="stroke:#4B7A46;stroke-width:1.0;" x1="635" x2="957.5" y1="651.3516" y2="651.3516"/><text fill="#000000" font-family="Helvetica" font-size="13" lengthAdjust="spacing" textLength="169" x="714.75" y="646.4951">obtenerRolVinculado(usuario)</text><polygon fill="#4B7A46" points="646,677.7031,636,681.7031,646,685.7031,642,681.7031" style="stroke:#4B7A46;stroke-width:1.0;"/><line style="stroke:#4B7A46;stroke-width:1.0;stroke-dasharray:2.0,2.0;" x1="640" x2="962.5" y1="681.7031" y2="681.7031"/><text fill="#000000" font-family="Helvetica" font-size="13" lengthAdjust="spacing" textLength="14" x="792.25" y="676.8467">rol</text><polygon fill="#4B7A46" points="1044,708.0547,1054,712.0547,1044,716.0547,1048,712.0547" style="stroke:#4B7A46;stroke-width:1.0;"/><line style="stroke:#4B7A46;stroke-width:1.0;" x1="635" x2="1050" y1="712.0547" y2="712.0547"/><text fill="#000000" font-family="Helvetica" font-size="13" lengthAdjust="spacing" textLength="251" x="720" y="707.1982">registrar(accion="inicio de sesion", usuario)</text><polygon fill="#4B7A46" points="646,738.4063,636,742.4063,646,746.4063,642,742.4063" style="stroke:#4B7A46;stroke-width:1.0;"/><line style="stroke:#4B7A46;stroke-width:1.0;stroke-dasharray:2.0,2.0;" x1="640" x2="1055" y1="742.4063" y2="742.4063"/><text fill="#000000" font-family="Helvetica" font-size="13" lengthAdjust="spacing" textLength="86" x="802.5" y="737.5498">registro creado</text><polygon fill="#4B7A46" points="391,768.7578,381,772.7578,391,776.7578,387,772.7578" style="stroke:#4B7A46;stroke-width:1.0;"/><line style="stroke:#4B7A46;stroke-width:1.0;stroke-dasharray:2.0,2.0;" x1="385" x2="634" y1="772.7578" y2="772.7578"/><text fill="#000000" font-family="Helvetica" font-size="13" lengthAdjust="spacing" textLength="130" x="442.5" y="767.9014">sesion establecida(rol)</text><polygon fill="#4B7A46" points="58,799.1094,48,803.1094,58,807.1094,54,803.1094" style="stroke:#4B7A46;stroke-width:1.0;"/><line style="stroke:#4B7A46;stroke-width:1.0;stroke-dasharray:2.0,2.0;" x1="52" x2="379" y1="803.1094" y2="803.1094"/><text fill="#000000" font-family="Helvetica" font-size="13" lengthAdjust="spacing" textLength="194" x="116.5" y="798.2529">dirige a la vista inicial segun el rol</text><!--SRC=[jLNRQXj137tVhn3kGns8eKtJXXWQi8r32sa9BlPha6VaxIJZ6NTcrad-ljBiRh9hqjj3JGoRrT6HT7JnQvWjHs_UmcTdb46dFKIAnZiW_hCGJKoqHHZ1nbQt7ZG1FIZQAOOKySwu7GRSmXhLNHbyvVJCMn_WrMN-T13nEsf_Rrm96xIHEXPD6wniklGkVSKjmIUoUqf6OTURVbJa57sX6B6aYJMb0qKkKUYWhZ6mdzcXIzF3XEQJotVpir-0VT0K6k39_FtyPD81JbJouSzyDUotJ6qLLsR3NqSzzFbiTdhUYnk2ls-CfzEpoUc7eaWcMVgxZWsV-ZG6ZSb7C4xvxSuIFn-32gGv5uEMnB97QpH6y5352eFn_0vLCdj_L1GefS6oDXIxP-5WiBgvygLn0s3VLTyqkvbKYLl4dPGiCcJMXumRpcnR7jWMtkRtYuFtKvDG-O2JIXlEos16JOkY8OFH1QnWp0MKWI82OmDvUEG7bm96SbYi13JB814nVCiA3cleSGTvLA1DBONl660lLSK2c6RKH5IutNcPxyIP4fjMsTJcDGPnj2XTwaCvEIUAYrm8LiYb7Nd9YBUbJO1dva7QAowzPAIrZ509wuGuA8TRLr5XkFOyOkBUb7V4a6LEJ0I8XXV9ix-fnw7Fw_oJiLSfyMm6EGRTCHfkoKMy9IZ9KJ0gHpgKO5jHP7RHe8NBJSbyaejncWScWAhGvhaLaQolPMXdaoFc7BNFGn-JF0tQYHtygmOlq0vhqe_Ff4VzLbUvLPhuhgsDvP7K-4Arncryu6NalPUsDbx2VU1QTxcxa-r6FhPUW_zGNR-s2rWmtg-Jz8_NRyMThom3Xms7u1PFnC7Rrcyg_r9ffBLXY4ecLxJZvSg_6VM56Xn3XsZwJ5HxUX60e_M4RcyR9xosn8E8GuxxqcHf4qn9KE-F4OdhvUQJI6MLRwDaJ4uNFm40]--></g></svg>