<?xml version="1.0" encoding="us-ascii" standalone="no"?><svg xmlns="http://www.w3.org/2000/svg" xmlns:xlink="http://www.w3.org/1999/xlink" contentStyleType="text/css" height="697px" preserveAspectRatio="none" style="width:1072px;height:697px;background:#FFFFFF;" version="1.1" viewBox="0 0 1072 697" width="1072px" zoomAndPan="magnify"><defs/><g><text fill="#000000" font-family="Helvetica" font-size="14" font-weight="bold" lengthAdjust="spacing" textLength="615" x="229.75" y="29.5332">CU-10 Editando una receta (excepcion: eliminada, mismo material o proporcion invalida)</text><rect fill="none" height="399.7266" style="stroke:#000000;stroke-width:1.5;" width="1055.5" x="10" y="198.9219"/><line style="stroke:#9CC49A;stroke-width:0.5;stroke-dasharray:5.0,5.0;" x1="66" x2="66" y1="121.2188" y2="615.6484"/><line style="stroke:#9CC49A;stroke-width:0.5;stroke-dasharray:5.0,5.0;" x1="374.5" x2="374.5" y1="121.2188" y2="615.6484"/><line style="stroke:#9CC49A;stroke-width:0.5;stroke-dasharray:5.0,5.0;" x1="766.5" x2="766.5" y1="121.2188" y2="615.6484"/><line style="stroke:#9CC49A;stroke-width:0.5;stroke-dasharray:5.0,5.0;" x1="958.5" x2="958.5" y1="121.2188" y2="615.6484"/><text fill="#000000" font-family="Helvetica" font-size="14" lengthAdjust="spacing" textLength="87" x="20" y="118.1426">Administrador</text><ellipse cx="66.5" cy="52.1094" fill="#EAF3E7" rx="8" ry="8" style="stroke:#2E5E2A;stroke-width:0.5;"/><path d="M66.5,60.1094 L66.5,87.1094 M53.5,68.1094 L79.5,68.1094 M66.5,87.1094 L53.5,102.1094 M66.5,87.1094 L79.5,102.1094 " fill="none" style="stroke:#2E5E2A;stroke-width:0.5;"/><text fill="#000000" font-family="Helvetica" font-size="14" lengthAdjust="spacing" textLength="87" x="20" y="629.1816">Administrador</text><ellipse cx="66.5" cy="640.7578" fill="#EAF3E7" rx="8" ry="8" style="stroke:#2E5E2A;stroke-width:0.5;"/><path d="M66.5,648.7578 L66.5,675.7578 M53.5,656.7578 L79.5,656.7578 M66.5,675.7578 L53.5,690.7578 M66.5,675.7578 L79.5,690.7578 " fill="none" style="stroke:#2E5E2A;stroke-width:0.5;"/><rect fill="#EAF3E7" height="31.6094" rx="2.5" ry="2.5" style="stroke:#2E5E2A;stroke-width:0.5;" width="144" x="302.5" y="88.6094"/><text fill="#000000" font-family="Helvetica" font-size="14" lengthAdjust="spacing" textLength="130" x="309.5" y="110.1426">V_FormularioReceta</text><rect fill="#EAF3E7" height="31.6094" rx="2.5" ry="2.5" style="stroke:#2E5E2A;stroke-width:0.5;" width="144" x="302.5" y="614.6484"/><text fill="#000000" font-family="Helvetica" font-size="14" lengthAdjust="spacing" textLength="130" x="309.5" y="636.1816">V_FormularioReceta</text><rect fill="#EAF3E7" height="31.6094" rx="2.5" ry="2.5" style="stroke:#2E5E2A;stroke-width:0.5;" width="120" x="706.5" y="88.6094"/><text fill="#000000" font-family="Helvetica" font-size="14" lengthAdjust="spacing" textLength="106" x="713.5" y="110.1426">C_Configuracion</text><rect fill="#EAF3E7" height="31.6094" rx="2.5" ry="2.5" style="stroke:#2E5E2A;stroke-width:0.5;" width="120" x="706.5" y="614.6484"/><text fill="#000000" font-family="Helvetica" font-size="14" lengthAdjust="spacing" textLength="106" x="713.5" y="636.1816">C_Configuracion</text><rect fill="#EAF3E7" height="31.6094" rx="2.5" ry="2.5" style="stroke:#2E5E2A;stroke-width:0.5;" width="194" x="861.5" y="88.6094"/><text fill="#000000" font-family="Helvetica" font-size="14" lengthAdjust="spacing" textLength="180" x="868.5" y="110.1426">:configuracion_recetamezcla</text><rect fill="#EAF3E7" height="31.6094" rx="2.5" ry="2.5" style="stroke:#2E5E2A;stroke-width:0.5;" width="194" x="861.5" y="614.6484"/><text fill="#000000" font-family="Helvetica" font-size="14" lengthAdjust="spacing" textLength="180" x="868.5" y="636.1816">:configuracion_recetamezcla</text><polygon fill="#4B7A46" points="362.5,149.5703,372.5,153.5703,362.5,157.5703,366.5,153.5703" style="stroke:#4B7A46;stroke-width:1.0;"/><line style="stroke:#4B7A46;stroke-width:1.0;" x1="66.5" x2="368.5" y1="153.5703" y2="153.5703"/><text fill="#000000" font-family="Helvetica" font-size="13" lengthAdjust="spacing" textLength="284" x="78.5" y="148.7139">selecciona una receta y ajusta sus componentes</text><polygon fill="#4B7A46" points="754.5,179.9219,764.5,183.9219,754.5,187.9219,758.5,183.9219" style="stroke:#4B7A46;stroke-width:1.0;"/><line style="stroke:#4B7A46;stroke-width:1.0;" x1="374.5" x2="760.5" y1="183.9219" y2="183.9219"/><text fill="#000000" font-family="Helvetica" font-size="13" lengthAdjust="spacing" textLength="368" x="386.5" y="179.0654">guardarReceta(receta, materialSeco, materialVerde, proporcion)</text><path d="M10,198.9219 L71,198.9219 L71,207.2734 L61,217.2734 L10,217.2734 L10,198.9219 " fill="#EEEEEE" style="stroke:#000000;stroke-width:1.5;"/><rect fill="none" height="399.7266" style="stroke:#000000;stroke-width:1.5;" width="1055.5" x="10" y="198.9219"/><text fill="#000000" font-family="Helvetica" font-size="13" font-weight="bold" lengthAdjust="spacing" textLength="16" x="25" y="213.417">alt</text><text fill="#000000" font-family="Helvetica" font-size="11" font-weight="bold" lengthAdjust="spacing" textLength="276" x="86" y="212.3408">[la receta ya fue eliminada por otro administrador]</text><polygon fill="#4B7A46" points="946.5,235.625,956.5,239.625,946.5,243.625,950.5,239.625" style="stroke:#4B7A46;stroke-width:1.0;"/><line style="stroke:#4B7A46;stroke-width:1.0;" x1="766.5" x2="952.5" y1="239.625" y2="239.625"/><text fill="#000000" font-family="Helvetica" font-size="13" lengthAdjust="spacing" textLength="87" x="819" y="234.7686">obtener(receta)</text><polygon fill="#4B7A46" points="777.5,265.9766,767.5,269.9766,777.5,273.9766,773.5,269.9766" style="stroke:#4B7A46;stroke-width:1.0;"/><line style="stroke:#4B7A46;stroke-width:1.0;stroke-dasharray:2.0,2.0;" x1="771.5" x2="957.5" y1="269.9766" y2="269.9766"/><text fill="#000000" font-family="Helvetica" font-size="13" lengthAdjust="spacing" textLength="53" x="836" y="265.1201">no existe</text><polygon fill="#4B7A46" points="385.5,296.3281,375.5,300.3281,385.5,304.3281,381.5,300.3281" style="stroke:#4B7A46;stroke-width:1.0;"/><line style="stroke:#4B7A46;stroke-width:1.0;stroke-dasharray:2.0,2.0;" x1="379.5" x2="765.5" y1="300.3281" y2="300.3281"/><text fill="#000000" font-family="Helvetica" font-size="13" lengthAdjust="spacing" textLength="162" x="489.5" y="295.4717">aviso(la receta ya no existe)</text><polygon fill="#4B7A46" points="77.5,326.6797,67.5,330.6797,77.5,334.6797,73.5,330.6797" style="stroke:#4B7A46;stroke-width:1.0;"/><line style="stroke:#4B7A46;stroke-width:1.0;stroke-dasharray:2.0,2.0;" x1="71.5" x2="373.5" y1="330.6797" y2="330.6797"/><text fill="#000000" font-family="Helvetica" font-size="13" lengthAdjust="spacing" textLength="164" x="138.5" y="325.8232">vuelve al listado sin cambios</text><line style="stroke:#000000;stroke-width:1.0;stroke-dasharray:2.0,2.0;" x1="10" x2="1065.5" y1="339.6797" y2="339.6797"/><text fill="#000000" font-family="Helvetica" font-size="11" font-weight="bold" lengthAdjust="spacing" textLength="203" x="15" y="351.0986">[mismo material como seco y verde]</text><polygon fill="#4B7A46" points="385.5,372.8672,375.5,376.8672,385.5,380.8672,381.5,376.8672" style="stroke:#4B7A46;stroke-width:1.0;"/><line style="stroke:#4B7A46;stroke-width:1.0;stroke-dasharray:2.0,2.0;" x1="379.5" x2="765.5" y1="376.8672" y2="376.8672"/><text fill="#000000" font-family="Helvetica" font-size="13" lengthAdjust="spacing" textLength="250" x="445.5" y="372.0107">error de validacion(dos materiales distintos)</text><polygon fill="#4B7A46" points="77.5,403.2188,67.5,407.2188,77.5,411.2188,73.5,407.2188" style="stroke:#4B7A46;stroke-width:1.0;"/><line style="stroke:#4B7A46;stroke-width:1.0;stroke-dasharray:2.0,2.0;" x1="71.5" x2="373.5" y1="407.2188" y2="407.2188"/><text fill="#000000" font-family="Helvetica" font-size="13" lengthAdjust="spacing" textLength="158" x="141.5" y="402.3623">solicita materiales distintos</text><line style="stroke:#000000;stroke-width:1.0;stroke-dasharray:2.0,2.0;" x1="10" x2="1065.5" y1="416.2188" y2="416.2188"/><text fill="#000000" font-family="Helvetica" font-size="11" font-weight="bold" lengthAdjust="spacing" textLength="206" x="15" y="427.6377">[proporcion vacia, en cero o negativa]</text><polygon fill="#4B7A46" points="385.5,449.4063,375.5,453.4063,385.5,457.4063,381.5,453.4063" style="stroke:#4B7A46;stroke-width:1.0;"/><line style="stroke:#4B7A46;stroke-width:1.0;stroke-dasharray:2.0,2.0;" x1="379.5" x2="765.5" y1="453.4063" y2="453.4063"/><text fill="#000000" font-family="Helvetica" font-size="13" lengthAdjust="spacing" textLength="252" x="444.5" y="448.5498">error de validacion(proporcion mayor a cero)</text><polygon fill="#4B7A46" points="77.5,479.7578,67.5,483.7578,77.5,487.7578,73.5,483.7578" style="stroke:#4B7A46;stroke-width:1.0;"/><line style="stroke:#4B7A46;stroke-width:1.0;stroke-dasharray:2.0,2.0;" x1="71.5" x2="373.5" y1="483.7578" y2="483.7578"/><text fill="#000000" font-family="Helvetica" font-size="13" lengthAdjust="spacing" textLength="166" x="137.5" y="478.9014">solicita una proporcion valida</text><line style="stroke:#000000;stroke-width:1.0;stroke-dasharray:2.0,2.0;" x1="10" x2="1065.5" y1="492.7578" y2="492.7578"/><text fill="#000000" font-family="Helvetica" font-size="11" font-weight="bold" lengthAdjust="spacing" textLength="81" x="15" y="504.1768">[datos validos]</text><polygon fill="#4B7A46" points="946.5,525.9453,956.5,529.9453,946.5,533.9453,950.5,529.9453" style="stroke:#4B7A46;stroke-width:1.0;"/><line style="stroke:#4B7A46;stroke-width:1.0;" x1="766.5" x2="952.5" y1="529.9453" y2="529.9453"/><text fill="#000000" font-family="Helvetica" font-size="13" lengthAdjust="spacing" textLength="168" x="778.5" y="525.0889">actualizar(receta, proporcion)</text><polygon fill="#4B7A46" points="777.5,556.2969,767.5,560.2969,777.5,564.2969,773.5,560.2969" style="stroke:#4B7A46;stroke-width:1.0;"/><line style="stroke:#4B7A46;stroke-width:1.0;stroke-dasharray:2.0,2.0;" x1="771.5" x2="957.5" y1="560.2969" y2="560.2969"/><text fill="#000000" font-family="Helvetica" font-size="13" lengthAdjust="spacing" textLength="106" x="809.5" y="555.4404">receta actualizada</text><polygon fill="#4B7A46" points="385.5,586.6484,375.5,590.6484,385.5,594.6484,381.5,590.6484" style="stroke:#4B7A46;stroke-width:1.0;"/><line style="stroke:#4B7A46;stroke-width:1.0;stroke-dasharray:2.0,2.0;" x1="379.5" x2="765.5" y1="590.6484" y2="590.6484"/><text fill="#000000" font-family="Helvetica" font-size="13" lengthAdjust="spacing" textLength="93" x="524" y="585.792">receta guardada</text><!--SRC=[ZLHDRzim3BtxLn3TOIdG05lNhMWE0r8ZmGxhC7HOhWKhCPvQMVJquNxy-b6sbzX5kyw00KTwZtny9FCMof_pz- -Wz8HECp2GDh7xJ0x1awA8e0bgUbGMOGvRcsuudz2zeaOPTaMuDQv1ZpLSexgjF2UdIxRiuSswUqQ8y0irtnbNmHPjeD6DfYqc6zViuZUi2RwGRIaQXMCs_Kxa55rG25ZHqfhAWI8NoOzGtz4BppJeulbJGQlb-iFgz0KmUqr-01wlFgwEboFWKaNshyVhOV-CzBUAhsOhhwC9-gmiJyucURtdk-7ovFnqUVAfAAA9beRMhPvfs6pNd0MGDRLngF48QXDgXXh5BeDMcjruRjXd71ZNeZKQ3ui2Smcmr48p8Nffc2-QlKrmiBbQiw-JHM_uiiju01XWCqMLLoMxhQcInvoXWvHJo4AD4LUz-dxKElZbHL5CTC3yCsnW8HPQKfc3ux8V06zIa8-G0YYk6tPvDaAnoRnIU5L2hz7tecSzxMZdo0zIlF-r8MdBqSYZmm9j1BjFXx1Dj3SO10SSFGDEl0D9BValBqG0NqTov8VKXt8dn_D1dPFrknSQzPIXLcnDuDaaxGwO0smwvDIc1RGfxmz8cwsSoY448xk2zRNXK93itjDn4CC491Q8ZsskVQA2P0nztlj-JB8VCyrXHwS0MX8P5pcyh2gmbUPB4S_HUbMZcMmbZRI7yexx_EVagC9eMdnLsIX8ZGzoZLs8_n2MnsaY8SVibMaKaVs9Y1rtLJOcoV4Z-jrCZSTcqkIXYpkAdbOpNFU3cZCxNVm1]--></g></svg>