<?xml version="1.0" encoding="us-ascii" standalone="no"?><svg xmlns="http://www.w3.org/2000/svg" xmlns:xlink="http://www.w3.org/1999/xlink" contentStyleType="text/css" height="630px" preserveAspectRatio="none" style="width:1148px;height:630px;background:#FFFFFF;" version="1.1" viewBox="0 0 1148 630" width="1148px" zoomAndPan="magnify"><defs/><g><text fill="#000000" font-family="Helvetica" font-size="14" font-weight="bold" lengthAdjust="spacing" textLength="464" x="341.25" y="29.5332">CU-13 Registrando un costo operativo de referencia (flujo normal)</text><line style="stroke:#9CC49A;stroke-width:0.5;stroke-dasharray:5.0,5.0;" x1="51" x2="51" y1="121.2188" y2="548.7891"/><line style="stroke:#9CC49A;stroke-width:0.5;stroke-dasharray:5.0,5.0;" x1="424.5" x2="424.5" y1="121.2188" y2="548.7891"/><line style="stroke:#9CC49A;stroke-width:0.5;stroke-dasharray:5.0,5.0;" x1="710.5" x2="710.5" y1="121.2188" y2="548.7891"/><line style="stroke:#9CC49A;stroke-width:0.5;stroke-dasharray:5.0,5.0;" x1="1040.5" x2="1040.5" y1="121.2188" y2="548.7891"/><text fill="#000000" font-family="Helvetica" font-size="14" lengthAdjust="spacing" textLength="87" x="5" y="118.1426">Administrador</text><ellipse cx="51.5" cy="52.1094" fill="#EAF3E7" rx="8" ry="8" style="stroke:#2E5E2A;stroke-width:0.5;"/><path d="M51.5,60.1094 L51.5,87.1094 M38.5,68.1094 L64.5,68.1094 M51.5,87.1094 L38.5,102.1094 M51.5,87.1094 L64.5,102.1094 " fill="none" style="stroke:#2E5E2A;stroke-width:0.5;"/><text fill="#000000" font-family="Helvetica" font-size="14" lengthAdjust="spacing" textLength="87" x="5" y="562.3223">Administrador</text><ellipse cx="51.5" cy="573.8984" fill="#EAF3E7" rx="8" ry="8" style="stroke:#2E5E2A;stroke-width:0.5;"/><path d="M51.5,581.8984 L51.5,608.8984 M38.5,589.8984 L64.5,589.8984 M51.5,608.8984 L38.5,623.8984 M51.5,608.8984 L64.5,623.8984 " fill="none" style="stroke:#2E5E2A;stroke-width:0.5;"/><rect fill="#EAF3E7" height="31.6094" rx="2.5" ry="2.5" style="stroke:#2E5E2A;stroke-width:0.5;" width="144" x="352.5" y="88.6094"/><text fill="#000000" font-family="Helvetica" font-size="14" lengthAdjust="spacing" textLength="130" x="359.5" y="110.1426">V_CostosOperativos</text><rect fill="#EAF3E7" height="31.6094" rx="2.5" ry="2.5" style="stroke:#2E5E2A;stroke-width:0.5;" width="144" x="352.5" y="547.7891"/><text fill="#000000" font-family="Helvetica" font-size="14" lengthAdjust="spacing" textLength="130" x="359.5" y="569.3223">V_CostosOperativos</text><rect fill="#EAF3E7" height="31.6094" rx="2.5" ry="2.5" style="stroke:#2E5E2A;stroke-width:0.5;" width="120" x="650.5" y="88.6094"/><text fill="#000000" font-family="Helvetica" font-size="14" lengthAdjust="spacing" textLength="106" x="657.5" y="110.1426">C_Configuracion</text><rect fill="#EAF3E7" height="31.6094" rx="2.5" ry="2.5" style="stroke:#2E5E2A;stroke-width:0.5;" width="120" x="650.5" y="547.7891"/><text fill="#000000" font-family="Helvetica" font-size="14" lengthAdjust="spacing" textLength="106" x="657.5" y="569.3223">C_Configuracion</text><rect fill="#EAF3E7" height="31.6094" rx="2.5" ry="2.5" style="stroke:#2E5E2A;stroke-width:0.5;" width="204" x="938.5" y="88.6094"/><text fill="#000000" font-family="Helvetica" font-size="14" lengthAdjust="spacing" textLength="190" x="945.5" y="110.1426">:configuracion_costooperativo</text><rect fill="#EAF3E7" height="31.6094" rx="2.5" ry="2.5" style="stroke:#2E5E2A;stroke-width:0.5;" width="204" x="938.5" y="547.7891"/><text fill="#000000" font-family="Helvetica" font-size="14" lengthAdjust="spacing" textLength="190" x="945.5" y="569.3223">:configuracion_costooperativo</text><polygon fill="#4B7A46" points="412.5,149.5703,422.5,153.5703,412.5,157.5703,416.5,153.5703" style="stroke:#4B7A46;stroke-width:1.0;"/><line style="stroke:#4B7A46;stroke-width:1.0;" x1="51.5" x2="418.5" y1="153.5703" y2="153.5703"/><text fill="#000000" font-family="Helvetica" font-size="13" lengthAdjust="spacing" textLength="208" x="134" y="148.7139">abre costos operativos de referencia</text><polygon fill="#4B7A46" points="698.5,179.9219,708.5,183.9219,698.5,187.9219,702.5,183.9219" style="stroke:#4B7A46;stroke-width:1.0;"/><line style="stroke:#4B7A46;stroke-width:1.0;" x1="424.5" x2="704.5" y1="183.9219" y2="183.9219"/><text fill="#000000" font-family="Helvetica" font-size="13" lengthAdjust="spacing" textLength="138" x="498.5" y="179.0654">listarCostosOperativos()</text><polygon fill="#4B7A46" points="1028.5,210.2734,1038.5,214.2734,1028.5,218.2734,1032.5,214.2734" style="stroke:#4B7A46;stroke-width:1.0;"/><line style="stroke:#4B7A46;stroke-width:1.0;" x1="710.5" x2="1034.5" y1="214.2734" y2="214.2734"/><text fill="#000000" font-family="Helvetica" font-size="13" lengthAdjust="spacing" textLength="113" x="819" y="209.417">obtenerConceptos()</text><polygon fill="#4B7A46" points="721.5,240.625,711.5,244.625,721.5,248.625,717.5,244.625" style="stroke:#4B7A46;stroke-width:1.0;"/><line style="stroke:#4B7A46;stroke-width:1.0;stroke-dasharray:2.0,2.0;" x1="715.5" x2="1039.5" y1="244.625" y2="244.625"/><text fill="#000000" font-family="Helvetica" font-size="13" lengthAdjust="spacing" textLength="168" x="791.5" y="239.7686">conceptos con valor y unidad</text><polygon fill="#4B7A46" points="435.5,270.9766,425.5,274.9766,435.5,278.9766,431.5,274.9766" style="stroke:#4B7A46;stroke-width:1.0;"/><line style="stroke:#4B7A46;stroke-width:1.0;stroke-dasharray:2.0,2.0;" x1="429.5" x2="709.5" y1="274.9766" y2="274.9766"/><text fill="#000000" font-family="Helvetica" font-size="13" lengthAdjust="spacing" textLength="85" x="525" y="270.1201">lista de costos</text><polygon fill="#4B7A46" points="62.5,301.3281,52.5,305.3281,62.5,309.3281,58.5,305.3281" style="stroke:#4B7A46;stroke-width:1.0;"/><line style="stroke:#4B7A46;stroke-width:1.0;stroke-dasharray:2.0,2.0;" x1="56.5" x2="423.5" y1="305.3281" y2="305.3281"/><text fill="#000000" font-family="Helvetica" font-size="13" lengthAdjust="spacing" textLength="183" x="146.5" y="300.4717">muestra los conceptos vigentes</text><polygon fill="#4B7A46" points="412.5,331.6797,422.5,335.6797,412.5,339.6797,416.5,335.6797" style="stroke:#4B7A46;stroke-width:1.0;"/><line style="stroke:#4B7A46;stroke-width:1.0;" x1="51.5" x2="418.5" y1="335.6797" y2="335.6797"/><text fill="#000000" font-family="Helvetica" font-size="13" lengthAdjust="spacing" textLength="349" x="63.5" y="330.8232">presiona "Agregar concepto", ingresa nombre, valor y unidad</text><polygon fill="#4B7A46" points="698.5,362.0313,708.5,366.0313,698.5,370.0313,702.5,366.0313" style="stroke:#4B7A46;stroke-width:1.0;"/><line style="stroke:#4B7A46;stroke-width:1.0;" x1="424.5" x2="704.5" y1="366.0313" y2="366.0313"/><text fill="#000000" font-family="Helvetica" font-size="13" lengthAdjust="spacing" textLength="262" x="436.5" y="361.1748">guardarCostoOperativo(nombre, valor, unidad)</text><line style="stroke:#4B7A46;stroke-width:1.0;" x1="710.5" x2="752.5" y1="396.3828" y2="396.3828"/><line style="stroke:#4B7A46;stroke-width:1.0;" x1="752.5" x2="752.5" y1="396.3828" y2="409.3828"/><line style="stroke:#4B7A46;stroke-width:1.0;" x1="711.5" x2="752.5" y1="409.3828" y2="409.3828"/><polygon fill="#4B7A46" points="721.5,405.3828,711.5,409.3828,721.5,413.3828,717.5,409.3828" style="stroke:#4B7A46;stroke-width:1.0;"/><text fill="#000000" font-family="Helvetica" font-size="13" lengthAdjust="spacing" textLength="316" x="717.5" y="391.5264">validar(nombre no vacio ni repetido, valor mayor a cero)</text><polygon fill="#4B7A46" points="1028.5,435.7344,1038.5,439.7344,1028.5,443.7344,1032.5,439.7344" style="stroke:#4B7A46;stroke-width:1.0;"/><line style="stroke:#4B7A46;stroke-width:1.0;" x1="710.5" x2="1034.5" y1="439.7344" y2="439.7344"/><text fill="#000000" font-family="Helvetica" font-size="13" lengthAdjust="spacing" textLength="160" x="795.5" y="434.8779">crear(nombre, valor, unidad)</text><polygon fill="#4B7A46" points="721.5,466.0859,711.5,470.0859,721.5,474.0859,717.5,470.0859" style="stroke:#4B7A46;stroke-width:1.0;"/><line style="stroke:#4B7A46;stroke-width:1.0;stroke-dasharray:2.0,2.0;" x1="715.5" x2="1039.5" y1="470.0859" y2="470.0859"/><text fill="#000000" font-family="Helvetica" font-size="13" lengthAdjust="spacing" textLength="93" x="829" y="465.2295">costo registrado</text><polygon fill="#4B7A46" points="435.5,496.4375,425.5,500.4375,435.5,504.4375,431.5,500.4375" style="stroke:#4B7A46;stroke-width:1.0;"/><line style="stroke:#4B7A46;stroke-width:1.0;stroke-dasharray:2.0,2.0;" x1="429.5" x2="709.5" y1="500.4375" y2="500.4375"/><text fill="#000000" font-family="Helvetica" font-size="13" lengthAdjust="spacing" textLength="89" x="523" y="495.5811">costo guardado</text><polygon fill="#4B7A46" points="62.5,526.7891,52.5,530.7891,62.5,534.7891,58.5,530.7891" style="stroke:#4B7A46;stroke-width:1.0;"/><line style="stroke:#4B7A46;stroke-width:1.0;stroke-dasharray:2.0,2.0;" x1="56.5" x2="423.5" y1="530.7891" y2="530.7891"/><text fill="#000000" font-family="Helvetica" font-size="13" lengthAdjust="spacing" textLength="334" x="71" y="525.9326">confirma; disponible para las proyecciones de rentabilidad</text><!--SRC=[XLF1Rjim3BtxAuZii1H83ckp5Ss00QwHO8Tj6GeiruAn64-hB7cKd29_FyfsN3lBrW297V6HV7fyV0lPZ_cx6tYWGll0Q9K3uppapWTvk8eOWpx8go9WsXEJpJN27FQc_kN0EYxH9Fv9smePIzXX_bImgwtAd74CRzRDPu3mFr6vPsqBsAFnD8WescDjmjhPy0rBWiza3XHqZiDi-bqB1VfAtcD1gT65XPni81wWlYDBdgxGXljpGgjqVREw_GVOiIBkWDUhzwlhT01Cy-3uzNejxB-LJhVuelVojJH2tsNPucxKbzazTy75_Msw-90aGGT35uPNstPsBwCxcznqEBYh9C785b9LQjiKKOwJwaKHc6mViyOCczuB4q0Fsp4g4vJTww9cpBMp3IGRGvRv4F7OqEnPjWcR91anWVadsC8ISCVqcYUJRKHdWZQIZdpEUdgLP0rY8n2t2sIZuZA4AhJ13Sox0ldfEBx10QFoHv5MArInICUgwHD9jCmY0OcCBx24igRufrkhK-63Bg9f_UNxLanUD4AOf0LJWTndJcOWgoDXb16M8ilid5ylGr4Zgqw7NeRfA6lM9PsaaImvbnFkSD94JcHUOBLeNSawAdTgMU9HVb7MZzrGt9ofB_1tew7CqQZSkLUvWRHjgBs112uhs_X9RFmHbFQLitedAn5N1eoOgM9tf3nQZJgds80xRHgH_W00]--></g></svg>