<?xml version="1.0" encoding="us-ascii" standalone="no"?><svg xmlns="http://www.w3.org/2000/svg" xmlns:xlink="http://www.w3.org/1999/xlink" contentStyleType="text/css" height="589px" preserveAspectRatio="none" style="width:883px;height:589px;background:#FFFFFF;" version="1.1" viewBox="0 0 883 589" width="883px" zoomAndPan="magnify"><defs/><g><text fill="#000000" font-family="Helvetica" font-size="14" font-weight="bold" lengthAdjust="spacing" textLength="442" x="222.25" y="29.5332">CU-33 Sincronizando las recepciones pendientes (flujo normal)</text><rect fill="none" height="230.8125" style="stroke:#000000;stroke-width:1.5;" width="650" x="227.5" y="229.2734"/><line style="stroke:#9CC49A;stroke-width:0.5;stroke-dasharray:5.0,5.0;" x1="33" x2="33" y1="121.2188" y2="507.4375"/><line style="stroke:#9CC49A;stroke-width:0.5;stroke-dasharray:5.0,5.0;" x1="298.5" x2="298.5" y1="121.2188" y2="507.4375"/><line style="stroke:#9CC49A;stroke-width:0.5;stroke-dasharray:5.0,5.0;" x1="641.5" x2="641.5" y1="121.2188" y2="507.4375"/><line style="stroke:#9CC49A;stroke-width:0.5;stroke-dasharray:5.0,5.0;" x1="817.5" x2="817.5" y1="121.2188" y2="507.4375"/><text fill="#000000" font-family="Helvetica" font-size="14" lengthAdjust="spacing" textLength="50" x="5" y="118.1426">Sistema</text><ellipse cx="33" cy="52.1094" fill="#EAF3E7" rx="8" ry="8" style="stroke:#2E5E2A;stroke-width:0.5;"/><path d="M33,60.1094 L33,87.1094 M20,68.1094 L46,68.1094 M33,87.1094 L20,102.1094 M33,87.1094 L46,102.1094 " fill="none" style="stroke:#2E5E2A;stroke-width:0.5;"/><text fill="#000000" font-family="Helvetica" font-size="14" lengthAdjust="spacing" textLength="50" x="5" y="520.9707">Sistema</text><ellipse cx="33" cy="532.5469" fill="#EAF3E7" rx="8" ry="8" style="stroke:#2E5E2A;stroke-width:0.5;"/><path d="M33,540.5469 L33,567.5469 M20,548.5469 L46,548.5469 M33,567.5469 L20,582.5469 M33,567.5469 L46,582.5469 " fill="none" style="stroke:#2E5E2A;stroke-width:0.5;"/><rect fill="#EAF3E7" height="31.6094" rx="2.5" ry="2.5" style="stroke:#2E5E2A;stroke-width:0.5;" width="123" x="237.5" y="88.6094"/><text fill="#000000" font-family="Helvetica" font-size="14" lengthAdjust="spacing" textLength="109" x="244.5" y="110.1426">C_Sincronizacion</text><rect fill="#EAF3E7" height="31.6094" rx="2.5" ry="2.5" style="stroke:#2E5E2A;stroke-width:0.5;" width="123" x="237.5" y="506.4375"/><text fill="#000000" font-family="Helvetica" font-size="14" lengthAdjust="spacing" textLength="109" x="244.5" y="527.9707">C_Sincronizacion</text><rect fill="#EAF3E7" height="31.6094" rx="2.5" ry="2.5" style="stroke:#2E5E2A;stroke-width:0.5;" width="85" x="599.5" y="88.6094"/><text fill="#000000" font-family="Helvetica" font-size="14" lengthAdjust="spacing" textLength="71" x="606.5" y="110.1426">:Recepcion</text><rect fill="#EAF3E7" height="31.6094" rx="2.5" ry="2.5" style="stroke:#2E5E2A;stroke-width:0.5;" width="85" x="599.5" y="506.4375"/><text fill="#000000" font-family="Helvetica" font-size="14" lengthAdjust="spacing" textLength="71" x="606.5" y="527.9707">:Recepcion</text><rect fill="#EAF3E7" height="31.6094" rx="2.5" ry="2.5" style="stroke:#2E5E2A;stroke-width:0.5;" width="99" x="768.5" y="88.6094"/><text fill="#000000" font-family="Helvetica" font-size="14" lengthAdjust="spacing" textLength="85" x="775.5" y="110.1426">C_Recepcion</text><rect fill="#EAF3E7" height="31.6094" rx="2.5" ry="2.5" style="stroke:#2E5E2A;stroke-width:0.5;" width="99" x="768.5" y="506.4375"/><text fill="#000000" font-family="Helvetica" font-size="14" lengthAdjust="spacing" textLength="85" x="775.5" y="527.9707">C_Recepcion</text><polygon fill="#4B7A46" points="287,149.5703,297,153.5703,287,157.5703,291,153.5703" style="stroke:#4B7A46;stroke-width:1.0;"/><line style="stroke:#4B7A46;stroke-width:1.0;" x1="33" x2="293" y1="153.5703" y2="153.5703"/><text fill="#000000" font-family="Helvetica" font-size="13" lengthAdjust="spacing" textLength="242" x="45" y="148.7139">detecta reconexion e inicia sincronizacion</text><polygon fill="#4B7A46" points="630,179.9219,640,183.9219,630,187.9219,634,183.9219" style="stroke:#4B7A46;stroke-width:1.0;"/><line style="stroke:#4B7A46;stroke-width:1.0;" x1="299" x2="636" y1="183.9219" y2="183.9219"/><text fill="#000000" font-family="Helvetica" font-size="13" lengthAdjust="spacing" textLength="319" x="311" y="179.0654">obtenerPendientes(estado_sincronizacion="pendiente")</text><polygon fill="#4B7A46" points="310,210.2734,300,214.2734,310,218.2734,306,214.2734" style="stroke:#4B7A46;stroke-width:1.0;"/><line style="stroke:#4B7A46;stroke-width:1.0;stroke-dasharray:2.0,2.0;" x1="304" x2="641" y1="214.2734" y2="214.2734"/><text fill="#000000" font-family="Helvetica" font-size="13" lengthAdjust="spacing" textLength="183" x="379" y="209.417">lista de recepciones pendientes</text><path d="M227.5,229.2734 L300.5,229.2734 L300.5,237.625 L290.5,247.625 L227.5,247.625 L227.5,229.2734 " fill="#EEEEEE" style="stroke:#000000;stroke-width:1.5;"/><rect fill="none" height="230.8125" style="stroke:#000000;stroke-width:1.5;" width="650" x="227.5" y="229.2734"/><text fill="#000000" font-family="Helvetica" font-size="13" font-weight="bold" lengthAdjust="spacing" textLength="28" x="242.5" y="243.7686">loop</text><text fill="#000000" font-family="Helvetica" font-size="11" font-weight="bold" lengthAdjust="spacing" textLength="172" x="315.5" y="242.6924">[por cada recepcion pendiente]</text><polygon fill="#4B7A46" points="806,265.9766,816,269.9766,806,273.9766,810,269.9766" style="stroke:#4B7A46;stroke-width:1.0;"/><line style="stroke:#4B7A46;stroke-width:1.0;" x1="299" x2="812" y1="269.9766" y2="269.9766"/><text fill="#000000" font-family="Helvetica" font-size="13" lengthAdjust="spacing" textLength="149" x="484" y="265.1201">enviar(recepcion, id_local)</text><polygon fill="#4B7A46" points="653,296.3281,643,300.3281,653,304.3281,649,300.3281" style="stroke:#4B7A46;stroke-width:1.0;"/><line style="stroke:#4B7A46;stroke-width:1.0;" x1="647" x2="817" y1="300.3281" y2="300.3281"/><text fill="#000000" font-family="Helvetica" font-size="13" lengthAdjust="spacing" textLength="152" x="654" y="295.4717">buscarPorIdLocal(id_local)</text><polygon fill="#4B7A46" points="806,326.6797,816,330.6797,806,334.6797,810,330.6797" style="stroke:#4B7A46;stroke-width:1.0;"/><line style="stroke:#4B7A46;stroke-width:1.0;stroke-dasharray:2.0,2.0;" x1="642" x2="812" y1="330.6797" y2="330.6797"/><text fill="#000000" font-family="Helvetica" font-size="13" lengthAdjust="spacing" textLength="133" x="663.5" y="325.8232">no existe en el servidor</text><polygon fill="#4B7A46" points="653,357.0313,643,361.0313,653,365.0313,649,361.0313" style="stroke:#4B7A46;stroke-width:1.0;"/><line style="stroke:#4B7A46;stroke-width:1.0;" x1="647" x2="817" y1="361.0313" y2="361.0313"/><text fill="#000000" font-family="Helvetica" font-size="13" lengthAdjust="spacing" textLength="93" x="683.5" y="356.1748">crear(recepcion)</text><polygon fill="#4B7A46" points="806,387.3828,816,391.3828,806,395.3828,810,391.3828" style="stroke:#4B7A46;stroke-width:1.0;"/><line style="stroke:#4B7A46;stroke-width:1.0;stroke-dasharray:2.0,2.0;" x1="642" x2="812" y1="391.3828" y2="391.3828"/><text fill="#000000" font-family="Helvetica" font-size="13" lengthAdjust="spacing" textLength="63" x="698.5" y="386.5264">confirmada</text><polygon fill="#4B7A46" points="310,417.7344,300,421.7344,310,425.7344,306,421.7344" style="stroke:#4B7A46;stroke-width:1.0;"/><line style="stroke:#4B7A46;stroke-width:1.0;stroke-dasharray:2.0,2.0;" x1="304" x2="817" y1="421.7344" y2="421.7344"/><text fill="#000000" font-family="Helvetica" font-size="13" lengthAdjust="spacing" textLength="133" x="492" y="416.8779">recepcion sincronizada</text><polygon fill="#4B7A46" points="630,448.0859,640,452.0859,630,456.0859,634,452.0859" style="stroke:#4B7A46;stroke-width:1.0;"/><line style="stroke:#4B7A46;stroke-width:1.0;" x1="299" x2="636" y1="452.0859" y2="452.0859"/><text fill="#000000" font-family="Helvetica" font-size="13" lengthAdjust="spacing" textLength="268" x="336.5" y="447.2295">marcar(estado_sincronizacion="sincronizada")</text><polygon fill="#4B7A46" points="44,485.4375,34,489.4375,44,493.4375,40,489.4375" style="stroke:#4B7A46;stroke-width:1.0;"/><line style="stroke:#4B7A46;stroke-width:1.0;stroke-dasharray:2.0,2.0;" x1="38" x2="298" y1="489.4375" y2="489.4375"/><text fill="#000000" font-family="Helvetica" font-size="13" lengthAdjust="spacing" textLength="71" x="130.5" y="484.5811">cola vaciada</text><!--SRC=[bLBHQjj047o_hrZSXpfGlyHkGm8jACAcXRGOcpoRzTtAlUPqf-wTdTAlxvwjM5B0BHK8X7PsPdPstqBvE9bEOMszvk3jR_GcWCC8J9eQROEd20rvOyad-KINA_9N9sIOGENsFmBum3Kw5P-iRv2nXYtgfns7lJTbS87XpUBuz13nEvhmRFqEAdIHUXL35UvTMWIVlc5Dy9dSWPBLsE-cdtlochvIZBYZmjcT1vqjSW-rH9O-sw1FzwyDpOl5T7vp0HpO4BV0w_dx-NNH0nOw1VuttmdsLwQNAHvi9Q-d0VgsB6Ut0rtcyDmMP_StnUo3KiacH_-xmt5_QLTAONOgxJ5HZQhfSe1HkUbOCz48X7OznDojNcIErTLhXc6vLAfLWiadMCETx3lbQshlwfS0WS1wOK280tMrpZqhwGdRH9vuUHvgJ379GMs63Hz7vx57Lse5arRIYGCKuGi9AHT20us4ej5W1-eW2k3efHGoyWUBF3wZte4r6nTqpXO4qLhUxgD6NWR-OXvoSTn7dQnbDXz0Cf20X1V8oOtmmPh0VIhDr1SS4aY8bPND6Zorj2DtGtGH7I7dJ6jaCNWfo7wNP2b1v6raydQRMTaX70IVYVy0]--></g></svg>