<?xml version="1.0" encoding="us-ascii" standalone="no"?><svg xmlns="http://www.w3.org/2000/svg" xmlns:xlink="http://www.w3.org/1999/xlink" contentStyleType="text/css" height="813px" preserveAspectRatio="none" style="width:1037px;height:813px;background:#FFFFFF;" version="1.1" viewBox="0 0 1037 813" width="1037px" zoomAndPan="magnify"><defs/><g><text fill="#000000" font-family="Helvetica" font-size="14" font-weight="bold" lengthAdjust="spacing" textLength="527" x="256.25" y="29.5332">CU-38 Registrando un volteo (excepcion: sin temperatura o sobre el techo)</text><rect fill="none" height="515.6484" style="stroke:#000000;stroke-width:1.5;" width="1020.5" x="10" y="198.9219"/><rect fill="none" height="346.0547" style="stroke:#000000;stroke-width:1.5;" width="1000.5" x="20" y="361.5156"/><line style="stroke:#9CC49A;stroke-width:0.5;stroke-dasharray:5.0,5.0;" x1="63" x2="63" y1="121.2188" y2="731.5703"/><line style="stroke:#9CC49A;stroke-width:0.5;stroke-dasharray:5.0,5.0;" x1="300.5" x2="300.5" y1="121.2188" y2="731.5703"/><line style="stroke:#9CC49A;stroke-width:0.5;stroke-dasharray:5.0,5.0;" x1="604.5" x2="604.5" y1="121.2188" y2="731.5703"/><line style="stroke:#9CC49A;stroke-width:0.5;stroke-dasharray:5.0,5.0;" x1="829.5" x2="829.5" y1="121.2188" y2="731.5703"/><line style="stroke:#9CC49A;stroke-width:0.5;stroke-dasharray:5.0,5.0;" x1="963.5" x2="963.5" y1="121.2188" y2="731.5703"/><text fill="#000000" font-family="Helvetica" font-size="14" lengthAdjust="spacing" textLength="61" x="30" y="118.1426">Operador</text><ellipse cx="63.5" cy="52.1094" fill="#EAF3E7" rx="8" ry="8" style="stroke:#2E5E2A;stroke-width:0.5;"/><path d="M63.5,60.1094 L63.5,87.1094 M50.5,68.1094 L76.5,68.1094 M63.5,87.1094 L50.5,102.1094 M63.5,87.1094 L76.5,102.1094 " fill="none" style="stroke:#2E5E2A;stroke-width:0.5;"/><text fill="#000000" font-family="Helvetica" font-size="14" lengthAdjust="spacing" textLength="61" x="30" y="745.1035">Operador</text><ellipse cx="63.5" cy="756.6797" fill="#EAF3E7" rx="8" ry="8" style="stroke:#2E5E2A;stroke-width:0.5;"/><path d="M63.5,764.6797 L63.5,791.6797 M50.5,772.6797 L76.5,772.6797 M63.5,791.6797 L50.5,806.6797 M63.5,791.6797 L76.5,806.6797 " fill="none" style="stroke:#2E5E2A;stroke-width:0.5;"/><rect fill="#EAF3E7" height="31.6094" rx="2.5" ry="2.5" style="stroke:#2E5E2A;stroke-width:0.5;" width="136" x="232.5" y="88.6094"/><text fill="#000000" font-family="Helvetica" font-size="14" lengthAdjust="spacing" textLength="122" x="239.5" y="110.1426">V_RegistroProceso</text><rect fill="#EAF3E7" height="31.6094" rx="2.5" ry="2.5" style="stroke:#2E5E2A;stroke-width:0.5;" width="136" x="232.5" y="730.5703"/><text fill="#000000" font-family="Helvetica" font-size="14" lengthAdjust="spacing" textLength="122" x="239.5" y="752.1035">V_RegistroProceso</text><rect fill="#EAF3E7" height="31.6094" rx="2.5" ry="2.5" style="stroke:#2E5E2A;stroke-width:0.5;" width="114" x="547.5" y="88.6094"/><text fill="#000000" font-family="Helvetica" font-size="14" lengthAdjust="spacing" textLength="100" x="554.5" y="110.1426">C_ProcesosPila</text><rect fill="#EAF3E7" height="31.6094" rx="2.5" ry="2.5" style="stroke:#2E5E2A;stroke-width:0.5;" width="114" x="547.5" y="730.5703"/><text fill="#000000" font-family="Helvetica" font-size="14" lengthAdjust="spacing" textLength="100" x="554.5" y="752.1035">C_ProcesosPila</text><rect fill="#EAF3E7" height="31.6094" rx="2.5" ry="2.5" style="stroke:#2E5E2A;stroke-width:0.5;" width="156" x="751.5" y="88.6094"/><text fill="#000000" font-family="Helvetica" font-size="14" lengthAdjust="spacing" textLength="142" x="758.5" y="110.1426">:ParametroConversion</text><rect fill="#EAF3E7" height="31.6094" rx="2.5" ry="2.5" style="stroke:#2E5E2A;stroke-width:0.5;" width="156" x="751.5" y="730.5703"/><text fill="#000000" font-family="Helvetica" font-size="14" lengthAdjust="spacing" textLength="142" x="758.5" y="752.1035">:ParametroConversion</text><rect fill="#EAF3E7" height="31.6094" rx="2.5" ry="2.5" style="stroke:#2E5E2A;stroke-width:0.5;" width="93" x="917.5" y="88.6094"/><text fill="#000000" font-family="Helvetica" font-size="14" lengthAdjust="spacing" textLength="79" x="924.5" y="110.1426">:ProcesoPila</text><rect fill="#EAF3E7" height="31.6094" rx="2.5" ry="2.5" style="stroke:#2E5E2A;stroke-width:0.5;" width="93" x="917.5" y="730.5703"/><text fill="#000000" font-family="Helvetica" font-size="14" lengthAdjust="spacing" textLength="79" x="924.5" y="752.1035">:ProcesoPila</text><polygon fill="#4B7A46" points="288.5,149.5703,298.5,153.5703,288.5,157.5703,292.5,153.5703" style="stroke:#4B7A46;stroke-width:1.0;"/><line style="stroke:#4B7A46;stroke-width:1.0;" x1="63.5" x2="294.5" y1="153.5703" y2="153.5703"/><text fill="#000000" font-family="Helvetica" font-size="13" lengthAdjust="spacing" textLength="156" x="104" y="148.7139">confirma el volteo de la pila</text><polygon fill="#4B7A46" points="592.5,179.9219,602.5,183.9219,592.5,187.9219,596.5,183.9219" style="stroke:#4B7A46;stroke-width:1.0;"/><line style="stroke:#4B7A46;stroke-width:1.0;" x1="300.5" x2="598.5" y1="183.9219" y2="183.9219"/><text fill="#000000" font-family="Helvetica" font-size="13" lengthAdjust="spacing" textLength="280" x="312.5" y="179.0654">registrarProceso(tipo="volteo", pila, temperatura)</text><path d="M10,198.9219 L71,198.9219 L71,207.2734 L61,217.2734 L10,217.2734 L10,198.9219 " fill="#EEEEEE" style="stroke:#000000;stroke-width:1.5;"/><rect fill="none" height="515.6484" style="stroke:#000000;stroke-width:1.5;" width="1020.5" x="10" y="198.9219"/><text fill="#000000" font-family="Helvetica" font-size="13" font-weight="bold" lengthAdjust="spacing" textLength="16" x="25" y="213.417">alt</text><text fill="#000000" font-family="Helvetica" font-size="11" font-weight="bold" lengthAdjust="spacing" textLength="169" x="86" y="212.3408">[no se ingreso la temperatura]</text><polygon fill="#4B7A46" points="311.5,235.625,301.5,239.625,311.5,243.625,307.5,239.625" style="stroke:#4B7A46;stroke-width:1.0;"/><line style="stroke:#4B7A46;stroke-width:1.0;stroke-dasharray:2.0,2.0;" x1="305.5" x2="603.5" y1="239.625" y2="239.625"/><text fill="#000000" font-family="Helvetica" font-size="13" lengthAdjust="spacing" textLength="244" x="330.5" y="234.7686">error de validacion(temperatura obligatoria)</text><polygon fill="#4B7A46" points="74.5,265.9766,64.5,269.9766,74.5,273.9766,70.5,269.9766" style="stroke:#4B7A46;stroke-width:1.0;"/><line style="stroke:#4B7A46;stroke-width:1.0;stroke-dasharray:2.0,2.0;" x1="68.5" x2="299.5" y1="269.9766" y2="269.9766"/><text fill="#000000" font-family="Helvetica" font-size="13" lengthAdjust="spacing" textLength="213" x="75.5" y="265.1201">indica el campo y no crea el proceso</text><line style="stroke:#000000;stroke-width:1.0;stroke-dasharray:2.0,2.0;" x1="10" x2="1030.5" y1="278.9766" y2="278.9766"/><text fill="#000000" font-family="Helvetica" font-size="11" font-weight="bold" lengthAdjust="spacing" textLength="136" x="15" y="290.3955">[temperatura informada]</text><polygon fill="#4B7A46" points="817.5,312.1641,827.5,316.1641,817.5,320.1641,821.5,316.1641" style="stroke:#4B7A46;stroke-width:1.0;"/><line style="stroke:#4B7A46;stroke-width:1.0;" x1="604.5" x2="823.5" y1="316.1641" y2="316.1641"/><text fill="#000000" font-family="Helvetica" font-size="13" lengthAdjust="spacing" textLength="174" x="630" y="311.3076">obtenerTechoDeTemperatura()</text><polygon fill="#4B7A46" points="615.5,342.5156,605.5,346.5156,615.5,350.5156,611.5,346.5156" style="stroke:#4B7A46;stroke-width:1.0;"/><line style="stroke:#4B7A46;stroke-width:1.0;stroke-dasharray:2.0,2.0;" x1="609.5" x2="828.5" y1="346.5156" y2="346.5156"/><text fill="#000000" font-family="Helvetica" font-size="13" lengthAdjust="spacing" textLength="201" x="616.5" y="341.6592">temperatura maxima recomendada</text><path d="M20,361.5156 L81,361.5156 L81,369.8672 L71,379.8672 L20,379.8672 L20,361.5156 " fill="#EEEEEE" style="stroke:#000000;stroke-width:1.5;"/><rect fill="none" height="346.0547" style="stroke:#000000;stroke-width:1.5;" width="1000.5" x="20" y="361.5156"/><text fill="#000000" font-family="Helvetica" font-size="13" font-weight="bold" lengthAdjust="spacing" textLength="16" x="35" y="376.0107">alt</text><text fill="#000000" font-family="Helvetica" font-size="11" font-weight="bold" lengthAdjust="spacing" textLength="240" x="96" y="374.9346">[temperatura sobre el techo recomendado]</text><polygon fill="#4B7A46" points="952,398.2188,962,402.2188,952,406.2188,956,402.2188" style="stroke:#4B7A46;stroke-width:1.0;"/><line style="stroke:#4B7A46;stroke-width:1.0;" x1="604.5" x2="958" y1="402.2188" y2="402.2188"/><text fill="#000000" font-family="Helvetica" font-size="13" lengthAdjust="spacing" textLength="259" x="654.75" y="397.3623">crear(tipo="volteo", temperatura, advertencia)</text><polygon fill="#4B7A46" points="615.5,428.5703,605.5,432.5703,615.5,436.5703,611.5,432.5703" style="stroke:#4B7A46;stroke-width:1.0;"/><line style="stroke:#4B7A46;stroke-width:1.0;stroke-dasharray:2.0,2.0;" x1="609.5" x2="963" y1="432.5703" y2="432.5703"/><text fill="#000000" font-family="Helvetica" font-size="13" lengthAdjust="spacing" textLength="188" x="690.25" y="427.7139">volteo registrado con advertencia</text><path d="M609,445.5703 L609,504.5703 L806,504.5703 L806,455.5703 L796,445.5703 L609,445.5703 " fill="#FEFFDD" style="stroke:#181818;stroke-width:0.5;"/><path d="M796,445.5703 L796,455.5703 L806,455.5703 L796,445.5703 " fill="#FEFFDD" style="stroke:#181818;stroke-width:0.5;"/><text fill="#000000" font-family="Helvetica" font-size="13" lengthAdjust="spacing" textLength="176" x="615" y="464.0654">Excepcion 2: se registra igual;</text><text fill="#000000" font-family="Helvetica" font-size="13" lengthAdjust="spacing" textLength="155" x="615" y="480.417">el exceso sostenido afecta</text><text fill="#000000" font-family="Helvetica" font-size="13" lengthAdjust="spacing" textLength="130" x="615" y="496.7686">la calidad del compost</text><polygon fill="#4B7A46" points="311.5,527.9766,301.5,531.9766,311.5,535.9766,307.5,531.9766" style="stroke:#4B7A46;stroke-width:1.0;"/><line style="stroke:#4B7A46;stroke-width:1.0;stroke-dasharray:2.0,2.0;" x1="305.5" x2="603.5" y1="531.9766" y2="531.9766"/><text fill="#000000" font-family="Helvetica" font-size="13" lengthAdjust="spacing" textLength="201" x="352" y="527.1201">proceso registrado con advertencia</text><polygon fill="#4B7A46" points="74.5,558.3281,64.5,562.3281,74.5,566.3281,70.5,562.3281" style="stroke:#4B7A46;stroke-width:1.0;"/><line style="stroke:#4B7A46;stroke-width:1.0;stroke-dasharray:2.0,2.0;" x1="68.5" x2="299.5" y1="562.3281" y2="562.3281"/><text fill="#000000" font-family="Helvetica" font-size="13" lengthAdjust="spacing" textLength="209" x="77.5" y="557.4717">confirma el volteo y muestra el aviso</text><line style="stroke:#000000;stroke-width:1.0;stroke-dasharray:2.0,2.0;" x1="20" x2="1020.5" y1="571.3281" y2="571.3281"/><text fill="#000000" font-family="Helvetica" font-size="11" font-weight="bold" lengthAdjust="spacing" textLength="172" x="25" y="582.7471">[temperatura dentro del rango]</text><polygon fill="#4B7A46" points="952,604.5156,962,608.5156,952,612.5156,956,608.5156" style="stroke:#4B7A46;stroke-width:1.0;"/><line style="stroke:#4B7A46;stroke-width:1.0;" x1="604.5" x2="958" y1="608.5156" y2="608.5156"/><text fill="#000000" font-family="Helvetica" font-size="13" lengthAdjust="spacing" textLength="186" x="691.25" y="603.6592">crear(tipo="volteo", temperatura)</text><polygon fill="#4B7A46" points="615.5,634.8672,605.5,638.8672,615.5,642.8672,611.5,638.8672" style="stroke:#4B7A46;stroke-width:1.0;"/><line style="stroke:#4B7A46;stroke-width:1.0;stroke-dasharray:2.0,2.0;" x1="609.5" x2="963" y1="638.8672" y2="638.8672"/><text fill="#000000" font-family="Helvetica" font-size="13" lengthAdjust="spacing" textLength="94" x="737.25" y="634.0107">volteo registrado</text><polygon fill="#4B7A46" points="311.5,665.2188,301.5,669.2188,311.5,673.2188,307.5,669.2188" style="stroke:#4B7A46;stroke-width:1.0;"/><line style="stroke:#4B7A46;stroke-width:1.0;stroke-dasharray:2.0,2.0;" x1="305.5" x2="603.5" y1="669.2188" y2="669.2188"/><text fill="#000000" font-family="Helvetica" font-size="13" lengthAdjust="spacing" textLength="107" x="399" y="664.3623">proceso registrado</text><polygon fill="#4B7A46" points="74.5,695.5703,64.5,699.5703,74.5,703.5703,70.5,699.5703" style="stroke:#4B7A46;stroke-width:1.0;"/><line style="stroke:#4B7A46;stroke-width:1.0;stroke-dasharray:2.0,2.0;" x1="68.5" x2="299.5" y1="699.5703" y2="699.5703"/><text fill="#000000" font-family="Helvetica" font-size="13" lengthAdjust="spacing" textLength="100" x="132" y="694.7139">confirma el volteo</text><!--SRC=[bLHDJzj04BtxLupIGuEKN82Magf8mGtgeHzMHND2GfFTiTbYxxYxwm3_lhEE3GvfIHl9EUo-UVFclR5VG_fZUlGElbDXV71eDKDZOSrb80PDK2BKHlwca9VDp_Q8xXNLoh1D_AsnDJgiO8Ngjd3SM9rooGvUNRI_0SBVeEOxOml8iVGqkD6KOrE62xRXArO4dwXSKp0AXzNqgo6hw0jvZmNDIrDOK6G3kG4gGoTrfaORpfyBMimlZXOdVm6pq-GwuE7YpU9mFW3ELM2tdsy3Uv6fd-ApoUMnj8K-JTFZqws-pl5TTtbyVZ8_VfiamOIINini_1ZF3Bon4AYgoM5e70A3vvMJ14ivLZTya2GOLSEt2D7ialh951WjhxiMd3bMv7a4w66v3KglkqkVoPwqY7GRCSlYE2GqATirEI_QMbos0zmmFH9bMPBqqc1w1akOWMAR6rTX769dJPDbXAK2SvqvhkCS1rFpXz6cOZHfqPEXEGS9bW6iM4GWM-ga9h8E40a8yxIJGHAEYvtNM1gDqU_nbjKhML4KRuqmWvJ4miTPPj92ouR78HHMDSD3RAqSjKVrHdD2yg9i1MXipZAxxhISYON2nQj0bjnbZFGZNJxXnx5rjX4TWKEg2k-DkEX8SKLMRpYZ1KFGzheCm2pWNa8MKn7bxhd70wO9e9ReHQVQ60AnhjVLvTXd9liiAGyhsWBBWS2PuYO0vstTebzrE9p5t7e2C4M3vVihAyhZw-3ZudkXCaADEQc0LrR2LMrsMcAK65XYyA6VgukvIsAVj9ru_x2b3r0rrAgJCrmR7ptSILZBDyrngqZUxE9_VTvlxTu1_tMWgDxg93w_0G00]--></g></svg>