<?xml version="1.0" encoding="us-ascii" standalone="no"?><svg xmlns="http://www.w3.org/2000/svg" xmlns:xlink="http://www.w3.org/1999/xlink" contentStyleType="text/css" height="879px" preserveAspectRatio="none" style="width:1154px;height:879px;background:#FFFFFF;" version="1.1" viewBox="0 0 1154 879" width="1154px" zoomAndPan="magnify"><defs/><g><text fill="#000000" font-family="Helvetica" font-size="14" font-weight="bold" lengthAdjust="spacing" textLength="562" x="297" y="29.5332">CU-42 Registrando el ensacado (excepcion: cantidad invalida o sobre el curado)</text><rect fill="none" height="581.8359" style="stroke:#000000;stroke-width:1.5;" width="1137" x="10" y="198.9219"/><line style="stroke:#9CC49A;stroke-width:0.5;stroke-dasharray:5.0,5.0;" x1="53" x2="53" y1="121.2188" y2="797.7578"/><line style="stroke:#9CC49A;stroke-width:0.5;stroke-dasharray:5.0,5.0;" x1="333.5" x2="333.5" y1="121.2188" y2="797.7578"/><line style="stroke:#9CC49A;stroke-width:0.5;stroke-dasharray:5.0,5.0;" x1="656.5" x2="656.5" y1="121.2188" y2="797.7578"/><line style="stroke:#9CC49A;stroke-width:0.5;stroke-dasharray:5.0,5.0;" x1="923" x2="923" y1="121.2188" y2="797.7578"/><line style="stroke:#9CC49A;stroke-width:0.5;stroke-dasharray:5.0,5.0;" x1="1000" x2="1000" y1="121.2188" y2="797.7578"/><line style="stroke:#9CC49A;stroke-width:0.5;stroke-dasharray:5.0,5.0;" x1="1097" x2="1097" y1="121.2188" y2="797.7578"/><text fill="#000000" font-family="Helvetica" font-size="14" lengthAdjust="spacing" textLength="61" x="20" y="118.1426">Operador</text><ellipse cx="53.5" cy="52.1094" fill="#EAF3E7" rx="8" ry="8" style="stroke:#2E5E2A;stroke-width:0.5;"/><path d="M53.5,60.1094 L53.5,87.1094 M40.5,68.1094 L66.5,68.1094 M53.5,87.1094 L40.5,102.1094 M53.5,87.1094 L66.5,102.1094 " fill="none" style="stroke:#2E5E2A;stroke-width:0.5;"/><text fill="#000000" font-family="Helvetica" font-size="14" lengthAdjust="spacing" textLength="61" x="20" y="811.291">Operador</text><ellipse cx="53.5" cy="822.8672" fill="#EAF3E7" rx="8" ry="8" style="stroke:#2E5E2A;stroke-width:0.5;"/><path d="M53.5,830.8672 L53.5,857.8672 M40.5,838.8672 L66.5,838.8672 M53.5,857.8672 L40.5,872.8672 M53.5,857.8672 L66.5,872.8672 " fill="none" style="stroke:#2E5E2A;stroke-width:0.5;"/><rect fill="#EAF3E7" height="31.6094" rx="2.5" ry="2.5" style="stroke:#2E5E2A;stroke-width:0.5;" width="136" x="265.5" y="88.6094"/><text fill="#000000" font-family="Helvetica" font-size="14" lengthAdjust="spacing" textLength="122" x="272.5" y="110.1426">V_RegistroProceso</text><rect fill="#EAF3E7" height="31.6094" rx="2.5" ry="2.5" style="stroke:#2E5E2A;stroke-width:0.5;" width="136" x="265.5" y="796.7578"/><text fill="#000000" font-family="Helvetica" font-size="14" lengthAdjust="spacing" textLength="122" x="272.5" y="818.291">V_RegistroProceso</text><rect fill="#EAF3E7" height="31.6094" rx="2.5" ry="2.5" style="stroke:#2E5E2A;stroke-width:0.5;" width="114" x="599.5" y="88.6094"/><text fill="#000000" font-family="Helvetica" font-size="14" lengthAdjust="spacing" textLength="100" x="606.5" y="110.1426">C_ProcesosPila</text><rect fill="#EAF3E7" height="31.6094" rx="2.5" ry="2.5" style="stroke:#2E5E2A;stroke-width:0.5;" width="114" x="599.5" y="796.7578"/><text fill="#000000" font-family="Helvetica" font-size="14" lengthAdjust="spacing" textLength="100" x="606.5" y="818.291">C_ProcesosPila</text><rect fill="#EAF3E7" height="31.6094" rx="2.5" ry="2.5" style="stroke:#2E5E2A;stroke-width:0.5;" width="41" x="903" y="88.6094"/><text fill="#000000" font-family="Helvetica" font-size="14" lengthAdjust="spacing" textLength="27" x="910" y="110.1426">:Pila</text><rect fill="#EAF3E7" height="31.6094" rx="2.5" ry="2.5" style="stroke:#2E5E2A;stroke-width:0.5;" width="41" x="903" y="796.7578"/><text fill="#000000" font-family="Helvetica" font-size="14" lengthAdjust="spacing" textLength="27" x="910" y="818.291">:Pila</text><rect fill="#EAF3E7" height="31.6094" rx="2.5" ry="2.5" style="stroke:#2E5E2A;stroke-width:0.5;" width="93" x="954" y="88.6094"/><text fill="#000000" font-family="Helvetica" font-size="14" lengthAdjust="spacing" textLength="79" x="961" y="110.1426">:ProcesoPila</text><rect fill="#EAF3E7" height="31.6094" rx="2.5" ry="2.5" style="stroke:#2E5E2A;stroke-width:0.5;" width="93" x="954" y="796.7578"/><text fill="#000000" font-family="Helvetica" font-size="14" lengthAdjust="spacing" textLength="79" x="961" y="818.291">:ProcesoPila</text><rect fill="#EAF3E7" height="31.6094" rx="2.5" ry="2.5" style="stroke:#2E5E2A;stroke-width:0.5;" width="80" x="1057" y="88.6094"/><text fill="#000000" font-family="Helvetica" font-size="14" lengthAdjust="spacing" textLength="66" x="1064" y="110.1426">:Inventario</text><rect fill="#EAF3E7" height="31.6094" rx="2.5" ry="2.5" style="stroke:#2E5E2A;stroke-width:0.5;" width="80" x="1057" y="796.7578"/><text fill="#000000" font-family="Helvetica" font-size="14" lengthAdjust="spacing" textLength="66" x="1064" y="818.291">:Inventario</text><polygon fill="#4B7A46" points="321.5,149.5703,331.5,153.5703,321.5,157.5703,325.5,153.5703" style="stroke:#4B7A46;stroke-width:1.0;"/><line style="stroke:#4B7A46;stroke-width:1.0;" x1="53.5" x2="327.5" y1="153.5703" y2="153.5703"/><text fill="#000000" font-family="Helvetica" font-size="13" lengthAdjust="spacing" textLength="233" x="77" y="148.7139">ingresa la cantidad ensacada y confirma</text><polygon fill="#4B7A46" points="644.5,179.9219,654.5,183.9219,644.5,187.9219,648.5,183.9219" style="stroke:#4B7A46;stroke-width:1.0;"/><line style="stroke:#4B7A46;stroke-width:1.0;" x1="333.5" x2="650.5" y1="183.9219" y2="183.9219"/><text fill="#000000" font-family="Helvetica" font-size="13" lengthAdjust="spacing" textLength="281" x="354.5" y="179.0654">registrarProceso(tipo="ensacado", pila, volumen)</text><path d="M10,198.9219 L71,198.9219 L71,207.2734 L61,217.2734 L10,217.2734 L10,198.9219 " fill="#EEEEEE" style="stroke:#000000;stroke-width:1.5;"/><rect fill="none" height="581.8359" style="stroke:#000000;stroke-width:1.5;" width="1137" x="10" y="198.9219"/><text fill="#000000" font-family="Helvetica" font-size="13" font-weight="bold" lengthAdjust="spacing" textLength="16" x="25" y="213.417">alt</text><text fill="#000000" font-family="Helvetica" font-size="11" font-weight="bold" lengthAdjust="spacing" textLength="139" x="86" y="212.3408">[cantidad vacia o en cero]</text><polygon fill="#4B7A46" points="344.5,235.625,334.5,239.625,344.5,243.625,340.5,239.625" style="stroke:#4B7A46;stroke-width:1.0;"/><line style="stroke:#4B7A46;stroke-width:1.0;stroke-dasharray:2.0,2.0;" x1="338.5" x2="655.5" y1="239.625" y2="239.625"/><text fill="#000000" font-family="Helvetica" font-size="13" lengthAdjust="spacing" textLength="241" x="374.5" y="234.7686">error de validacion(cantidad mayor a cero)</text><polygon fill="#4B7A46" points="64.5,265.9766,54.5,269.9766,64.5,273.9766,60.5,269.9766" style="stroke:#4B7A46;stroke-width:1.0;"/><line style="stroke:#4B7A46;stroke-width:1.0;stroke-dasharray:2.0,2.0;" x1="58.5" x2="332.5" y1="269.9766" y2="269.9766"/><text fill="#000000" font-family="Helvetica" font-size="13" lengthAdjust="spacing" textLength="155" x="116" y="265.1201">solicita una cantidad valida</text><line style="stroke:#000000;stroke-width:1.0;stroke-dasharray:2.0,2.0;" x1="10" x2="1147" y1="278.9766" y2="278.9766"/><text fill="#000000" font-family="Helvetica" font-size="11" font-weight="bold" lengthAdjust="spacing" textLength="153" x="15" y="290.3955">[la pila no esta "en reposo"]</text><polygon fill="#4B7A46" points="911.5,312.1641,921.5,316.1641,911.5,320.1641,915.5,316.1641" style="stroke:#4B7A46;stroke-width:1.0;"/><line style="stroke:#4B7A46;stroke-width:1.0;" x1="656.5" x2="917.5" y1="316.1641" y2="316.1641"/><text fill="#000000" font-family="Helvetica" font-size="13" lengthAdjust="spacing" textLength="71" x="754.5" y="311.3076">obtener(pila)</text><polygon fill="#4B7A46" points="667.5,342.5156,657.5,346.5156,667.5,350.5156,663.5,346.5156" style="stroke:#4B7A46;stroke-width:1.0;"/><line style="stroke:#4B7A46;stroke-width:1.0;stroke-dasharray:2.0,2.0;" x1="661.5" x2="922.5" y1="346.5156" y2="346.5156"/><text fill="#000000" font-family="Helvetica" font-size="13" lengthAdjust="spacing" textLength="116" x="732" y="341.6592">estado incompatible</text><polygon fill="#4B7A46" points="344.5,372.8672,334.5,376.8672,344.5,380.8672,340.5,376.8672" style="stroke:#4B7A46;stroke-width:1.0;"/><line style="stroke:#4B7A46;stroke-width:1.0;stroke-dasharray:2.0,2.0;" x1="338.5" x2="655.5" y1="376.8672" y2="376.8672"/><text fill="#000000" font-family="Helvetica" font-size="13" lengthAdjust="spacing" textLength="232" x="379" y="372.0107">error(solo se ensaca una pila en reposo)</text><polygon fill="#4B7A46" points="64.5,403.2188,54.5,407.2188,64.5,411.2188,60.5,407.2188" style="stroke:#4B7A46;stroke-width:1.0;"/><line style="stroke:#4B7A46;stroke-width:1.0;stroke-dasharray:2.0,2.0;" x1="58.5" x2="332.5" y1="407.2188" y2="407.2188"/><text fill="#000000" font-family="Helvetica" font-size="13" lengthAdjust="spacing" textLength="186" x="100.5" y="402.3623">indica el estado actual de la pila</text><line style="stroke:#000000;stroke-width:1.0;stroke-dasharray:2.0,2.0;" x1="10" x2="1147" y1="416.2188" y2="416.2188"/><text fill="#000000" font-family="Helvetica" font-size="11" font-weight="bold" lengthAdjust="spacing" textLength="257" x="15" y="427.6377">[cantidad mayor al curado disponible de la pila]</text><polygon fill="#4B7A46" points="911.5,449.4063,921.5,453.4063,911.5,457.4063,915.5,453.4063" style="stroke:#4B7A46;stroke-width:1.0;"/><line style="stroke:#4B7A46;stroke-width:1.0;" x1="656.5" x2="917.5" y1="453.4063" y2="453.4063"/><text fill="#000000" font-family="Helvetica" font-size="13" lengthAdjust="spacing" textLength="172" x="704" y="448.5498">obtenerCuradoDisponible(pila)</text><polygon fill="#4B7A46" points="667.5,479.7578,657.5,483.7578,667.5,487.7578,663.5,483.7578" style="stroke:#4B7A46;stroke-width:1.0;"/><line style="stroke:#4B7A46;stroke-width:1.0;stroke-dasharray:2.0,2.0;" x1="661.5" x2="922.5" y1="483.7578" y2="483.7578"/><text fill="#000000" font-family="Helvetica" font-size="13" lengthAdjust="spacing" textLength="154" x="713" y="478.9014">cantidad curada disponible</text><polygon fill="#4B7A46" points="344.5,510.1094,334.5,514.1094,344.5,518.1094,340.5,514.1094" style="stroke:#4B7A46;stroke-width:1.0;"/><line style="stroke:#4B7A46;stroke-width:1.0;stroke-dasharray:2.0,2.0;" x1="338.5" x2="655.5" y1="514.1094" y2="514.1094"/><text fill="#000000" font-family="Helvetica" font-size="13" lengthAdjust="spacing" textLength="299" x="345.5" y="509.2529">error de validacion(maximo disponible para ensacar)</text><polygon fill="#4B7A46" points="64.5,540.4609,54.5,544.4609,64.5,548.4609,60.5,544.4609" style="stroke:#4B7A46;stroke-width:1.0;"/><line style="stroke:#4B7A46;stroke-width:1.0;stroke-dasharray:2.0,2.0;" x1="58.5" x2="332.5" y1="544.4609" y2="544.4609"/><text fill="#000000" font-family="Helvetica" font-size="13" lengthAdjust="spacing" textLength="256" x="65.5" y="539.6045">rechaza el valor y indica la cantidad maxima</text><line style="stroke:#000000;stroke-width:1.0;stroke-dasharray:2.0,2.0;" x1="10" x2="1147" y1="553.4609" y2="553.4609"/><text fill="#000000" font-family="Helvetica" font-size="11" font-weight="bold" lengthAdjust="spacing" textLength="88" x="15" y="564.8799">[cantidad valida]</text><polygon fill="#4B7A46" points="988.5,586.6484,998.5,590.6484,988.5,594.6484,992.5,590.6484" style="stroke:#4B7A46;stroke-width:1.0;"/><line style="stroke:#4B7A46;stroke-width:1.0;" x1="656.5" x2="994.5" y1="590.6484" y2="590.6484"/><text fill="#000000" font-family="Helvetica" font-size="13" lengthAdjust="spacing" textLength="215" x="721" y="585.792">crear(tipo="ensacado", pila, volumen)</text><polygon fill="#4B7A46" points="667.5,617,657.5,621,667.5,625,663.5,621" style="stroke:#4B7A46;stroke-width:1.0;"/><line style="stroke:#4B7A46;stroke-width:1.0;stroke-dasharray:2.0,2.0;" x1="661.5" x2="999.5" y1="621" y2="621"/><text fill="#000000" font-family="Helvetica" font-size="13" lengthAdjust="spacing" textLength="117" x="770" y="616.1436">ensacado registrado</text><polygon fill="#4B7A46" points="1085,647.3516,1095,651.3516,1085,655.3516,1089,651.3516" style="stroke:#4B7A46;stroke-width:1.0;"/><line style="stroke:#4B7A46;stroke-width:1.0;" x1="656.5" x2="1091" y1="651.3516" y2="651.3516"/><text fill="#000000" font-family="Helvetica" font-size="13" lengthAdjust="spacing" textLength="272" x="740.75" y="646.4951">trasladar(material, "curado", "ensacado", parte)</text><polygon fill="#4B7A46" points="667.5,677.7031,657.5,681.7031,667.5,685.7031,663.5,681.7031" style="stroke:#4B7A46;stroke-width:1.0;"/><line style="stroke:#4B7A46;stroke-width:1.0;stroke-dasharray:2.0,2.0;" x1="661.5" x2="1096" y1="681.7031" y2="681.7031"/><text fill="#000000" font-family="Helvetica" font-size="13" lengthAdjust="spacing" textLength="115" x="819.25" y="676.8467">saldos actualizados</text><polygon fill="#4B7A46" points="911.5,708.0547,921.5,712.0547,911.5,716.0547,915.5,712.0547" style="stroke:#4B7A46;stroke-width:1.0;"/><line style="stroke:#4B7A46;stroke-width:1.0;" x1="656.5" x2="917.5" y1="712.0547" y2="712.0547"/><text fill="#000000" font-family="Helvetica" font-size="13" lengthAdjust="spacing" textLength="243" x="668.5" y="707.1982">actualizar(estado segun material restante)</text><polygon fill="#4B7A46" points="667.5,738.4063,657.5,742.4063,667.5,746.4063,663.5,742.4063" style="stroke:#4B7A46;stroke-width:1.0;"/><line style="stroke:#4B7A46;stroke-width:1.0;stroke-dasharray:2.0,2.0;" x1="661.5" x2="922.5" y1="742.4063" y2="742.4063"/><text fill="#000000" font-family="Helvetica" font-size="13" lengthAdjust="spacing" textLength="139" x="720.5" y="737.5498">pila cerrada o en reposo</text><polygon fill="#4B7A46" points="344.5,768.7578,334.5,772.7578,344.5,776.7578,340.5,772.7578" style="stroke:#4B7A46;stroke-width:1.0;"/><line style="stroke:#4B7A46;stroke-width:1.0;stroke-dasharray:2.0,2.0;" x1="338.5" x2="655.5" y1="772.7578" y2="772.7578"/><text fill="#000000" font-family="Helvetica" font-size="13" lengthAdjust="spacing" textLength="107" x="441.5" y="767.9014">proceso registrado</text><!--SRC=[XLJRRjf047ttLupeGuaKNbBQAaYDH5oY8lM2AfNNQ5WFP9lrhZjhaylNTtPzmIPfYHG9TiwSEMSkl8NqrsHw0Jzfftt9Q3C7P82iHuNoEPCl1RkiKgM32MnDzJiy0ZqgAfHsDl7tsXR8cCC6rVsENMMpr1d7yEOc_lKG_auu7xJTmHQDfruaeorMfhnnjloEES4NCdigjS9-Dlsfo2hwHjxZZkP6xomeiYLn3xL2bZnTe2slZmKjvZVl5X__0NQS4JV0YyNxnSMy1voBVpxDLyF-ozIw-AgtyczfWBvCq-dbe2wpUsY2q-kFy-c792brQUZ4tCRTW6QWn9tEC0DjzsZa4pZmRiCKCbJ5WZzB4WpIuKT1uJidnQ4pC5hVDdNSYfqYxqQ07jP3K7hR1FrA6uo8T8YOTO7LSQ3EFCIF0Kkxbq4ZwxhqCabQfJ2vWZNCnDoEoICOF1Xkse7m1ChPhUOSatL8I2M1czPnKtnSwi9z6hKj79r38NBEOUzCbPCzIz2K1-ezAXqQIM45sIKWd9D62idGE5n9tUumXN6NcEEJ135cdKdQEgPrRcOo6YE-IuJAOhzUe4f8pYPO3DB0IdalGD4iRWedSwbrNC5AYDoc94iy3jXGQHKh1UiXIvP4M-No0akzCVJIm5Y4oA9GqyKe9vRjghqgNzjCpZOkOrr55gj24zhHwAvD73UaNKN8j2-S3PhwEIzzfH7-kKE_uhEh4QcnHtroNZa-wdmW9Xnaqmj-rJcJkiFdQ5s8vEcfRKP_9oFnSG-QwROcWql5X7no9o60kx6srz-kTkPQogM4vS4RQGEBEVdDr6ZEOLGtNOW7HUJsA90lEswF9dE-6QP-5fplpwHxvt4pTa-xoa9RIIJ9iwrP3uhZFiabnEcumsODnbFKzzbtHJPB_W80]--></g></svg>