<?xml version="1.0" encoding="us-ascii" standalone="no"?><svg xmlns="http://www.w3.org/2000/svg" xmlns:xlink="http://www.w3.org/1999/xlink" contentStyleType="text/css" height="677px" preserveAspectRatio="none" style="width:1258px;height:677px;background:#FFFFFF;" version="1.1" viewBox="0 0 1258 677" width="1258px" zoomAndPan="magnify"><defs/><g><text fill="#000000" font-family="Helvetica" font-size="14" font-weight="bold" lengthAdjust="spacing" textLength="732" x="264" y="29.5332">CU-45 Calcular la mezcla objetivo (excepcion: sin receta, material sin categoria o inventario insuficiente)</text><rect fill="none" height="409.8906" style="stroke:#000000;stroke-width:1.5;" width="1241" x="10" y="168.5703"/><line style="stroke:#9CC49A;stroke-width:0.5;stroke-dasharray:5.0,5.0;" x1="48" x2="48" y1="121.2188" y2="595.4609"/><line style="stroke:#9CC49A;stroke-width:0.5;stroke-dasharray:5.0,5.0;" x1="456.5" x2="456.5" y1="121.2188" y2="595.4609"/><line style="stroke:#9CC49A;stroke-width:0.5;stroke-dasharray:5.0,5.0;" x1="786" x2="786" y1="121.2188" y2="595.4609"/><line style="stroke:#9CC49A;stroke-width:0.5;stroke-dasharray:5.0,5.0;" x1="987" x2="987" y1="121.2188" y2="595.4609"/><line style="stroke:#9CC49A;stroke-width:0.5;stroke-dasharray:5.0,5.0;" x1="1166" x2="1166" y1="121.2188" y2="595.4609"/><text fill="#000000" font-family="Helvetica" font-size="14" lengthAdjust="spacing" textLength="50" x="20" y="118.1426">Sistema</text><ellipse cx="48" cy="52.1094" fill="#EAF3E7" rx="8" ry="8" style="stroke:#2E5E2A;stroke-width:0.5;"/><path d="M48,60.1094 L48,87.1094 M35,68.1094 L61,68.1094 M48,87.1094 L35,102.1094 M48,87.1094 L61,102.1094 " fill="none" style="stroke:#2E5E2A;stroke-width:0.5;"/><text fill="#000000" font-family="Helvetica" font-size="14" lengthAdjust="spacing" textLength="50" x="20" y="608.9941">Sistema</text><ellipse cx="48" cy="620.5703" fill="#EAF3E7" rx="8" ry="8" style="stroke:#2E5E2A;stroke-width:0.5;"/><path d="M48,628.5703 L48,655.5703 M35,636.5703 L61,636.5703 M48,655.5703 L35,670.5703 M48,655.5703 L61,670.5703 " fill="none" style="stroke:#2E5E2A;stroke-width:0.5;"/><rect fill="#EAF3E7" height="31.6094" rx="2.5" ry="2.5" style="stroke:#2E5E2A;stroke-width:0.5;" width="75" x="419.5" y="88.6094"/><text fill="#000000" font-family="Helvetica" font-size="14" lengthAdjust="spacing" textLength="61" x="426.5" y="110.1426">C_Mezcla</text><rect fill="#EAF3E7" height="31.6094" rx="2.5" ry="2.5" style="stroke:#2E5E2A;stroke-width:0.5;" width="75" x="419.5" y="594.4609"/><text fill="#000000" font-family="Helvetica" font-size="14" lengthAdjust="spacing" textLength="61" x="426.5" y="615.9941">C_Mezcla</text><rect fill="#EAF3E7" height="31.6094" rx="2.5" ry="2.5" style="stroke:#2E5E2A;stroke-width:0.5;" width="194" x="689" y="88.6094"/><text fill="#000000" font-family="Helvetica" font-size="14" lengthAdjust="spacing" textLength="180" x="696" y="110.1426">:configuracion_recetamezcla</text><rect fill="#EAF3E7" height="31.6094" rx="2.5" ry="2.5" style="stroke:#2E5E2A;stroke-width:0.5;" width="194" x="689" y="594.4609"/><text fill="#000000" font-family="Helvetica" font-size="14" lengthAdjust="spacing" textLength="180" x="696" y="615.9941">:configuracion_recetamezcla</text><rect fill="#EAF3E7" height="31.6094" rx="2.5" ry="2.5" style="stroke:#2E5E2A;stroke-width:0.5;" width="188" x="893" y="88.6094"/><text fill="#000000" font-family="Helvetica" font-size="14" lengthAdjust="spacing" textLength="174" x="900" y="110.1426">:inventario_composicionpila</text><rect fill="#EAF3E7" height="31.6094" rx="2.5" ry="2.5" style="stroke:#2E5E2A;stroke-width:0.5;" width="188" x="893" y="594.4609"/><text fill="#000000" font-family="Helvetica" font-size="14" lengthAdjust="spacing" textLength="174" x="900" y="615.9941">:inventario_composicionpila</text><rect fill="#EAF3E7" height="31.6094" rx="2.5" ry="2.5" style="stroke:#2E5E2A;stroke-width:0.5;" width="150" x="1091" y="88.6094"/><text fill="#000000" font-family="Helvetica" font-size="14" lengthAdjust="spacing" textLength="136" x="1098" y="110.1426">:inventario_inventario</text><rect fill="#EAF3E7" height="31.6094" rx="2.5" ry="2.5" style="stroke:#2E5E2A;stroke-width:0.5;" width="150" x="1091" y="594.4609"/><text fill="#000000" font-family="Helvetica" font-size="14" lengthAdjust="spacing" textLength="136" x="1098" y="615.9941">:inventario_inventario</text><polygon fill="#4B7A46" points="445,149.5703,455,153.5703,445,157.5703,449,153.5703" style="stroke:#4B7A46;stroke-width:1.0;"/><line style="stroke:#4B7A46;stroke-width:1.0;" x1="48" x2="451" y1="153.5703" y2="153.5703"/><text fill="#000000" font-family="Helvetica" font-size="13" lengthAdjust="spacing" textLength="217" x="144" y="148.7139">solicita recalcular la mezcla de la pila</text><path d="M10,168.5703 L71,168.5703 L71,176.9219 L61,186.9219 L10,186.9219 L10,168.5703 " fill="#EEEEEE" style="stroke:#000000;stroke-width:1.5;"/><rect fill="none" height="409.8906" style="stroke:#000000;stroke-width:1.5;" width="1241" x="10" y="168.5703"/><text fill="#000000" font-family="Helvetica" font-size="13" font-weight="bold" lengthAdjust="spacing" textLength="16" x="25" y="183.0654">alt</text><text fill="#000000" font-family="Helvetica" font-size="11" font-weight="bold" lengthAdjust="spacing" textLength="223" x="86" y="181.9893">[no existe una receta de mezcla vigente]</text><polygon fill="#4B7A46" points="774,205.2734,784,209.2734,774,213.2734,778,209.2734" style="stroke:#4B7A46;stroke-width:1.0;"/><line style="stroke:#4B7A46;stroke-width:1.0;" x1="457" x2="780" y1="209.2734" y2="209.2734"/><text fill="#000000" font-family="Helvetica" font-size="13" lengthAdjust="spacing" textLength="95" x="574" y="204.417">obtenerVigente()</text><polygon fill="#4B7A46" points="468,235.625,458,239.625,468,243.625,464,239.625" style="stroke:#4B7A46;stroke-width:1.0;"/><line style="stroke:#4B7A46;stroke-width:1.0;stroke-dasharray:2.0,2.0;" x1="462" x2="785" y1="239.625" y2="239.625"/><text fill="#000000" font-family="Helvetica" font-size="13" lengthAdjust="spacing" textLength="101" x="571" y="234.7686">sin receta vigente</text><polygon fill="#4B7A46" points="59,265.9766,49,269.9766,59,273.9766,55,269.9766" style="stroke:#4B7A46;stroke-width:1.0;"/><line style="stroke:#4B7A46;stroke-width:1.0;stroke-dasharray:2.0,2.0;" x1="53" x2="456" y1="269.9766" y2="269.9766"/><text fill="#000000" font-family="Helvetica" font-size="13" lengthAdjust="spacing" textLength="385" x="60" y="265.1201">deja constancia de que falta configurar la receta; no bloquea la pila</text><line style="stroke:#000000;stroke-width:1.0;stroke-dasharray:2.0,2.0;" x1="10" x2="1251" y1="278.9766" y2="278.9766"/><text fill="#000000" font-family="Helvetica" font-size="11" font-weight="bold" lengthAdjust="spacing" textLength="310" x="15" y="290.3955">[un material incorporado no tiene categoria configurada]</text><polygon fill="#4B7A46" points="975,312.1641,985,316.1641,975,320.1641,979,316.1641" style="stroke:#4B7A46;stroke-width:1.0;"/><line style="stroke:#4B7A46;stroke-width:1.0;" x1="457" x2="981" y1="316.1641" y2="316.1641"/><text fill="#000000" font-family="Helvetica" font-size="13" lengthAdjust="spacing" textLength="146" x="649" y="311.3076">obtenerComposicion(pila)</text><polygon fill="#4B7A46" points="468,342.5156,458,346.5156,468,350.5156,464,346.5156" style="stroke:#4B7A46;stroke-width:1.0;"/><line style="stroke:#4B7A46;stroke-width:1.0;stroke-dasharray:2.0,2.0;" x1="462" x2="986" y1="346.5156" y2="346.5156"/><text fill="#000000" font-family="Helvetica" font-size="13" lengthAdjust="spacing" textLength="267" x="588.5" y="341.6592">incluye un material sin categoria seca ni verde</text><line style="stroke:#4B7A46;stroke-width:1.0;" x1="457" x2="499" y1="376.8672" y2="376.8672"/><line style="stroke:#4B7A46;stroke-width:1.0;" x1="499" x2="499" y1="376.8672" y2="389.8672"/><line style="stroke:#4B7A46;stroke-width:1.0;" x1="458" x2="499" y1="389.8672" y2="389.8672"/><polygon fill="#4B7A46" points="468,385.8672,458,389.8672,468,393.8672,464,389.8672" style="stroke:#4B7A46;stroke-width:1.0;"/><text fill="#000000" font-family="Helvetica" font-size="13" lengthAdjust="spacing" textLength="315" x="464" y="372.0107">excluye ese material y continua el calculo con el resto</text><polygon fill="#4B7A46" points="59,416.2188,49,420.2188,59,424.2188,55,420.2188" style="stroke:#4B7A46;stroke-width:1.0;"/><line style="stroke:#4B7A46;stroke-width:1.0;stroke-dasharray:2.0,2.0;" x1="53" x2="456" y1="420.2188" y2="420.2188"/><text fill="#000000" font-family="Helvetica" font-size="13" lengthAdjust="spacing" textLength="296" x="104.5" y="415.3623">senala el material como pendiente de configuracion</text><line style="stroke:#000000;stroke-width:1.0;stroke-dasharray:2.0,2.0;" x1="10" x2="1251" y1="429.2188" y2="429.2188"/><text fill="#000000" font-family="Helvetica" font-size="11" font-weight="bold" lengthAdjust="spacing" textLength="246" x="15" y="440.6377">[el inventario disponible no cubre el faltante]</text><polygon fill="#4B7A46" points="1154,462.4063,1164,466.4063,1154,470.4063,1158,466.4063" style="stroke:#4B7A46;stroke-width:1.0;"/><line style="stroke:#4B7A46;stroke-width:1.0;" x1="457" x2="1160" y1="466.4063" y2="466.4063"/><text fill="#000000" font-family="Helvetica" font-size="13" lengthAdjust="spacing" textLength="164" x="729.5" y="461.5498">obtenerDisponible(categoria)</text><polygon fill="#4B7A46" points="468,492.7578,458,496.7578,468,500.7578,464,496.7578" style="stroke:#4B7A46;stroke-width:1.0;"/><line style="stroke:#4B7A46;stroke-width:1.0;stroke-dasharray:2.0,2.0;" x1="462" x2="1165" y1="496.7578" y2="496.7578"/><text fill="#000000" font-family="Helvetica" font-size="13" lengthAdjust="spacing" textLength="217" x="703" y="491.9014">disponible menor al faltante calculado</text><line style="stroke:#4B7A46;stroke-width:1.0;" x1="457" x2="499" y1="527.1094" y2="527.1094"/><line style="stroke:#4B7A46;stroke-width:1.0;" x1="499" x2="499" y1="527.1094" y2="540.1094"/><line style="stroke:#4B7A46;stroke-width:1.0;" x1="458" x2="499" y1="540.1094" y2="540.1094"/><polygon fill="#4B7A46" points="468,536.1094,458,540.1094,468,544.1094,464,540.1094" style="stroke:#4B7A46;stroke-width:1.0;"/><text fill="#000000" font-family="Helvetica" font-size="13" lengthAdjust="spacing" textLength="281" x="464" y="522.2529">registra igualmente el faltante para esa categoria</text><polygon fill="#4B7A46" points="59,566.4609,49,570.4609,59,574.4609,55,570.4609" style="stroke:#4B7A46;stroke-width:1.0;"/><line style="stroke:#4B7A46;stroke-width:1.0;stroke-dasharray:2.0,2.0;" x1="53" x2="456" y1="570.4609" y2="570.4609"/><text fill="#000000" font-family="Helvetica" font-size="13" lengthAdjust="spacing" textLength="379" x="63" y="565.6045">deja el faltante listo para evaluar la alerta correspondiente (CU-46)</text><!--SRC=[XLHTRzim37ptho2wXwN0yjAbBTe10r8lnGeiGz5YUoqOcV7Kog8doUcwNpzATlpHjLk08B5u98_7azz2_cs-E8OSZMeCseB185JqMyaFR-ufw1r3GT1OX5hBuHosfhbFP_HBKQqqsym_Q5kZmmesg1vAnuqjSZRiuCrb-emG_WSM_AXj2LiqdaQHWhROc739Ddp5Yk0pcPqGK3ZEffyDMKLhyXvBMXfTMb1a0xaHwXgTvEaQRRXuJcYrl7o_Edq5pAuWrm6FLiUhe-K8k5I1tV_hjR1_LjfFyKLlvMjfWZxByyNPfAzp_DW55nUdoyL9bWKT34sNvrvQtQnVqZbuRS6Hee3le49HJAD9XqeUIfP7OD1s9sgYq_6lRxQYJ5JtCCimpWMtsWUgCAi7rU0WlrkdlWU07l9fx5ontUgoSHXPtBK4gW5-itw67nZSAQvgzZecHlErvQzVnmz_4_GgopgwCFy8EOW4R2GnODJXRzN4qwQrUOOcW6MnUCnFxc-9Hqo7tkaoAfE1L9RoDskfpvj0bjptDZGxbA2Sp_VT-mLCaoMyvtak3UuHH3CVq2gT6efPucK9wRpLCj5kQts8H3U61OKzVvAh9RI7FMkhsDNivF95V92jqcZnVU42zmFbryD0-R28MQmV1vFuVZ0fRfgdQSEfiRpe3LR3ZiJfVGT95N-cL1A-VUvJv1EqRH38GBifZcVnqP4F_89mdYoQbD3N4Vymr6IBvE4evSIChKfangOljA_PwetSBf59DHkN44d-qRQl1cq-zHcpVjweprKlpwXcHLOk4Gu5k-baBMDL79KobqCGhcYgn7x40kABGIJ3GU7Nd3JECXBYBdU7fcbTX8PSifOJPOLd9zOilbnE3ZDHB_i3]--></g></svg>