<svg xmlns="http://www.w3.org/2000/svg" xmlns:xlink="http://www.w3.org/1999/xlink" version="1.1" data-diagram-type="SEQUENCE" style="width:1214px;height:683px;background:#FFFFFF;" width="1214px" height="683px" viewBox="0 0 1214 683" zoomAndPan="magnify" preserveAspectRatio="none" contentStyleType="text/css"><?plantuml 1.2026.8?><defs/><g font-family="sans-serif" lengthAdjust="spacing"><g class="title" data-source-line="13"><text x="300.705" y="29.533" fill="#000" font-size="14" textLength="610.716" font-weight="700" font-family="Helvetica">CU-55 Generar una cotizacion (excepcion: sin cliente, distancia invalida o sin costo por km)</text></g><rect x="40.183" y="138.219" width="1105.026" height="432.242" fill="none" style="stroke:#000;stroke-width:1.5;"/><g><title>Administrador</title><rect x="52.683" y="126.219" width="8" height="468.242" fill="#000" fill-opacity="0"/><line x1="56.183" y1="126.219" x2="56.183" y2="594.461" style="stroke:#9CC49A;stroke-width:0.5;stroke-dasharray:5,5;"/></g><g><title>V_Cotizador</title><rect x="366.447" y="126.219" width="8" height="468.242" fill="#000" fill-opacity="0"/><line x1="369.947" y1="126.219" x2="369.947" y2="594.461" style="stroke:#9CC49A;stroke-width:0.5;stroke-dasharray:5,5;"/></g><g><title>C_Cotizaciones</title><rect x="744.538" y="126.219" width="8" height="468.242" fill="#000" fill-opacity="0"/><line x1="748.038" y1="126.219" x2="748.038" y2="594.461" style="stroke:#9CC49A;stroke-width:0.5;stroke-dasharray:5,5;"/></g><g><title>.configuracion_costotransporte</title><rect x="939.068" y="126.219" width="8" height="468.242" fill="#000" fill-opacity="0"/><line x1="942.568" y1="126.219" x2="942.568" y2="594.461" style="stroke:#9CC49A;stroke-width:0.5;stroke-dasharray:5,5;"/></g><g><title>.comercial_cotizacion</title><rect x="1125.708" y="126.219" width="8" height="468.242" fill="#000" fill-opacity="0"/><line x1="1129.208" y1="126.219" x2="1129.208" y2="594.461" style="stroke:#9CC49A;stroke-width:0.5;stroke-dasharray:5,5;"/></g><text x="10" y="123.143" fill="#000" font-size="14" textLength="86.365" font-family="Helvetica">Administrador</text><ellipse cx="56.183" cy="57.109" rx="8" ry="8" fill="#EAF3E7" style="stroke:#2E5E2A;stroke-width:0.5;"/><path d="M56.183,65.109 L56.183,92.109 M43.183,73.109 L69.183,73.109 M56.183,92.109 L43.183,107.109 M56.183,92.109 L69.183,107.109" style="stroke:#2E5E2A;stroke-width:0.5;" fill="none"/><rect x="324.426" y="93.609" width="91.041" height="31.609" fill="#EAF3E7" style="stroke:#2E5E2A;stroke-width:0.5;" rx="2.5" ry="2.5"/><text x="331.426" y="115.143" fill="#000" font-size="14" textLength="77.041" font-family="Helvetica">V_Cotizador</text><rect x="692.014" y="93.609" width="112.048" height="31.609" fill="#EAF3E7" style="stroke:#2E5E2A;stroke-width:0.5;" rx="2.5" ry="2.5"/><text x="699.014" y="115.143" fill="#000" font-size="14" textLength="98.048" font-family="Helvetica">C_Cotizaciones</text><rect x="839.844" y="93.609" width="205.447" height="31.609" fill="#EAF3E7" style="stroke:#2E5E2A;stroke-width:0.5;" rx="2.5" ry="2.5"/><text x="846.844" y="115.143" fill="#000" font-size="14" textLength="191.447" font-family="Helvetica">:configuracion_costotransporte</text><rect x="1055.292" y="93.609" width="147.834" height="31.609" fill="#EAF3E7" style="stroke:#2E5E2A;stroke-width:0.5;" rx="2.5" ry="2.5"/><text x="1062.292" y="115.143" fill="#000" font-size="14" textLength="133.834" font-family="Helvetica">:comercial_cotizacion</text><text x="10" y="608.994" fill="#000" font-size="14" textLength="86.365" font-family="Helvetica">Administrador</text><ellipse cx="56.183" cy="620.57" rx="8" ry="8" fill="#EAF3E7" style="stroke:#2E5E2A;stroke-width:0.5;"/><path d="M56.183,628.57 L56.183,655.57 M43.183,636.57 L69.183,636.57 M56.183,655.57 L43.183,670.57 M56.183,655.57 L69.183,670.57" style="stroke:#2E5E2A;stroke-width:0.5;" fill="none"/><rect x="324.426" y="594.461" width="91.041" height="31.609" fill="#EAF3E7" style="stroke:#2E5E2A;stroke-width:0.5;" rx="2.5" ry="2.5"/><text x="331.426" y="615.994" fill="#000" font-size="14" textLength="77.041" font-family="Helvetica">V_Cotizador</text><rect x="692.014" y="594.461" width="112.048" height="31.609" fill="#EAF3E7" style="stroke:#2E5E2A;stroke-width:0.5;" rx="2.5" ry="2.5"/><text x="699.014" y="615.994" fill="#000" font-size="14" textLength="98.048" font-family="Helvetica">C_Cotizaciones</text><rect x="839.844" y="594.461" width="205.447" height="31.609" fill="#EAF3E7" style="stroke:#2E5E2A;stroke-width:0.5;" rx="2.5" ry="2.5"/><text x="846.844" y="615.994" fill="#000" font-size="14" textLength="191.447" font-family="Helvetica">:configuracion_costotransporte</text><rect x="1055.292" y="594.461" width="147.834" height="31.609" fill="#EAF3E7" style="stroke:#2E5E2A;stroke-width:0.5;" rx="2.5" ry="2.5"/><text x="1062.292" y="615.994" fill="#000" font-size="14" textLength="133.834" font-family="Helvetica">:comercial_cotizacion</text><path d="M40.183,138.219 L100.354,138.219 L100.354,146.57 L90.354,156.57 L40.183,156.57 L40.183,138.219" style="stroke:#000;stroke-width:1.5;" fill="#EEE"/><rect x="40.183" y="138.219" width="1105.026" height="432.242" fill="none" style="stroke:#000;stroke-width:1.5;"/><text x="55.183" y="152.714" fill="#000" font-size="13" textLength="15.171" font-weight="700" font-family="Helvetica">alt</text><text x="115.354" y="151.638" fill="#000" font-size="11" textLength="173.604" font-weight="700" font-family="Helvetica">[continua sin seleccionar cliente]</text><polygon points="357.947,184.922,367.947,188.922,357.947,192.922,361.947,188.922" fill="#4B7A46" style="stroke:#4B7A46;stroke-width:1;stroke-linejoin:miter;stroke-miterlimit:10;"/><line x1="56.183" y1="188.922" x2="363.947" y2="188.922" style="stroke:#4B7A46;stroke-width:1;"/><text x="109.455" y="184.065" fill="#000" font-size="13" textLength="207.219" font-family="Helvetica">presiona "Calcular" sin elegir cliente</text><polygon points="67.183,215.273,57.183,219.273,67.183,223.273,63.183,219.273" fill="#4B7A46" style="stroke:#4B7A46;stroke-width:1;stroke-linejoin:miter;stroke-miterlimit:10;"/><line x1="61.183" y1="219.273" x2="368.947" y2="219.273" style="stroke:#4B7A46;stroke-width:1;stroke-dasharray:2,2;"/><text x="97.801" y="214.417" fill="#000" font-size="13" textLength="230.528" font-family="Helvetica">senala el campo obligatorio y no calcula</text><line x1="40.183" y1="228.273" x2="1145.208" y2="228.273" style="stroke:#000;stroke-width:1;stroke-dasharray:2,2;"/><text x="45.183" y="241.692" fill="#000" font-size="11" textLength="188.294" font-weight="700" font-family="Helvetica">[distancia en cero, vacia o negativa]</text><polygon points="357.947,265.461,367.947,269.461,357.947,273.461,361.947,269.461" fill="#4B7A46" style="stroke:#4B7A46;stroke-width:1;stroke-linejoin:miter;stroke-miterlimit:10;"/><line x1="56.183" y1="269.461" x2="363.947" y2="269.461" style="stroke:#4B7A46;stroke-width:1;"/><text x="88.492" y="264.604" fill="#000" font-size="13" textLength="249.146" font-family="Helvetica">ingresa una distancia no valida y "Calcular"</text><polygon points="67.183,295.813,57.183,299.813,67.183,303.813,63.183,299.813" fill="#4B7A46" style="stroke:#4B7A46;stroke-width:1;stroke-linejoin:miter;stroke-miterlimit:10;"/><line x1="61.183" y1="299.813" x2="368.947" y2="299.813" style="stroke:#4B7A46;stroke-width:1;stroke-dasharray:2,2;"/><text x="68.183" y="294.956" fill="#000" font-size="13" textLength="289.764" font-family="Helvetica">rechaza el valor y pide una distancia mayor a cero</text><line x1="40.183" y1="308.813" x2="1145.208" y2="308.813" style="stroke:#000;stroke-width:1;stroke-dasharray:2,2;"/><text x="45.183" y="322.231" fill="#000" font-size="11" textLength="215.118" font-weight="700" font-family="Helvetica">[no hay costo por kilometro configurado]</text><polygon points="357.947,346,367.947,350,357.947,354,361.947,350" fill="#4B7A46" style="stroke:#4B7A46;stroke-width:1;stroke-linejoin:miter;stroke-miterlimit:10;"/><line x1="56.183" y1="350" x2="363.947" y2="350" style="stroke:#4B7A46;stroke-width:1;"/><text x="127.159" y="345.144" fill="#000" font-size="13" textLength="171.812" font-family="Helvetica">presiona "Calcular cotizacion"</text><polygon points="736.038,376.352,746.038,380.352,736.038,384.352,740.038,380.352" fill="#4B7A46" style="stroke:#4B7A46;stroke-width:1;stroke-linejoin:miter;stroke-miterlimit:10;"/><line x1="369.947" y1="380.352" x2="742.038" y2="380.352" style="stroke:#4B7A46;stroke-width:1;"/><text x="489.632" y="375.495" fill="#000" font-size="13" textLength="138.722" font-family="Helvetica">calcularCosto(distancia)</text><polygon points="930.568,406.703,940.568,410.703,930.568,414.703,934.568,410.703" fill="#4B7A46" style="stroke:#4B7A46;stroke-width:1;stroke-linejoin:miter;stroke-miterlimit:10;"/><line x1="748.038" y1="410.703" x2="936.568" y2="410.703" style="stroke:#4B7A46;stroke-width:1;"/><text x="760.038" y="405.847" fill="#000" font-size="13" textLength="170.53" font-family="Helvetica">obtenerCostoPorKmVigente()</text><polygon points="759.038,437.055,749.038,441.055,759.038,445.055,755.038,441.055" fill="#4B7A46" style="stroke:#4B7A46;stroke-width:1;stroke-linejoin:miter;stroke-miterlimit:10;"/><line x1="753.038" y1="441.055" x2="941.568" y2="441.055" style="stroke:#4B7A46;stroke-width:1;stroke-dasharray:2,2;"/><text x="762.206" y="436.198" fill="#000" font-size="13" textLength="166.194" font-family="Helvetica">sin costo por km configurado</text><polygon points="1117.208,467.406,1127.208,471.406,1117.208,475.406,1121.208,471.406" fill="#4B7A46" style="stroke:#4B7A46;stroke-width:1;stroke-linejoin:miter;stroke-miterlimit:10;"/><line x1="748.038" y1="471.406" x2="1123.208" y2="471.406" style="stroke:#4B7A46;stroke-width:1;"/><text x="810.553" y="466.55" fill="#000" font-size="13" textLength="256.141" font-family="Helvetica">crear(cliente, servicio, distancia, costo=nulo)</text><polygon points="759.038,497.758,749.038,501.758,759.038,505.758,755.038,501.758" fill="#4B7A46" style="stroke:#4B7A46;stroke-width:1;stroke-linejoin:miter;stroke-miterlimit:10;"/><line x1="753.038" y1="501.758" x2="1128.208" y2="501.758" style="stroke:#4B7A46;stroke-width:1;stroke-dasharray:2,2;"/><text x="851.552" y="496.901" fill="#000" font-size="13" textLength="174.142" font-family="Helvetica">cotizacion registrada sin costo</text><polygon points="380.947,528.109,370.947,532.109,380.947,536.109,376.947,532.109" fill="#4B7A46" style="stroke:#4B7A46;stroke-width:1;stroke-linejoin:miter;stroke-miterlimit:10;"/><line x1="374.947" y1="532.109" x2="747.038" y2="532.109" style="stroke:#4B7A46;stroke-width:1;stroke-dasharray:2,2;"/><text x="381.947" y="527.253" fill="#000" font-size="13" textLength="354.091" font-family="Helvetica">advertencia: falta el parametro; se guardo sin costo calculado</text><polygon points="67.183,558.461,57.183,562.461,67.183,566.461,63.183,562.461" fill="#4B7A46" style="stroke:#4B7A46;stroke-width:1;stroke-linejoin:miter;stroke-miterlimit:10;"/><line x1="61.183" y1="562.461" x2="368.947" y2="562.461" style="stroke:#4B7A46;stroke-width:1;stroke-dasharray:2,2;"/><text x="85.886" y="557.604" fill="#000" font-size="13" textLength="254.357" font-family="Helvetica">informa que debe configurar el costo por km</text><?plantuml-src ZLJBRjim4BphAnRfeGuGNzAaGLmqW2CuBT27St1z3TRKMc53aUgISkfyVPUKOajkqzQ03o9dPsPVV0tvj_7vENmWIuosSD1O1EM2VaAbdOM2m1Dlj7p06DQc-UxY6VrKL4T0vX-qhP6nWXMgXv9TOulS6SVmwYRzUWX_ZuLxrBQ4DHfFlPk2rjYOSEDi-8eLmKSo6mfQOJ-QVZHa5NqXxx6agT6b1KKs4FTGjyWIfskquVhGq6nwysPsyGBOSK7S0KzdvxFJQGyuLS7nl_bQs5-PdhFuhDVojpH0N-RvsUL0bzazTfTdrnVJixTP5dGmDEWR7tPjjElF1BoMAXaTwtG2XVO1hT88scxGw0B1jGZdWuDQT1wguop3c0XCYqfRYM1f6sVrlbXmjBpBavnS705wM0wly-uwMY2V4FaGCL7EhdNPSCBS9NqHibuy16eZ5h-5LCHYtjpjSssHyuLuDa7Ii47R1bDEdWofY942THN8O9WKZAzW2HEecNm4YdCqgZ4eMKKAOIXrFte9OmaPSaYDoQ91GOF2gdRWLZASA2MKhTc2TNASM3EIiUyrWU80ipk13SPF1vOaJ6_m9P-oE-8KKx_tD2BGDNFRI-15jqpg7f-INGcJeotKMfPwI5hXLgum6MnzYymzRlkZeerq9B23NJCBz_ybxariP_OASa5snPAb4A7Hpj6nOFA4MGZ8hKAS_OIvTVofMkeozcYKO8kKU2Gx7Eu3gotXF38g9kJHRbMUdxtUqfoqJEzjOroIcUzrUjl7CZCfUTohjr9TAR3Oa0nvf9p4fp2aNgIDZzLy9zfGDiX5VpUxgYJNV-whjcl75O8yCFAWhcYVAgVHx5KX8rjalm00?></g></svg>