<?xml version="1.0" encoding="us-ascii" standalone="no"?><svg xmlns="http://www.w3.org/2000/svg" xmlns:xlink="http://www.w3.org/1999/xlink" contentStyleType="text/css" height="704px" preserveAspectRatio="none" style="width:839px;height:704px;background:#FFFFFF;" version="1.1" viewBox="0 0 839 704" width="839px" zoomAndPan="magnify"><defs/><g><text fill="#000000" font-family="Helvetica" font-size="14" font-weight="bold" lengthAdjust="spacing" textLength="392" x="222.5" y="29.5332">CU-59 Consultando las ventas del periodo (flujo normal)</text><line style="stroke:#9CC49A;stroke-width:0.5;stroke-dasharray:5.0,5.0;" x1="51" x2="51" y1="121.2188" y2="622.4922"/><line style="stroke:#9CC49A;stroke-width:0.5;stroke-dasharray:5.0,5.0;" x1="394" x2="394" y1="121.2188" y2="622.4922"/><line style="stroke:#9CC49A;stroke-width:0.5;stroke-dasharray:5.0,5.0;" x1="581.5" x2="581.5" y1="121.2188" y2="622.4922"/><line style="stroke:#9CC49A;stroke-width:0.5;stroke-dasharray:5.0,5.0;" x1="805" x2="805" y1="121.2188" y2="622.4922"/><text fill="#000000" font-family="Helvetica" font-size="14" lengthAdjust="spacing" textLength="87" x="5" y="118.1426">Administrador</text><ellipse cx="51.5" cy="52.1094" fill="#EAF3E7" rx="8" ry="8" style="stroke:#2E5E2A;stroke-width:0.5;"/><path d="M51.5,60.1094 L51.5,87.1094 M38.5,68.1094 L64.5,68.1094 M51.5,87.1094 L38.5,102.1094 M51.5,87.1094 L64.5,102.1094 " fill="none" style="stroke:#2E5E2A;stroke-width:0.5;"/><text fill="#000000" font-family="Helvetica" font-size="14" lengthAdjust="spacing" textLength="87" x="5" y="636.0254">Administrador</text><ellipse cx="51.5" cy="647.6016" fill="#EAF3E7" rx="8" ry="8" style="stroke:#2E5E2A;stroke-width:0.5;"/><path d="M51.5,655.6016 L51.5,682.6016 M38.5,663.6016 L64.5,663.6016 M51.5,682.6016 L38.5,697.6016 M51.5,682.6016 L64.5,697.6016 " fill="none" style="stroke:#2E5E2A;stroke-width:0.5;"/><rect fill="#EAF3E7" height="31.6094" rx="2.5" ry="2.5" style="stroke:#2E5E2A;stroke-width:0.5;" width="105" x="342" y="88.6094"/><text fill="#000000" font-family="Helvetica" font-size="14" lengthAdjust="spacing" textLength="91" x="349" y="110.1426">V_ListaVentas</text><rect fill="#EAF3E7" height="31.6094" rx="2.5" ry="2.5" style="stroke:#2E5E2A;stroke-width:0.5;" width="105" x="342" y="621.4922"/><text fill="#000000" font-family="Helvetica" font-size="14" lengthAdjust="spacing" textLength="91" x="349" y="643.0254">V_ListaVentas</text><rect fill="#EAF3E7" height="31.6094" rx="2.5" ry="2.5" style="stroke:#2E5E2A;stroke-width:0.5;" width="76" x="543.5" y="88.6094"/><text fill="#000000" font-family="Helvetica" font-size="14" lengthAdjust="spacing" textLength="62" x="550.5" y="110.1426">C_Ventas</text><rect fill="#EAF3E7" height="31.6094" rx="2.5" ry="2.5" style="stroke:#2E5E2A;stroke-width:0.5;" width="76" x="543.5" y="621.4922"/><text fill="#000000" font-family="Helvetica" font-size="14" lengthAdjust="spacing" textLength="62" x="550.5" y="643.0254">C_Ventas</text><rect fill="#EAF3E7" height="31.6094" rx="2.5" ry="2.5" style="stroke:#2E5E2A;stroke-width:0.5;" width="55" x="778" y="88.6094"/><text fill="#000000" font-family="Helvetica" font-size="14" lengthAdjust="spacing" textLength="41" x="785" y="110.1426">:Venta</text><rect fill="#EAF3E7" height="31.6094" rx="2.5" ry="2.5" style="stroke:#2E5E2A;stroke-width:0.5;" width="55" x="778" y="621.4922"/><text fill="#000000" font-family="Helvetica" font-size="14" lengthAdjust="spacing" textLength="41" x="785" y="643.0254">:Venta</text><polygon fill="#4B7A46" points="382.5,149.5703,392.5,153.5703,382.5,157.5703,386.5,153.5703" style="stroke:#4B7A46;stroke-width:1.0;"/><line style="stroke:#4B7A46;stroke-width:1.0;" x1="51.5" x2="388.5" y1="153.5703" y2="153.5703"/><text fill="#000000" font-family="Helvetica" font-size="13" lengthAdjust="spacing" textLength="147" x="149.5" y="148.7139">abre "Ventas del periodo"</text><polygon fill="#4B7A46" points="569.5,179.9219,579.5,183.9219,569.5,187.9219,573.5,183.9219" style="stroke:#4B7A46;stroke-width:1.0;"/><line style="stroke:#4B7A46;stroke-width:1.0;" x1="394.5" x2="575.5" y1="183.9219" y2="183.9219"/><text fill="#000000" font-family="Helvetica" font-size="13" lengthAdjust="spacing" textLength="163" x="406.5" y="179.0654">listarVentas(periodo vigente)</text><polygon fill="#4B7A46" points="793.5,210.2734,803.5,214.2734,793.5,218.2734,797.5,214.2734" style="stroke:#4B7A46;stroke-width:1.0;"/><line style="stroke:#4B7A46;stroke-width:1.0;" x1="581.5" x2="799.5" y1="214.2734" y2="214.2734"/><text fill="#000000" font-family="Helvetica" font-size="13" lengthAdjust="spacing" textLength="93" x="647" y="209.417">obtener(periodo)</text><polygon fill="#4B7A46" points="592.5,240.625,582.5,244.625,592.5,248.625,588.5,244.625" style="stroke:#4B7A46;stroke-width:1.0;"/><line style="stroke:#4B7A46;stroke-width:1.0;stroke-dasharray:2.0,2.0;" x1="586.5" x2="804.5" y1="244.625" y2="244.625"/><text fill="#000000" font-family="Helvetica" font-size="13" lengthAdjust="spacing" textLength="104" x="641.5" y="239.7686">ventas del periodo</text><line style="stroke:#4B7A46;stroke-width:1.0;" x1="581.5" x2="623.5" y1="274.9766" y2="274.9766"/><line style="stroke:#4B7A46;stroke-width:1.0;" x1="623.5" x2="623.5" y1="274.9766" y2="287.9766"/><line style="stroke:#4B7A46;stroke-width:1.0;" x1="582.5" x2="623.5" y1="287.9766" y2="287.9766"/><polygon fill="#4B7A46" points="592.5,283.9766,582.5,287.9766,592.5,291.9766,588.5,287.9766" style="stroke:#4B7A46;stroke-width:1.0;"/><text fill="#000000" font-family="Helvetica" font-size="13" lengthAdjust="spacing" textLength="210" x="588.5" y="270.1201">totaliza el monto vendido del periodo</text><polygon fill="#4B7A46" points="405.5,314.3281,395.5,318.3281,405.5,322.3281,401.5,318.3281" style="stroke:#4B7A46;stroke-width:1.0;"/><line style="stroke:#4B7A46;stroke-width:1.0;stroke-dasharray:2.0,2.0;" x1="399.5" x2="580.5" y1="318.3281" y2="318.3281"/><text fill="#000000" font-family="Helvetica" font-size="13" lengthAdjust="spacing" textLength="145" x="415.5" y="313.4717">listado y total del periodo</text><polygon fill="#4B7A46" points="62.5,344.6797,52.5,348.6797,62.5,352.6797,58.5,348.6797" style="stroke:#4B7A46;stroke-width:1.0;"/><line style="stroke:#4B7A46;stroke-width:1.0;stroke-dasharray:2.0,2.0;" x1="56.5" x2="393.5" y1="348.6797" y2="348.6797"/><text fill="#000000" font-family="Helvetica" font-size="13" lengthAdjust="spacing" textLength="227" x="109.5" y="343.8232">muestra las ventas ordenadas y el total</text><polygon fill="#4B7A46" points="382.5,375.0313,392.5,379.0313,382.5,383.0313,386.5,379.0313" style="stroke:#4B7A46;stroke-width:1.0;"/><line style="stroke:#4B7A46;stroke-width:1.0;" x1="51.5" x2="388.5" y1="379.0313" y2="379.0313"/><text fill="#000000" font-family="Helvetica" font-size="13" lengthAdjust="spacing" textLength="253" x="96.5" y="374.1748">ajusta el rango o filtra por cliente o producto</text><polygon fill="#4B7A46" points="569.5,405.3828,579.5,409.3828,569.5,413.3828,573.5,409.3828" style="stroke:#4B7A46;stroke-width:1.0;"/><line style="stroke:#4B7A46;stroke-width:1.0;" x1="394.5" x2="575.5" y1="409.3828" y2="409.3828"/><text fill="#000000" font-family="Helvetica" font-size="13" lengthAdjust="spacing" textLength="141" x="417.5" y="404.5264">listarVentas(rango, filtro)</text><polygon fill="#4B7A46" points="793.5,435.7344,803.5,439.7344,793.5,443.7344,797.5,439.7344" style="stroke:#4B7A46;stroke-width:1.0;"/><line style="stroke:#4B7A46;stroke-width:1.0;" x1="581.5" x2="799.5" y1="439.7344" y2="439.7344"/><text fill="#000000" font-family="Helvetica" font-size="13" lengthAdjust="spacing" textLength="90" x="648.5" y="434.8779">obtener(criterio)</text><polygon fill="#4B7A46" points="592.5,466.0859,582.5,470.0859,592.5,474.0859,588.5,470.0859" style="stroke:#4B7A46;stroke-width:1.0;"/><line style="stroke:#4B7A46;stroke-width:1.0;stroke-dasharray:2.0,2.0;" x1="586.5" x2="804.5" y1="470.0859" y2="470.0859"/><text fill="#000000" font-family="Helvetica" font-size="13" lengthAdjust="spacing" textLength="172" x="607.5" y="465.2295">ventas que cumplen el criterio</text><line style="stroke:#4B7A46;stroke-width:1.0;" x1="581.5" x2="623.5" y1="500.4375" y2="500.4375"/><line style="stroke:#4B7A46;stroke-width:1.0;" x1="623.5" x2="623.5" y1="500.4375" y2="513.4375"/><line style="stroke:#4B7A46;stroke-width:1.0;" x1="582.5" x2="623.5" y1="513.4375" y2="513.4375"/><polygon fill="#4B7A46" points="592.5,509.4375,582.5,513.4375,592.5,517.4375,588.5,513.4375" style="stroke:#4B7A46;stroke-width:1.0;"/><text fill="#000000" font-family="Helvetica" font-size="13" lengthAdjust="spacing" textLength="159" x="588.5" y="495.5811">recalcula el total del criterio</text><polygon fill="#4B7A46" points="405.5,539.7891,395.5,543.7891,405.5,547.7891,401.5,543.7891" style="stroke:#4B7A46;stroke-width:1.0;"/><line style="stroke:#4B7A46;stroke-width:1.0;stroke-dasharray:2.0,2.0;" x1="399.5" x2="580.5" y1="543.7891" y2="543.7891"/><text fill="#000000" font-family="Helvetica" font-size="13" lengthAdjust="spacing" textLength="127" x="424.5" y="538.9326">listado y total filtrados</text><polygon fill="#4B7A46" points="382.5,570.1406,392.5,574.1406,382.5,578.1406,386.5,574.1406" style="stroke:#4B7A46;stroke-width:1.0;"/><line style="stroke:#4B7A46;stroke-width:1.0;" x1="51.5" x2="388.5" y1="574.1406" y2="574.1406"/><text fill="#000000" font-family="Helvetica" font-size="13" lengthAdjust="spacing" textLength="319" x="63.5" y="569.2842">selecciona una venta para ver su detalle y su despacho</text><polygon fill="#4B7A46" points="62.5,600.4922,52.5,604.4922,62.5,608.4922,58.5,604.4922" style="stroke:#4B7A46;stroke-width:1.0;"/><line style="stroke:#4B7A46;stroke-width:1.0;stroke-dasharray:2.0,2.0;" x1="56.5" x2="393.5" y1="604.4922" y2="604.4922"/><text fill="#000000" font-family="Helvetica" font-size="13" lengthAdjust="spacing" textLength="160" x="143" y="599.6357">muestra el detalle completo</text><!--SRC=[ZPDDJzj048Rl-oj6wQ4WDHSQYf939MCbwe5MFL1VqMGzCGlh7NTt7PJ- -ixQ2TYGb4QoOk_xpDSxzaV8Vqqlvv2p2wsDw4e6Ym6svABybMIX8MzOZgUmiUq3WsDVerNXqRW6FTQmHlrOUMvTcRDb3nzMtMz0X7ii-Scu2ZPe0msKaZOeTLViuW-i2RwHtL8q6eVHzBibf-axXO0LPTPK3hGqI7v0_KGlSQP15wzVDxJCLf-NLoTWzYNvFNYnl5nUP0Cmqv7z-_bwx9-P3bFSc8rSZaRqFCzdyr5Tx_bfBywkhxBP5wMYYPR-VrzdmtMTAuMfHyZAsZWJefUDUDMy-02Jukv612owL1EGTCKOoEy6MZxM5ftKHzqgDIe3qwzGm09mxKdAl6breeg4v8BOr87laRF395jJfMsVgxpBT2iShoCvyWVaNCdfT9_ZhHTzOD8YHxJc3uA8jRnqdEZII95N-BxbhXzHTttaY2ewQZpf0kgMqiDmAsdJ3akvswMwNQOJ3ZsqKYz17bt5mB0nDcLhXD7M91laiF5SjhBE4xvriP_wK3xcclOcfY6EsIPlAUYsRYovrCS1VR7GaqQhMulFitIk3C4JvlMpb1oE3n_8ajQ67K8hLzSFfCz1RZs4Lif85la4Tlr3Q53VlxS6iizXcjDKujfV]--></g></svg>