<svg xmlns="http://www.w3.org/2000/svg" xmlns:xlink="http://www.w3.org/1999/xlink" version="1.1" data-diagram-type="SEQUENCE" style="width:1011px;height:663px;background:#FFFFFF;" width="1011px" height="663px" viewBox="0 0 1011 663" zoomAndPan="magnify" preserveAspectRatio="none" contentStyleType="text/css"><?plantuml 1.2026.8?><defs/><g font-family="sans-serif" lengthAdjust="spacing"><g class="title" data-source-line="13"><text x="177.394" y="29.533" fill="#000" font-size="14" textLength="655.047" font-weight="700" font-family="Helvetica">CU-64 Consultar la cuenta corriente (excepcion: cliente sin movimientos o filtro sin coincidencias)</text></g><rect x="40.183" y="168.57" width="916.352" height="382.055" fill="none" style="stroke:#000;stroke-width:1.5;"/><g><title>Administrador</title><rect x="52.683" y="126.219" width="8" height="448.406" fill="#000" fill-opacity="0"/><line x1="56.183" y1="126.219" x2="56.183" y2="574.625" style="stroke:#9CC49A;stroke-width:0.5;stroke-dasharray:5,5;"/></g><g><title>V_CuentaCorriente</title><rect x="393.177" y="126.219" width="8" height="448.406" fill="#000" fill-opacity="0"/><line x1="396.677" y1="126.219" x2="396.677" y2="574.625" style="stroke:#9CC49A;stroke-width:0.5;stroke-dasharray:5,5;"/></g><g><title>C_CuentaCorriente</title><rect x="652.021" y="126.219" width="8" height="448.406" fill="#000" fill-opacity="0"/><line x1="655.521" y1="126.219" x2="655.521" y2="574.625" style="stroke:#9CC49A;stroke-width:0.5;stroke-dasharray:5,5;"/></g><g><title>.comercial_venta</title><rect x="806.821" y="126.219" width="8" height="448.406" fill="#000" fill-opacity="0"/><line x1="810.321" y1="126.219" x2="810.321" y2="574.625" style="stroke:#9CC49A;stroke-width:0.5;stroke-dasharray:5,5;"/></g><g><title>.comercial_cobro</title><rect x="937.034" y="126.219" width="8" height="448.406" fill="#000" fill-opacity="0"/><line x1="940.534" y1="126.219" x2="940.534" y2="574.625" style="stroke:#9CC49A;stroke-width:0.5;stroke-dasharray:5,5;"/></g><text x="10" y="123.143" fill="#000" font-size="14" textLength="86.365" font-family="Helvetica">Administrador</text><ellipse cx="56.183" cy="57.109" rx="8" ry="8" fill="#EAF3E7" style="stroke:#2E5E2A;stroke-width:0.5;"/><path d="M56.183,65.109 L56.183,92.109 M43.183,73.109 L69.183,73.109 M56.183,92.109 L43.183,107.109 M56.183,92.109 L69.183,107.109" style="stroke:#2E5E2A;stroke-width:0.5;" fill="none"/><rect x="329.753" y="93.609" width="133.848" height="31.609" fill="#EAF3E7" style="stroke:#2E5E2A;stroke-width:0.5;" rx="2.5" ry="2.5"/><text x="336.753" y="115.143" fill="#000" font-size="14" textLength="119.848" font-family="Helvetica">V_CuentaCorriente</text><rect x="588.211" y="93.609" width="134.62" height="31.609" fill="#EAF3E7" style="stroke:#2E5E2A;stroke-width:0.5;" rx="2.5" ry="2.5"/><text x="595.211" y="115.143" fill="#000" font-size="14" textLength="120.62" font-family="Helvetica">C_CuentaCorriente</text><rect x="750.407" y="93.609" width="119.827" height="31.609" fill="#EAF3E7" style="stroke:#2E5E2A;stroke-width:0.5;" rx="2.5" ry="2.5"/><text x="757.407" y="115.143" fill="#000" font-size="14" textLength="105.827" font-family="Helvetica">:comercial_venta</text><rect x="880.234" y="93.609" width="120.6" height="31.609" fill="#EAF3E7" style="stroke:#2E5E2A;stroke-width:0.5;" rx="2.5" ry="2.5"/><text x="887.234" y="115.143" fill="#000" font-size="14" textLength="106.6" font-family="Helvetica">:comercial_cobro</text><text x="10" y="589.158" fill="#000" font-size="14" textLength="86.365" font-family="Helvetica">Administrador</text><ellipse cx="56.183" cy="600.734" rx="8" ry="8" fill="#EAF3E7" style="stroke:#2E5E2A;stroke-width:0.5;"/><path d="M56.183,608.734 L56.183,635.734 M43.183,616.734 L69.183,616.734 M56.183,635.734 L43.183,650.734 M56.183,635.734 L69.183,650.734" style="stroke:#2E5E2A;stroke-width:0.5;" fill="none"/><rect x="329.753" y="574.625" width="133.848" height="31.609" fill="#EAF3E7" style="stroke:#2E5E2A;stroke-width:0.5;" rx="2.5" ry="2.5"/><text x="336.753" y="596.158" fill="#000" font-size="14" textLength="119.848" font-family="Helvetica">V_CuentaCorriente</text><rect x="588.211" y="574.625" width="134.62" height="31.609" fill="#EAF3E7" style="stroke:#2E5E2A;stroke-width:0.5;" rx="2.5" ry="2.5"/><text x="595.211" y="596.158" fill="#000" font-size="14" textLength="120.62" font-family="Helvetica">C_CuentaCorriente</text><rect x="750.407" y="574.625" width="119.827" height="31.609" fill="#EAF3E7" style="stroke:#2E5E2A;stroke-width:0.5;" rx="2.5" ry="2.5"/><text x="757.407" y="596.158" fill="#000" font-size="14" textLength="105.827" font-family="Helvetica">:comercial_venta</text><rect x="880.234" y="574.625" width="120.6" height="31.609" fill="#EAF3E7" style="stroke:#2E5E2A;stroke-width:0.5;" rx="2.5" ry="2.5"/><text x="887.234" y="596.158" fill="#000" font-size="14" textLength="106.6" font-family="Helvetica">:comercial_cobro</text><polygon points="384.677,152.57,394.677,156.57,384.677,160.57,388.677,156.57" fill="#4B7A46" style="stroke:#4B7A46;stroke-width:1;stroke-linejoin:miter;stroke-miterlimit:10;"/><line x1="56.183" y1="156.57" x2="390.677" y2="156.57" style="stroke:#4B7A46;stroke-width:1;"/><text x="127.063" y="151.714" fill="#000" font-size="13" textLength="198.732" font-family="Helvetica">abre la cuenta corriente del cliente</text><path d="M40.183,168.57 L100.354,168.57 L100.354,176.922 L90.354,186.922 L40.183,186.922 L40.183,168.57" style="stroke:#000;stroke-width:1.5;" fill="#EEE"/><rect x="40.183" y="168.57" width="916.352" height="382.055" fill="none" style="stroke:#000;stroke-width:1.5;"/><text x="55.183" y="183.065" fill="#000" font-size="13" textLength="15.171" font-weight="700" font-family="Helvetica">alt</text><text x="115.354" y="181.989" fill="#000" font-size="11" textLength="246.958" font-weight="700" font-family="Helvetica">[el cliente no tiene ventas ni cobros asociados]</text><polygon points="643.521,215.273,653.521,219.273,643.521,223.273,647.521,219.273" fill="#4B7A46" style="stroke:#4B7A46;stroke-width:1;stroke-linejoin:miter;stroke-miterlimit:10;"/><line x1="396.677" y1="219.273" x2="649.521" y2="219.273" style="stroke:#4B7A46;stroke-width:1;"/><text x="428.913" y="214.417" fill="#000" font-size="13" textLength="194.372" font-family="Helvetica">consultarCuentaCorriente(cliente)</text><polygon points="798.321,245.625,808.321,249.625,798.321,253.625,802.321,249.625" fill="#4B7A46" style="stroke:#4B7A46;stroke-width:1;stroke-linejoin:miter;stroke-miterlimit:10;"/><line x1="655.521" y1="249.625" x2="804.321" y2="249.625" style="stroke:#4B7A46;stroke-width:1;"/><text x="667.521" y="244.769" fill="#000" font-size="13" textLength="130.8" font-family="Helvetica">obtenerVentas(cliente)</text><polygon points="666.521,275.977,656.521,279.977,666.521,283.977,662.521,279.977" fill="#4B7A46" style="stroke:#4B7A46;stroke-width:1;stroke-linejoin:miter;stroke-miterlimit:10;"/><line x1="660.521" y1="279.977" x2="809.321" y2="279.977" style="stroke:#4B7A46;stroke-width:1;stroke-dasharray:2,2;"/><text x="703.655" y="275.12" fill="#000" font-size="13" textLength="58.532" font-family="Helvetica">sin ventas</text><polygon points="928.534,306.328,938.534,310.328,928.534,314.328,932.534,310.328" fill="#4B7A46" style="stroke:#4B7A46;stroke-width:1;stroke-linejoin:miter;stroke-miterlimit:10;"/><line x1="655.521" y1="310.328" x2="934.534" y2="310.328" style="stroke:#4B7A46;stroke-width:1;"/><text x="731.91" y="305.472" fill="#000" font-size="13" textLength="132.234" font-family="Helvetica">obtenerCobros(cliente)</text><polygon points="666.521,336.68,656.521,340.68,666.521,344.68,662.521,340.68" fill="#4B7A46" style="stroke:#4B7A46;stroke-width:1;stroke-linejoin:miter;stroke-miterlimit:10;"/><line x1="660.521" y1="340.68" x2="939.534" y2="340.68" style="stroke:#4B7A46;stroke-width:1;stroke-dasharray:2,2;"/><text x="768.403" y="335.823" fill="#000" font-size="13" textLength="59.249" font-family="Helvetica">sin cobros</text><polygon points="407.677,367.031,397.677,371.031,407.677,375.031,403.677,371.031" fill="#4B7A46" style="stroke:#4B7A46;stroke-width:1;stroke-linejoin:miter;stroke-miterlimit:10;"/><line x1="401.677" y1="371.031" x2="654.521" y2="371.031" style="stroke:#4B7A46;stroke-width:1;stroke-dasharray:2,2;"/><text x="444.078" y="366.175" fill="#000" font-size="13" textLength="164.042" font-family="Helvetica">saldo en cero y detalle vacio</text><polygon points="67.183,397.383,57.183,401.383,67.183,405.383,63.183,401.383" fill="#4B7A46" style="stroke:#4B7A46;stroke-width:1;stroke-linejoin:miter;stroke-miterlimit:10;"/><line x1="61.183" y1="401.383" x2="395.677" y2="401.383" style="stroke:#4B7A46;stroke-width:1;stroke-dasharray:2,2;"/><text x="155.253" y="396.526" fill="#000" font-size="13" textLength="142.353" font-family="Helvetica">muestra el saldo en cero</text><line x1="40.183" y1="410.383" x2="956.534" y2="410.383" style="stroke:#000;stroke-width:1;stroke-dasharray:2,2;"/><text x="45.183" y="423.802" fill="#000" font-size="11" textLength="295.195" font-weight="700" font-family="Helvetica">[el rango de fechas no coincide con ningun movimiento]</text><polygon points="384.677,447.57,394.677,451.57,384.677,455.57,388.677,451.57" fill="#4B7A46" style="stroke:#4B7A46;stroke-width:1;stroke-linejoin:miter;stroke-miterlimit:10;"/><line x1="56.183" y1="451.57" x2="390.677" y2="451.57" style="stroke:#4B7A46;stroke-width:1;"/><text x="145.491" y="446.714" fill="#000" font-size="13" textLength="161.878" font-family="Helvetica">filtra por un rango de fechas</text><polygon points="643.521,477.922,653.521,481.922,643.521,485.922,647.521,481.922" fill="#4B7A46" style="stroke:#4B7A46;stroke-width:1;stroke-linejoin:miter;stroke-miterlimit:10;"/><line x1="396.677" y1="481.922" x2="649.521" y2="481.922" style="stroke:#4B7A46;stroke-width:1;"/><text x="408.677" y="477.065" fill="#000" font-size="13" textLength="234.844" font-family="Helvetica">consultarCuentaCorriente(cliente, rango)</text><polygon points="407.677,508.273,397.677,512.273,407.677,516.273,403.677,512.273" fill="#4B7A46" style="stroke:#4B7A46;stroke-width:1;stroke-linejoin:miter;stroke-miterlimit:10;"/><line x1="401.677" y1="512.273" x2="654.521" y2="512.273" style="stroke:#4B7A46;stroke-width:1;stroke-dasharray:2,2;"/><text x="449.854" y="507.417" fill="#000" font-size="13" textLength="152.49" font-family="Helvetica">detalle vacio para el rango</text><polygon points="67.183,538.625,57.183,542.625,67.183,546.625,63.183,542.625" fill="#4B7A46" style="stroke:#4B7A46;stroke-width:1;stroke-linejoin:miter;stroke-miterlimit:10;"/><line x1="61.183" y1="542.625" x2="395.677" y2="542.625" style="stroke:#4B7A46;stroke-width:1;stroke-dasharray:2,2;"/><text x="68.183" y="537.769" fill="#000" font-size="13" textLength="316.494" font-family="Helvetica">informa que no hay coincidencias, sin descartar el filtro</text><?plantuml-src bLHDRnen4BtxLupIGnCfN5AQA1mgWGNgeQrwIBb6WtTsSUFrKDjBcd_VyIuVkmXQ5GcnNhzvxyqNxq7_6DsFGREFZKle2mQ7O1hoINuu12jF10L1uy6uxZI2qZK_ER-btuOsnh9NySNw3GQiOONcfGhS-4Apum3l5ksdXuXhBFZL-WfAT95wDmMLA4OMxDCth0a-azjIiWRxqVHB_1dwIZ5YHLDdA_6MdOKUwZi6YRCRz6bsQcW-NNoOFrm0SoWex81tyu_pksaFE3M9mx_vEjXVcVPPVB6bV3qDq8zQZny7kY7mw-voF7kOZk-LIZOvEcbWEDk-wqER9eScHkkXvgsjyv4ZC9JMfS3jXM7hZIt4dyLuenJcV61QrDRRc89qBwZDiMPmjNpMhQZUQru1HbWEGVeiI0z14yCr1T5rpziCxeYUBe8Chm9tH3Eb1XPXz0cMC05S1RemrcvV3uKkmV48dY794q5h8eAtq2f5KM8HBZWg47QHq29XzlK_oV1wntSZODtwUH8qhv9GXsLBtOV8xMZ7cDlGQUz3zUmOgbil0_RP8BGpsuNkoX3HoNfJtXLfyvjadz3916rH9gDBHf332awWRYWVScq618faS_FRWBvg_mjACkjSAJwCJowBLCvNJN_MHEficzhvGzZ86y6VqFvFiM-xu9j1zeDi8M_LmVp5tAqlETG8igavhJM-3JVZjYrrGT78SChk2M6tH8fyeVu0?></g></svg>