<svg xmlns="http://www.w3.org/2000/svg" xmlns:xlink="http://www.w3.org/1999/xlink" version="1.1" data-diagram-type="SEQUENCE" style="width:1388px;height:858px;background:#FFFFFF;" width="1388px" height="858px" viewBox="0 0 1388 858" zoomAndPan="magnify" preserveAspectRatio="none" contentStyleType="text/css"><?plantuml 1.2026.8?><defs/><g font-family="sans-serif" lengthAdjust="spacing"><g class="title" data-source-line="13"><text x="323.965" y="29.533" fill="#000" font-size="14" textLength="739.061" font-weight="700" font-family="Helvetica">CU-66 Generando el certificado consolidado mensual (excepcion: periodo sin descargas o consolidado previo)</text></g><rect x="40.183" y="229.273" width="1237.467" height="516.461" fill="none" style="stroke:#000;stroke-width:1.5;"/><g><title>Administrador</title><rect x="52.683" y="126.219" width="8" height="643.516" fill="#000" fill-opacity="0"/><line x1="56.183" y1="126.219" x2="56.183" y2="769.734" style="stroke:#9CC49A;stroke-width:0.5;stroke-dasharray:5,5;"/></g><g><title>V_Certificados</title><rect x="359.94" y="126.219" width="8" height="643.516" fill="#000" fill-opacity="0"/><line x1="363.44" y1="126.219" x2="363.44" y2="769.734" style="stroke:#9CC49A;stroke-width:0.5;stroke-dasharray:5,5;"/></g><g><title>C_Certificados</title><rect x="706.255" y="126.219" width="8" height="643.516" fill="#000" fill-opacity="0"/><line x1="709.755" y1="126.219" x2="709.755" y2="769.734" style="stroke:#9CC49A;stroke-width:0.5;stroke-dasharray:5,5;"/></g><g><title>.recepcion_recepcion</title><rect x="1058.268" y="126.219" width="8" height="643.516" fill="#000" fill-opacity="0"/><line x1="1061.768" y1="126.219" x2="1061.768" y2="769.734" style="stroke:#9CC49A;stroke-width:0.5;stroke-dasharray:5,5;"/></g><g><title>.trazabilidad_certificadotrazabilidad</title><rect x="1258.15" y="126.219" width="8" height="643.516" fill="#000" fill-opacity="0"/><line x1="1261.65" y1="126.219" x2="1261.65" y2="769.734" style="stroke:#9CC49A;stroke-width:0.5;stroke-dasharray:5,5;"/></g><text x="10" y="123.143" fill="#000" font-size="14" textLength="86.365" font-family="Helvetica">Administrador</text><ellipse cx="56.183" cy="57.109" rx="8" ry="8" fill="#EAF3E7" style="stroke:#2E5E2A;stroke-width:0.5;"/><path d="M56.183,65.109 L56.183,92.109 M43.183,73.109 L69.183,73.109 M56.183,92.109 L43.183,107.109 M56.183,92.109 L69.183,107.109" style="stroke:#2E5E2A;stroke-width:0.5;" fill="none"/><rect x="310.92" y="93.609" width="105.041" height="31.609" fill="#EAF3E7" style="stroke:#2E5E2A;stroke-width:0.5;" rx="2.5" ry="2.5"/><text x="317.92" y="115.143" fill="#000" font-size="14" textLength="91.041" font-family="Helvetica">V_Certificados</text><rect x="656.849" y="93.609" width="105.813" height="31.609" fill="#EAF3E7" style="stroke:#2E5E2A;stroke-width:0.5;" rx="2.5" ry="2.5"/><text x="663.849" y="115.143" fill="#000" font-size="14" textLength="91.813" font-family="Helvetica">C_Certificados</text><rect x="988.227" y="93.609" width="147.082" height="31.609" fill="#EAF3E7" style="stroke:#2E5E2A;stroke-width:0.5;" rx="2.5" ry="2.5"/><text x="995.227" y="115.143" fill="#000" font-size="14" textLength="133.082" font-family="Helvetica">:recepcion_recepcion</text><rect x="1145.309" y="93.609" width="232.682" height="31.609" fill="#EAF3E7" style="stroke:#2E5E2A;stroke-width:0.5;" rx="2.5" ry="2.5"/><text x="1152.309" y="115.143" fill="#000" font-size="14" textLength="218.682" font-family="Helvetica">:trazabilidad_certificadotrazabilidad</text><text x="10" y="784.268" fill="#000" font-size="14" textLength="86.365" font-family="Helvetica">Administrador</text><ellipse cx="56.183" cy="795.844" rx="8" ry="8" fill="#EAF3E7" style="stroke:#2E5E2A;stroke-width:0.5;"/><path d="M56.183,803.844 L56.183,830.844 M43.183,811.844 L69.183,811.844 M56.183,830.844 L43.183,845.844 M56.183,830.844 L69.183,845.844" style="stroke:#2E5E2A;stroke-width:0.5;" fill="none"/><rect x="310.92" y="769.734" width="105.041" height="31.609" fill="#EAF3E7" style="stroke:#2E5E2A;stroke-width:0.5;" rx="2.5" ry="2.5"/><text x="317.92" y="791.268" fill="#000" font-size="14" textLength="91.041" font-family="Helvetica">V_Certificados</text><rect x="656.849" y="769.734" width="105.813" height="31.609" fill="#EAF3E7" style="stroke:#2E5E2A;stroke-width:0.5;" rx="2.5" ry="2.5"/><text x="663.849" y="791.268" fill="#000" font-size="14" textLength="91.813" font-family="Helvetica">C_Certificados</text><rect x="988.227" y="769.734" width="147.082" height="31.609" fill="#EAF3E7" style="stroke:#2E5E2A;stroke-width:0.5;" rx="2.5" ry="2.5"/><text x="995.227" y="791.268" fill="#000" font-size="14" textLength="133.082" font-family="Helvetica">:recepcion_recepcion</text><rect x="1145.309" y="769.734" width="232.682" height="31.609" fill="#EAF3E7" style="stroke:#2E5E2A;stroke-width:0.5;" rx="2.5" ry="2.5"/><text x="1152.309" y="791.268" fill="#000" font-size="14" textLength="218.682" font-family="Helvetica">:trazabilidad_certificadotrazabilidad</text><polygon points="351.44,152.57,361.44,156.57,351.44,160.57,355.44,156.57" fill="#4B7A46" style="stroke:#4B7A46;stroke-width:1;stroke-linejoin:miter;stroke-miterlimit:10;"/><line x1="56.183" y1="156.57" x2="357.44" y2="156.57" style="stroke:#4B7A46;stroke-width:1;"/><text x="71.147" y="151.714" fill="#000" font-size="13" textLength="277.329" font-family="Helvetica">selecciona cliente y periodo; presiona "Generar"</text><polygon points="697.755,182.922,707.755,186.922,697.755,190.922,701.755,186.922" fill="#4B7A46" style="stroke:#4B7A46;stroke-width:1;stroke-linejoin:miter;stroke-miterlimit:10;"/><line x1="363.44" y1="186.922" x2="703.755" y2="186.922" style="stroke:#4B7A46;stroke-width:1;"/><text x="375.44" y="182.065" fill="#000" font-size="13" textLength="322.315" font-family="Helvetica">generarConsolidado(cliente, periodo_inicio, periodo_fin)</text><polygon points="1049.768,213.273,1059.768,217.273,1049.768,221.273,1053.768,217.273" fill="#4B7A46" style="stroke:#4B7A46;stroke-width:1;stroke-linejoin:miter;stroke-miterlimit:10;"/><line x1="709.755" y1="217.273" x2="1055.768" y2="217.273" style="stroke:#4B7A46;stroke-width:1;"/><text x="738.874" y="212.417" fill="#000" font-size="13" textLength="293.776" font-family="Helvetica">obtener(cliente, estado=recibida, fecha en periodo)</text><path d="M40.183,229.273 L100.354,229.273 L100.354,237.625 L90.354,247.625 L40.183,247.625 L40.183,229.273" style="stroke:#000;stroke-width:1.5;" fill="#EEE"/><rect x="40.183" y="229.273" width="1237.467" height="516.461" fill="none" style="stroke:#000;stroke-width:1.5;"/><text x="55.183" y="243.769" fill="#000" font-size="13" textLength="15.171" font-weight="700" font-family="Helvetica">alt</text><text x="115.354" y="242.692" fill="#000" font-size="11" textLength="279.979" font-weight="700" font-family="Helvetica">[el cliente no tiene descargas recibidas en el periodo]</text><polygon points="720.755,275.977,710.755,279.977,720.755,283.977,716.755,279.977" fill="#4B7A46" style="stroke:#4B7A46;stroke-width:1;stroke-linejoin:miter;stroke-miterlimit:10;"/><line x1="714.755" y1="279.977" x2="1060.768" y2="279.977" style="stroke:#4B7A46;stroke-width:1;stroke-dasharray:2,2;"/><text x="845.657" y="275.12" fill="#000" font-size="13" textLength="80.209" font-family="Helvetica">sin descargas</text><polygon points="374.44,306.328,364.44,310.328,374.44,314.328,370.44,310.328" fill="#4B7A46" style="stroke:#4B7A46;stroke-width:1;stroke-linejoin:miter;stroke-miterlimit:10;"/><line x1="368.44" y1="310.328" x2="708.755" y2="310.328" style="stroke:#4B7A46;stroke-width:1;stroke-dasharray:2,2;"/><text x="393.512" y="305.472" fill="#000" font-size="13" textLength="286.171" font-family="Helvetica">aviso: no hay descargas recibidas para el periodo</text><polygon points="67.183,336.68,57.183,340.68,67.183,344.68,63.183,340.68" fill="#4B7A46" style="stroke:#4B7A46;stroke-width:1;stroke-linejoin:miter;stroke-miterlimit:10;"/><line x1="61.183" y1="340.68" x2="362.44" y2="340.68" style="stroke:#4B7A46;stroke-width:1;stroke-dasharray:2,2;"/><text x="113.705" y="335.823" fill="#000" font-size="13" textLength="192.213" font-family="Helvetica">informa y no genera el certificado</text><line x1="40.183" y1="349.68" x2="1277.65" y2="349.68" style="stroke:#000;stroke-width:1;stroke-dasharray:2,2;"/><text x="45.183" y="363.099" fill="#000" font-size="11" textLength="279.356" font-weight="700" font-family="Helvetica">[ya existe un consolidado para el cliente y el periodo]</text><polygon points="720.755,386.867,710.755,390.867,720.755,394.867,716.755,390.867" fill="#4B7A46" style="stroke:#4B7A46;stroke-width:1;stroke-linejoin:miter;stroke-miterlimit:10;"/><line x1="714.755" y1="390.867" x2="1060.768" y2="390.867" style="stroke:#4B7A46;stroke-width:1;stroke-dasharray:2,2;"/><text x="793.984" y="386.011" fill="#000" font-size="13" textLength="183.555" font-family="Helvetica">descargas recibidas del periodo</text><polygon points="1249.65,417.219,1259.65,421.219,1249.65,425.219,1253.65,421.219" fill="#4B7A46" style="stroke:#4B7A46;stroke-width:1;stroke-linejoin:miter;stroke-miterlimit:10;"/><line x1="709.755" y1="421.219" x2="1255.65" y2="421.219" style="stroke:#4B7A46;stroke-width:1;"/><text x="865.199" y="416.362" fill="#000" font-size="13" textLength="241.008" font-family="Helvetica">buscar(cliente, tipo=consolidado, periodo)</text><polygon points="720.755,447.57,710.755,451.57,720.755,455.57,716.755,451.57" fill="#4B7A46" style="stroke:#4B7A46;stroke-width:1;stroke-linejoin:miter;stroke-miterlimit:10;"/><line x1="714.755" y1="451.57" x2="1260.65" y2="451.57" style="stroke:#4B7A46;stroke-width:1;stroke-dasharray:2,2;"/><text x="897.169" y="446.714" fill="#000" font-size="13" textLength="177.068" font-family="Helvetica">consolidado previo encontrado</text><polygon points="374.44,477.922,364.44,481.922,374.44,485.922,370.44,481.922" fill="#4B7A46" style="stroke:#4B7A46;stroke-width:1;stroke-linejoin:miter;stroke-miterlimit:10;"/><line x1="368.44" y1="481.922" x2="708.755" y2="481.922" style="stroke:#4B7A46;stroke-width:1;stroke-dasharray:2,2;"/><text x="417.357" y="477.065" fill="#000" font-size="13" textLength="238.481" font-family="Helvetica">advertencia: existe un consolidado previo</text><polygon points="67.183,508.273,57.183,512.273,67.183,516.273,63.183,512.273" fill="#4B7A46" style="stroke:#4B7A46;stroke-width:1;stroke-linejoin:miter;stroke-miterlimit:10;"/><line x1="61.183" y1="512.273" x2="362.44" y2="512.273" style="stroke:#4B7A46;stroke-width:1;stroke-dasharray:2,2;"/><text x="119.488" y="507.417" fill="#000" font-size="13" textLength="180.648" font-family="Helvetica">pide confirmar la nueva version</text><polygon points="351.44,538.625,361.44,542.625,351.44,546.625,355.44,542.625" fill="#4B7A46" style="stroke:#4B7A46;stroke-width:1;stroke-linejoin:miter;stroke-miterlimit:10;"/><line x1="56.183" y1="542.625" x2="357.44" y2="542.625" style="stroke:#4B7A46;stroke-width:1;"/><text x="184.887" y="537.769" fill="#000" font-size="13" textLength="49.848" font-family="Helvetica">confirma</text><polygon points="697.755,568.977,707.755,572.977,697.755,576.977,701.755,572.977" fill="#4B7A46" style="stroke:#4B7A46;stroke-width:1;stroke-linejoin:miter;stroke-miterlimit:10;"/><line x1="363.44" y1="572.977" x2="703.755" y2="572.977" style="stroke:#4B7A46;stroke-width:1;"/><text x="390.453" y="568.12" fill="#000" font-size="13" textLength="292.291" font-family="Helvetica">generarConsolidado(cliente, periodo, confirmar=si)</text><polygon points="1249.65,599.328,1259.65,603.328,1249.65,607.328,1253.65,603.328" fill="#4B7A46" style="stroke:#4B7A46;stroke-width:1;stroke-linejoin:miter;stroke-miterlimit:10;"/><line x1="709.755" y1="603.328" x2="1255.65" y2="603.328" style="stroke:#4B7A46;stroke-width:1;"/><text x="816.623" y="598.472" fill="#000" font-size="13" textLength="338.159" font-family="Helvetica">crear(nueva version; la anterior se conserva en el historial)</text><polygon points="720.755,629.68,710.755,633.68,720.755,637.68,716.755,633.68" fill="#4B7A46" style="stroke:#4B7A46;stroke-width:1;stroke-linejoin:miter;stroke-miterlimit:10;"/><line x1="714.755" y1="633.68" x2="1260.65" y2="633.68" style="stroke:#4B7A46;stroke-width:1;stroke-dasharray:2,2;"/><text x="914.523" y="628.823" fill="#000" font-size="13" textLength="142.359" font-family="Helvetica">nueva version registrada</text><line x1="709.755" y1="664.031" x2="751.755" y2="664.031" style="stroke:#4B7A46;stroke-width:1;"/><line x1="751.755" y1="664.031" x2="751.755" y2="677.031" style="stroke:#4B7A46;stroke-width:1;"/><line x1="710.755" y1="677.031" x2="751.755" y2="677.031" style="stroke:#4B7A46;stroke-width:1;"/><polygon points="720.755,673.031,710.755,677.031,720.755,681.031,716.755,677.031" fill="#4B7A46" style="stroke:#4B7A46;stroke-width:1;stroke-linejoin:miter;stroke-miterlimit:10;"/><text x="716.755" y="659.175" fill="#000" font-size="13" textLength="338.013" font-family="Helvetica">registrarAuditoria("Generacion de certificado consolidado")</text><polygon points="374.44,703.383,364.44,707.383,374.44,711.383,370.44,707.383" fill="#4B7A46" style="stroke:#4B7A46;stroke-width:1;stroke-linejoin:miter;stroke-miterlimit:10;"/><line x1="368.44" y1="707.383" x2="708.755" y2="707.383" style="stroke:#4B7A46;stroke-width:1;stroke-dasharray:2,2;"/><text x="482.763" y="702.526" fill="#000" font-size="13" textLength="107.669" font-family="Helvetica">nueva version lista</text><polygon points="67.183,733.734,57.183,737.734,67.183,741.734,63.183,737.734" fill="#4B7A46" style="stroke:#4B7A46;stroke-width:1;stroke-linejoin:miter;stroke-miterlimit:10;"/><line x1="61.183" y1="737.734" x2="362.44" y2="737.734" style="stroke:#4B7A46;stroke-width:1;stroke-dasharray:2,2;"/><text x="68.183" y="732.878" fill="#000" font-size="13" textLength="283.258" font-family="Helvetica">muestra el consolidado y el historial de versiones</text><?plantuml-src dLLDRzim3BthLn3POGsGNBgkGrDqG6gass4RXgBBDM1isX6gI9uafyr-_IX_n5RQRCCA5B35nyV7Hyfv2ycFwUKbV29D5dLcW1IaPBtCPOhycXhjZ99PUDwITXKgo0Wg3QcIf3t15EWvfJALHWltA7M95hUmnlIniARIMMAKiV3chluR8Do6EP-aBY17vMWGoIZ7Ilaxe_qtt19y9hKZptg6sVIp8ftILt8E2vehMR2a8CWEKD-HEqbbYThV7WjQpE_UBJwS01kRaMs1vultY_Fv03XFlR5_vsjWVsJgklWYS_xN5A6lakJYAgfhhNbgWnUt7-ONbq9uwHNzpn3F3bERGKbM6euvgTbybw8jq46SLrhQIJCM0aDRCC-sKaldBSUiA7lhOBHS9NrjDmAcMiQ8v2KYYH4pIwswrU6fnjqVuLZ0BrpBMkHgqFFml2dm84Ga6gOVOGapde6YDF3ZOQNtdIFNeMrNnqQDktOabY4puSoYEKbwbyvQXab7iE9wpDs_vrAFHH8Oxfd1h7tWwDF8UQQvuPxbcXada5EwGI3T4Om5Ab_FjzMg3NX-ei7WkcmNyXZQfWhWcjDMUpHgZYHr9FY1E-dCBF1kSFygQzZ6c7TPPyVspa3gtDWjifrCrfXrj9c2-ER3de-VEQ_vh0nthYtKp-L4Dw-fp29iRNdomDXr5R2zvLwMvcPGTT9R3I6Zg_7oCh2zV5Yt6pkOxRX53agSdUgi9ZZfN2dv6yluNB9_5XI2hcY7mBnX6pdlrLNkCXhUVrxIIL_gnibnv5PgYSsAgby7FHY-j99Bkrge8xl3TjqsBCjOYUh8m8Y41rKqyl5GZp7TgPrNcQnPpjgB5sve-EKvyLqRZQCHnBKKS-99ixSLXPTwqGOZsaUzXD8j7Jb1EXE_0G00?></g></svg>