<?xml version="1.0" encoding="us-ascii" standalone="no"?><svg xmlns="http://www.w3.org/2000/svg" xmlns:xlink="http://www.w3.org/1999/xlink" contentStyleType="text/css" height="830px" preserveAspectRatio="none" style="width:1402px;height:830px;background:#FFFFFF;" version="1.1" viewBox="0 0 1402 830" width="1402px" zoomAndPan="magnify"><defs/><g><text fill="#000000" font-family="Helvetica" font-size="14" font-weight="bold" lengthAdjust="spacing" textLength="778" x="313.25" y="29.5332">CU-66 Generando el certificado consolidado mensual (excepcion: periodo sin descargas o consolidado previo)</text><rect fill="none" height="502.4609" style="stroke:#000000;stroke-width:1.5;" width="1385.5" x="10" y="229.2734"/><line style="stroke:#9CC49A;stroke-width:0.5;stroke-dasharray:5.0,5.0;" x1="66" x2="66" y1="121.2188" y2="748.7344"/><line style="stroke:#9CC49A;stroke-width:0.5;stroke-dasharray:5.0,5.0;" x1="374.5" x2="374.5" y1="121.2188" y2="748.7344"/><line style="stroke:#9CC49A;stroke-width:0.5;stroke-dasharray:5.0,5.0;" x1="715" x2="715" y1="121.2188" y2="748.7344"/><line style="stroke:#9CC49A;stroke-width:0.5;stroke-dasharray:5.0,5.0;" x1="1065.5" x2="1065.5" y1="121.2188" y2="748.7344"/><line style="stroke:#9CC49A;stroke-width:0.5;stroke-dasharray:5.0,5.0;" x1="1267.5" x2="1267.5" y1="121.2188" y2="748.7344"/><text fill="#000000" font-family="Helvetica" font-size="14" lengthAdjust="spacing" textLength="87" x="20" y="118.1426">Administrador</text><ellipse cx="66.5" cy="52.1094" fill="#EAF3E7" rx="8" ry="8" style="stroke:#2E5E2A;stroke-width:0.5;"/><path d="M66.5,60.1094 L66.5,87.1094 M53.5,68.1094 L79.5,68.1094 M66.5,87.1094 L53.5,102.1094 M66.5,87.1094 L79.5,102.1094 " fill="none" style="stroke:#2E5E2A;stroke-width:0.5;"/><text fill="#000000" font-family="Helvetica" font-size="14" lengthAdjust="spacing" textLength="87" x="20" y="762.2676">Administrador</text><ellipse cx="66.5" cy="773.8438" fill="#EAF3E7" rx="8" ry="8" style="stroke:#2E5E2A;stroke-width:0.5;"/><path d="M66.5,781.8438 L66.5,808.8438 M53.5,789.8438 L79.5,789.8438 M66.5,808.8438 L53.5,823.8438 M66.5,808.8438 L79.5,823.8438 " fill="none" style="stroke:#2E5E2A;stroke-width:0.5;"/><rect fill="#EAF3E7" height="31.6094" rx="2.5" ry="2.5" style="stroke:#2E5E2A;stroke-width:0.5;" width="106" x="321.5" y="88.6094"/><text fill="#000000" font-family="Helvetica" font-size="14" lengthAdjust="spacing" textLength="92" x="328.5" y="110.1426">V_Certificados</text><rect fill="#EAF3E7" height="31.6094" rx="2.5" ry="2.5" style="stroke:#2E5E2A;stroke-width:0.5;" width="106" x="321.5" y="747.7344"/><text fill="#000000" font-family="Helvetica" font-size="14" lengthAdjust="spacing" textLength="92" x="328.5" y="769.2676">V_Certificados</text><rect fill="#EAF3E7" height="31.6094" rx="2.5" ry="2.5" style="stroke:#2E5E2A;stroke-width:0.5;" width="109" x="661" y="88.6094"/><text fill="#000000" font-family="Helvetica" font-size="14" lengthAdjust="spacing" textLength="95" x="668" y="110.1426">C_Trazabilidad</text><rect fill="#EAF3E7" height="31.6094" rx="2.5" ry="2.5" style="stroke:#2E5E2A;stroke-width:0.5;" width="109" x="661" y="747.7344"/><text fill="#000000" font-family="Helvetica" font-size="14" lengthAdjust="spacing" textLength="95" x="668" y="769.2676">C_Trazabilidad</text><rect fill="#EAF3E7" height="31.6094" rx="2.5" ry="2.5" style="stroke:#2E5E2A;stroke-width:0.5;" width="150" x="990.5" y="88.6094"/><text fill="#000000" font-family="Helvetica" font-size="14" lengthAdjust="spacing" textLength="136" x="997.5" y="110.1426">:recepcion_recepcion</text><rect fill="#EAF3E7" height="31.6094" rx="2.5" ry="2.5" style="stroke:#2E5E2A;stroke-width:0.5;" width="150" x="990.5" y="747.7344"/><text fill="#000000" font-family="Helvetica" font-size="14" lengthAdjust="spacing" textLength="136" x="997.5" y="769.2676">:recepcion_recepcion</text><rect fill="#EAF3E7" height="31.6094" rx="2.5" ry="2.5" style="stroke:#2E5E2A;stroke-width:0.5;" width="235" x="1150.5" y="88.6094"/><text fill="#000000" font-family="Helvetica" font-size="14" lengthAdjust="spacing" textLength="221" x="1157.5" y="110.1426">:trazabilidad_certificadotrazabilidad</text><rect fill="#EAF3E7" height="31.6094" rx="2.5" ry="2.5" style="stroke:#2E5E2A;stroke-width:0.5;" width="235" x="1150.5" y="747.7344"/><text fill="#000000" font-family="Helvetica" font-size="14" lengthAdjust="spacing" textLength="221" x="1157.5" y="769.2676">:trazabilidad_certificadotrazabilidad</text><polygon fill="#4B7A46" points="362.5,149.5703,372.5,153.5703,362.5,157.5703,366.5,153.5703" style="stroke:#4B7A46;stroke-width:1.0;"/><line style="stroke:#4B7A46;stroke-width:1.0;" x1="66.5" x2="368.5" y1="153.5703" y2="153.5703"/><text fill="#000000" font-family="Helvetica" font-size="13" lengthAdjust="spacing" textLength="278" x="81.5" y="148.7139">selecciona cliente y periodo; presiona "Generar"</text><polygon fill="#4B7A46" points="703.5,179.9219,713.5,183.9219,703.5,187.9219,707.5,183.9219" style="stroke:#4B7A46;stroke-width:1.0;"/><line style="stroke:#4B7A46;stroke-width:1.0;" x1="374.5" x2="709.5" y1="183.9219" y2="183.9219"/><text fill="#000000" font-family="Helvetica" font-size="13" lengthAdjust="spacing" textLength="317" x="386.5" y="179.0654">generarConsolidado(cliente, periodo_inicio, periodo_fin)</text><polygon fill="#4B7A46" points="1053.5,210.2734,1063.5,214.2734,1053.5,218.2734,1057.5,214.2734" style="stroke:#4B7A46;stroke-width:1.0;"/><line style="stroke:#4B7A46;stroke-width:1.0;" x1="715.5" x2="1059.5" y1="214.2734" y2="214.2734"/><text fill="#000000" font-family="Helvetica" font-size="13" lengthAdjust="spacing" textLength="292" x="744.5" y="209.417">obtener(cliente, estado=recibida, fecha en periodo)</text><path d="M10,229.2734 L71,229.2734 L71,237.625 L61,247.625 L10,247.625 L10,229.2734 " fill="#EEEEEE" style="stroke:#000000;stroke-width:1.5;"/><rect fill="none" height="502.4609" style="stroke:#000000;stroke-width:1.5;" width="1385.5" x="10" y="229.2734"/><text fill="#000000" font-family="Helvetica" font-size="13" font-weight="bold" lengthAdjust="spacing" textLength="16" x="25" y="243.7686">alt</text><text fill="#000000" font-family="Helvetica" font-size="11" font-weight="bold" lengthAdjust="spacing" textLength="297" x="86" y="242.6924">[el cliente no tiene descargas recibidas en el periodo]</text><polygon fill="#4B7A46" points="726.5,265.9766,716.5,269.9766,726.5,273.9766,722.5,269.9766" style="stroke:#4B7A46;stroke-width:1.0;"/><line style="stroke:#4B7A46;stroke-width:1.0;stroke-dasharray:2.0,2.0;" x1="720.5" x2="1064.5" y1="269.9766" y2="269.9766"/><text fill="#000000" font-family="Helvetica" font-size="13" lengthAdjust="spacing" textLength="81" x="850" y="265.1201">sin descargas</text><polygon fill="#4B7A46" points="385.5,296.3281,375.5,300.3281,385.5,304.3281,381.5,300.3281" style="stroke:#4B7A46;stroke-width:1.0;"/><line style="stroke:#4B7A46;stroke-width:1.0;stroke-dasharray:2.0,2.0;" x1="379.5" x2="714.5" y1="300.3281" y2="300.3281"/><text fill="#000000" font-family="Helvetica" font-size="13" lengthAdjust="spacing" textLength="285" x="402.5" y="295.4717">aviso: no hay descargas recibidas para el periodo</text><polygon fill="#4B7A46" points="77.5,326.6797,67.5,330.6797,77.5,334.6797,73.5,330.6797" style="stroke:#4B7A46;stroke-width:1.0;"/><line style="stroke:#4B7A46;stroke-width:1.0;stroke-dasharray:2.0,2.0;" x1="71.5" x2="373.5" y1="330.6797" y2="330.6797"/><text fill="#000000" font-family="Helvetica" font-size="13" lengthAdjust="spacing" textLength="191" x="125" y="325.8232">informa y no genera el certificado</text><line style="stroke:#000000;stroke-width:1.0;stroke-dasharray:2.0,2.0;" x1="10" x2="1395.5" y1="339.6797" y2="339.6797"/><text fill="#000000" font-family="Helvetica" font-size="11" font-weight="bold" lengthAdjust="spacing" textLength="292" x="15" y="351.0986">[ya existe un consolidado para el cliente y el periodo]</text><polygon fill="#4B7A46" points="726.5,372.8672,716.5,376.8672,726.5,380.8672,722.5,376.8672" style="stroke:#4B7A46;stroke-width:1.0;"/><line style="stroke:#4B7A46;stroke-width:1.0;stroke-dasharray:2.0,2.0;" x1="720.5" x2="1064.5" y1="376.8672" y2="376.8672"/><text fill="#000000" font-family="Helvetica" font-size="13" lengthAdjust="spacing" textLength="183" x="799" y="372.0107">descargas recibidas del periodo</text><polygon fill="#4B7A46" points="1256,403.2188,1266,407.2188,1256,411.2188,1260,407.2188" style="stroke:#4B7A46;stroke-width:1.0;"/><line style="stroke:#4B7A46;stroke-width:1.0;" x1="715.5" x2="1262" y1="407.2188" y2="407.2188"/><text fill="#000000" font-family="Helvetica" font-size="13" lengthAdjust="spacing" textLength="241" x="871.25" y="402.3623">buscar(cliente, tipo=consolidado, periodo)</text><polygon fill="#4B7A46" points="726.5,433.5703,716.5,437.5703,726.5,441.5703,722.5,437.5703" style="stroke:#4B7A46;stroke-width:1.0;"/><line style="stroke:#4B7A46;stroke-width:1.0;stroke-dasharray:2.0,2.0;" x1="720.5" x2="1267" y1="437.5703" y2="437.5703"/><text fill="#000000" font-family="Helvetica" font-size="13" lengthAdjust="spacing" textLength="174" x="904.75" y="432.7139">consolidado previo encontrado</text><polygon fill="#4B7A46" points="385.5,463.9219,375.5,467.9219,385.5,471.9219,381.5,467.9219" style="stroke:#4B7A46;stroke-width:1.0;"/><line style="stroke:#4B7A46;stroke-width:1.0;stroke-dasharray:2.0,2.0;" x1="379.5" x2="714.5" y1="467.9219" y2="467.9219"/><text fill="#000000" font-family="Helvetica" font-size="13" lengthAdjust="spacing" textLength="236" x="427" y="463.0654">advertencia: existe un consolidado previo</text><polygon fill="#4B7A46" points="77.5,494.2734,67.5,498.2734,77.5,502.2734,73.5,498.2734" style="stroke:#4B7A46;stroke-width:1.0;"/><line style="stroke:#4B7A46;stroke-width:1.0;stroke-dasharray:2.0,2.0;" x1="71.5" x2="373.5" y1="498.2734" y2="498.2734"/><text fill="#000000" font-family="Helvetica" font-size="13" lengthAdjust="spacing" textLength="176" x="132.5" y="493.417">pide confirmar la nueva version</text><polygon fill="#4B7A46" points="362.5,524.625,372.5,528.625,362.5,532.625,366.5,528.625" style="stroke:#4B7A46;stroke-width:1.0;"/><line style="stroke:#4B7A46;stroke-width:1.0;" x1="66.5" x2="368.5" y1="528.625" y2="528.625"/><text fill="#000000" font-family="Helvetica" font-size="13" lengthAdjust="spacing" textLength="49" x="196" y="523.7686">confirma</text><polygon fill="#4B7A46" points="703.5,554.9766,713.5,558.9766,703.5,562.9766,707.5,558.9766" style="stroke:#4B7A46;stroke-width:1.0;"/><line style="stroke:#4B7A46;stroke-width:1.0;" x1="374.5" x2="709.5" y1="558.9766" y2="558.9766"/><text fill="#000000" font-family="Helvetica" font-size="13" lengthAdjust="spacing" textLength="289" x="400.5" y="554.1201">generarConsolidado(cliente, periodo, confirmar=si)</text><polygon fill="#4B7A46" points="1256,585.3281,1266,589.3281,1256,593.3281,1260,589.3281" style="stroke:#4B7A46;stroke-width:1.0;"/><line style="stroke:#4B7A46;stroke-width:1.0;" x1="715.5" x2="1262" y1="589.3281" y2="589.3281"/><text fill="#000000" font-family="Helvetica" font-size="13" lengthAdjust="spacing" textLength="333" x="825.25" y="584.4717">crear(nueva version; la anterior se conserva en el historial)</text><polygon fill="#4B7A46" points="726.5,615.6797,716.5,619.6797,726.5,623.6797,722.5,619.6797" style="stroke:#4B7A46;stroke-width:1.0;"/><line style="stroke:#4B7A46;stroke-width:1.0;stroke-dasharray:2.0,2.0;" x1="720.5" x2="1267" y1="619.6797" y2="619.6797"/><text fill="#000000" font-family="Helvetica" font-size="13" lengthAdjust="spacing" textLength="138" x="922.75" y="614.8232">nueva version registrada</text><line style="stroke:#4B7A46;stroke-width:1.0;" x1="715.5" x2="757.5" y1="650.0313" y2="650.0313"/><line style="stroke:#4B7A46;stroke-width:1.0;" x1="757.5" x2="757.5" y1="650.0313" y2="663.0313"/><line style="stroke:#4B7A46;stroke-width:1.0;" x1="716.5" x2="757.5" y1="663.0313" y2="663.0313"/><polygon fill="#4B7A46" points="726.5,659.0313,716.5,663.0313,726.5,667.0313,722.5,663.0313" style="stroke:#4B7A46;stroke-width:1.0;"/><text fill="#000000" font-family="Helvetica" font-size="13" lengthAdjust="spacing" textLength="336" x="722.5" y="645.1748">registrarAuditoria("Generacion de certificado consolidado")</text><polygon fill="#4B7A46" points="385.5,689.3828,375.5,693.3828,385.5,697.3828,381.5,693.3828" style="stroke:#4B7A46;stroke-width:1.0;"/><line style="stroke:#4B7A46;stroke-width:1.0;stroke-dasharray:2.0,2.0;" x1="379.5" x2="714.5" y1="693.3828" y2="693.3828"/><text fill="#000000" font-family="Helvetica" font-size="13" lengthAdjust="spacing" textLength="105" x="492.5" y="688.5264">nueva version lista</text><polygon fill="#4B7A46" points="77.5,719.7344,67.5,723.7344,77.5,727.7344,73.5,723.7344" style="stroke:#4B7A46;stroke-width:1.0;"/><line style="stroke:#4B7A46;stroke-width:1.0;stroke-dasharray:2.0,2.0;" x1="71.5" x2="373.5" y1="723.7344" y2="723.7344"/><text fill="#000000" font-family="Helvetica" font-size="13" lengthAdjust="spacing" textLength="284" x="78.5" y="718.8779">muestra el consolidado y el historial de versiones</text><!--SRC=[dLN1Rjim3BthAuZii0P8BbtNeIawm3NIxR0DGz7b6Z0sxGXL94-IqsPVFygnOojjjc452jZcutla8wMyXVJ7zF8IFf4cYpetG0eoibuMCaD-pOnsHiayF6z8kneLv0IrXan9qfvW2lISKPL9euLxbBf2YnjOOVPOMbFhF3NAM7Xpr_mD46xDd4zIbr2WSZI8v5HWhVoTqVuRRWW-azgIvtg6sVIp9ftHLt8EIqgKBBcaK90TeBuZTvB92hM_FIvedjozctyu0JOs9zi2p-Vlv-V909XatjY_y-rXVsJgklWY2_xN5A6lqlJYAjArrZormOlR3yd5fH1UUaN_CyIpmzHcK96LXcDEQZRVPMXBT13dLPQsqeo5mD0M9Fb6QkcyvPWLLMyTZ1RBjDTs8s2gHOn8bmyMV-5ADjmD8eqHCqjjTSl3KuExFyBv0T5oqBD_8V0WH5GqJ3_20cOy0qLPuCV3IkywHwv3sww9ZVRksf5OXCoKCylzbxHtwQnbc7G4IzPZxlwza7eiqi1mpmncvGD7dqRECyqDzonNp3Y1Wh8r0kcEO2nG-MQ-RQtQWESd6WokotOXZw5jgW3MdBQrHwFcIDf4WX-ubSxC0kyQTw-oXcsCUHTDTcpl3AGkZDqWsybaUxEEDbCGdtpOyUTdpjjVAyETQuNwkPpevhKgymZRM9u-C7PL1snlkPULkHceJdgh8MHq6YyF0zlB7vjsOmVpBRV8GOcpKvqr12UTgoJViOml9FjdGI7echO8p1ksaVDUNUKkOy_xpqiwwQLkd1n7RcMMsAn8_JhKW-6cbIpjca8TsIsswxRcieoLg8uCZ4XuKEM-V3peCQRxQfCwbmtBMNlmmWaDlpmdxhNHE1f1hAMO4q-QlQafl3IBDXZHBkebIBTqv0JfNFm6]--></g></svg>