<?xml version="1.0" encoding="us-ascii" standalone="no"?><svg xmlns="http://www.w3.org/2000/svg" xmlns:xlink="http://www.w3.org/1999/xlink" contentStyleType="text/css" height="691px" preserveAspectRatio="none" style="width:1448px;height:691px;background:#FFFFFF;" version="1.1" viewBox="0 0 1448 691" width="1448px" zoomAndPan="magnify"><defs/><g><text fill="#000000" font-family="sans-serif" font-size="14" font-weight="bold" lengthAdjust="spacing" textLength="411" x="517.75" y="29.5332">CU-74 Consultando el reporte de produccion (flujo normal)</text><line style="stroke:#181818;stroke-width:0.5;stroke-dasharray:5.0,5.0;" x1="51" x2="51" y1="121.2188" y2="609.4922"/><line style="stroke:#181818;stroke-width:0.5;stroke-dasharray:5.0,5.0;" x1="240" x2="240" y1="121.2188" y2="609.4922"/><line style="stroke:#181818;stroke-width:0.5;stroke-dasharray:5.0,5.0;" x1="458.5" x2="458.5" y1="121.2188" y2="609.4922"/><line style="stroke:#181818;stroke-width:0.5;stroke-dasharray:5.0,5.0;" x1="723.5" x2="723.5" y1="121.2188" y2="609.4922"/><line style="stroke:#181818;stroke-width:0.5;stroke-dasharray:5.0,5.0;" x1="868.5" x2="868.5" y1="121.2188" y2="609.4922"/><line style="stroke:#181818;stroke-width:0.5;stroke-dasharray:5.0,5.0;" x1="1053.5" x2="1053.5" y1="121.2188" y2="609.4922"/><line style="stroke:#181818;stroke-width:0.5;stroke-dasharray:5.0,5.0;" x1="1232.5" x2="1232.5" y1="121.2188" y2="609.4922"/><line style="stroke:#181818;stroke-width:0.5;stroke-dasharray:5.0,5.0;" x1="1379.5" x2="1379.5" y1="121.2188" y2="609.4922"/><text fill="#000000" font-family="sans-serif" font-size="14" lengthAdjust="spacing" textLength="87" x="5" y="118.1426">Administrador</text><ellipse cx="51.5" cy="52.1094" fill="#E2E2F0" rx="8" ry="8" style="stroke:#181818;stroke-width:0.5;"/><path d="M51.5,60.1094 L51.5,87.1094 M38.5,68.1094 L64.5,68.1094 M51.5,87.1094 L38.5,102.1094 M51.5,87.1094 L64.5,102.1094 " fill="none" style="stroke:#181818;stroke-width:0.5;"/><text fill="#000000" font-family="sans-serif" font-size="14" lengthAdjust="spacing" textLength="87" x="5" y="623.0254">Administrador</text><ellipse cx="51.5" cy="634.6016" fill="#E2E2F0" rx="8" ry="8" style="stroke:#181818;stroke-width:0.5;"/><path d="M51.5,642.6016 L51.5,669.6016 M38.5,650.6016 L64.5,650.6016 M51.5,669.6016 L38.5,684.6016 M51.5,669.6016 L64.5,684.6016 " fill="none" style="stroke:#181818;stroke-width:0.5;"/><rect fill="#E2E2F0" height="31.6094" rx="2.5" ry="2.5" style="stroke:#181818;stroke-width:0.5;" width="89" x="196" y="88.6094"/><text fill="#000000" font-family="sans-serif" font-size="14" lengthAdjust="spacing" textLength="75" x="203" y="110.1426">V_Reportes</text><rect fill="#E2E2F0" height="31.6094" rx="2.5" ry="2.5" style="stroke:#181818;stroke-width:0.5;" width="89" x="196" y="608.4922"/><text fill="#000000" font-family="sans-serif" font-size="14" lengthAdjust="spacing" textLength="75" x="203" y="630.0254">V_Reportes</text><rect fill="#E2E2F0" height="31.6094" rx="2.5" ry="2.5" style="stroke:#181818;stroke-width:0.5;" width="90" x="413.5" y="88.6094"/><text fill="#000000" font-family="sans-serif" font-size="14" lengthAdjust="spacing" textLength="76" x="420.5" y="110.1426">C_Reportes</text><rect fill="#E2E2F0" height="31.6094" rx="2.5" ry="2.5" style="stroke:#181818;stroke-width:0.5;" width="90" x="413.5" y="608.4922"/><text fill="#000000" font-family="sans-serif" font-size="14" lengthAdjust="spacing" textLength="76" x="420.5" y="630.0254">C_Reportes</text><rect fill="#E2E2F0" height="31.6094" rx="2.5" ry="2.5" style="stroke:#181818;stroke-width:0.5;" width="110" x="668.5" y="88.6094"/><text fill="#000000" font-family="sans-serif" font-size="14" lengthAdjust="spacing" textLength="96" x="675.5" y="110.1426">:inventario_pila</text><rect fill="#E2E2F0" height="31.6094" rx="2.5" ry="2.5" style="stroke:#181818;stroke-width:0.5;" width="110" x="668.5" y="608.4922"/><text fill="#000000" font-family="sans-serif" font-size="14" lengthAdjust="spacing" textLength="96" x="675.5" y="630.0254">:inventario_pila</text><rect fill="#E2E2F0" height="31.6094" rx="2.5" ry="2.5" style="stroke:#181818;stroke-width:0.5;" width="161" x="788.5" y="88.6094"/><text fill="#000000" font-family="sans-serif" font-size="14" lengthAdjust="spacing" textLength="147" x="795.5" y="110.1426">:inventario_procesopila</text><rect fill="#E2E2F0" height="31.6094" rx="2.5" ry="2.5" style="stroke:#181818;stroke-width:0.5;" width="161" x="788.5" y="608.4922"/><text fill="#000000" font-family="sans-serif" font-size="14" lengthAdjust="spacing" textLength="147" x="795.5" y="630.0254">:inventario_procesopila</text><rect fill="#E2E2F0" height="31.6094" rx="2.5" ry="2.5" style="stroke:#181818;stroke-width:0.5;" width="188" x="959.5" y="88.6094"/><text fill="#000000" font-family="sans-serif" font-size="14" lengthAdjust="spacing" textLength="174" x="966.5" y="110.1426">:inventario_composicionpila</text><rect fill="#E2E2F0" height="31.6094" rx="2.5" ry="2.5" style="stroke:#181818;stroke-width:0.5;" width="188" x="959.5" y="608.4922"/><text fill="#000000" font-family="sans-serif" font-size="14" lengthAdjust="spacing" textLength="174" x="966.5" y="630.0254">:inventario_composicionpila</text><rect fill="#E2E2F0" height="31.6094" rx="2.5" ry="2.5" style="stroke:#181818;stroke-width:0.5;" width="150" x="1157.5" y="88.6094"/><text fill="#000000" font-family="sans-serif" font-size="14" lengthAdjust="spacing" textLength="136" x="1164.5" y="110.1426">:inventario_inventario</text><rect fill="#E2E2F0" height="31.6094" rx="2.5" ry="2.5" style="stroke:#181818;stroke-width:0.5;" width="150" x="1157.5" y="608.4922"/><text fill="#000000" font-family="sans-serif" font-size="14" lengthAdjust="spacing" textLength="136" x="1164.5" y="630.0254">:inventario_inventario</text><rect fill="#E2E2F0" height="31.6094" rx="2.5" ry="2.5" style="stroke:#181818;stroke-width:0.5;" width="125" x="1317.5" y="88.6094"/><text fill="#000000" font-family="sans-serif" font-size="14" lengthAdjust="spacing" textLength="111" x="1324.5" y="110.1426">:reportes_reporte</text><rect fill="#E2E2F0" height="31.6094" rx="2.5" ry="2.5" style="stroke:#181818;stroke-width:0.5;" width="125" x="1317.5" y="608.4922"/><text fill="#000000" font-family="sans-serif" font-size="14" lengthAdjust="spacing" textLength="111" x="1324.5" y="630.0254">:reportes_reporte</text><polygon fill="#181818" points="228.5,149.5703,238.5,153.5703,228.5,157.5703,232.5,153.5703" style="stroke:#181818;stroke-width:1.0;"/><line style="stroke:#181818;stroke-width:1.0;" x1="51.5" x2="234.5" y1="153.5703" y2="153.5703"/><text fill="#000000" font-family="sans-serif" font-size="13" lengthAdjust="spacing" textLength="165" x="58.5" y="148.7139">define periodo de produccion</text><polygon fill="#181818" points="446.5,179.9219,456.5,183.9219,446.5,187.9219,450.5,183.9219" style="stroke:#181818;stroke-width:1.0;"/><line style="stroke:#181818;stroke-width:1.0;" x1="240.5" x2="452.5" y1="183.9219" y2="183.9219"/><text fill="#000000" font-family="sans-serif" font-size="13" lengthAdjust="spacing" textLength="164" x="247.5" y="179.0654">generar(produccion, periodo)</text><polygon fill="#181818" points="857,210.2734,867,214.2734,857,218.2734,861,214.2734" style="stroke:#181818;stroke-width:1.0;"/><line style="stroke:#181818;stroke-width:1.0;" x1="458.5" x2="863" y1="214.2734" y2="214.2734"/><text fill="#000000" font-family="sans-serif" font-size="13" lengthAdjust="spacing" textLength="177" x="465.5" y="209.417">consultar procesos del periodo</text><polygon fill="#181818" points="469.5,240.625,459.5,244.625,469.5,248.625,465.5,244.625" style="stroke:#181818;stroke-width:1.0;"/><line style="stroke:#181818;stroke-width:1.0;stroke-dasharray:2.0,2.0;" x1="463.5" x2="868" y1="244.625" y2="244.625"/><text fill="#000000" font-family="sans-serif" font-size="13" lengthAdjust="spacing" textLength="147" x="475.5" y="239.7686">procesos con su volumen</text><polygon fill="#181818" points="711.5,270.9766,721.5,274.9766,711.5,278.9766,715.5,274.9766" style="stroke:#181818;stroke-width:1.0;"/><line style="stroke:#181818;stroke-width:1.0;" x1="458.5" x2="717.5" y1="274.9766" y2="274.9766"/><text fill="#000000" font-family="sans-serif" font-size="13" lengthAdjust="spacing" textLength="170" x="465.5" y="270.1201">consultar estado de cada pila</text><polygon fill="#181818" points="469.5,301.3281,459.5,305.3281,469.5,309.3281,465.5,305.3281" style="stroke:#181818;stroke-width:1.0;"/><line style="stroke:#181818;stroke-width:1.0;stroke-dasharray:2.0,2.0;" x1="463.5" x2="722.5" y1="305.3281" y2="305.3281"/><text fill="#000000" font-family="sans-serif" font-size="13" lengthAdjust="spacing" textLength="160" x="475.5" y="300.4717">pilas cerradas y en proceso</text><polygon fill="#181818" points="1041.5,331.6797,1051.5,335.6797,1041.5,339.6797,1045.5,335.6797" style="stroke:#181818;stroke-width:1.0;"/><line style="stroke:#181818;stroke-width:1.0;" x1="458.5" x2="1047.5" y1="335.6797" y2="335.6797"/><text fill="#000000" font-family="sans-serif" font-size="13" lengthAdjust="spacing" textLength="186" x="465.5" y="330.8232">consultar composicion de la pila</text><polygon fill="#181818" points="469.5,362.0313,459.5,366.0313,469.5,370.0313,465.5,366.0313" style="stroke:#181818;stroke-width:1.0;"/><line style="stroke:#181818;stroke-width:1.0;stroke-dasharray:2.0,2.0;" x1="463.5" x2="1052.5" y1="366.0313" y2="366.0313"/><text fill="#000000" font-family="sans-serif" font-size="13" lengthAdjust="spacing" textLength="119" x="475.5" y="361.1748">volumen por material</text><line style="stroke:#181818;stroke-width:1.0;" x1="458.5" x2="500.5" y1="396.3828" y2="396.3828"/><line style="stroke:#181818;stroke-width:1.0;" x1="500.5" x2="500.5" y1="396.3828" y2="409.3828"/><line style="stroke:#181818;stroke-width:1.0;" x1="459.5" x2="500.5" y1="409.3828" y2="409.3828"/><polygon fill="#181818" points="469.5,405.3828,459.5,409.3828,469.5,413.3828,465.5,409.3828" style="stroke:#181818;stroke-width:1.0;"/><text fill="#000000" font-family="sans-serif" font-size="13" lengthAdjust="spacing" textLength="251" x="465.5" y="391.5264">separar procesado de en curso por material</text><polygon fill="#181818" points="1220.5,435.7344,1230.5,439.7344,1220.5,443.7344,1224.5,439.7344" style="stroke:#181818;stroke-width:1.0;"/><line style="stroke:#181818;stroke-width:1.0;" x1="458.5" x2="1226.5" y1="439.7344" y2="439.7344"/><text fill="#000000" font-family="sans-serif" font-size="13" lengthAdjust="spacing" textLength="172" x="465.5" y="434.8779">consultar inventario resultante</text><polygon fill="#181818" points="469.5,466.0859,459.5,470.0859,469.5,474.0859,465.5,470.0859" style="stroke:#181818;stroke-width:1.0;"/><line style="stroke:#181818;stroke-width:1.0;stroke-dasharray:2.0,2.0;" x1="463.5" x2="1231.5" y1="470.0859" y2="470.0859"/><text fill="#000000" font-family="sans-serif" font-size="13" lengthAdjust="spacing" textLength="185" x="475.5" y="465.2295">existencias por material y etapa</text><polygon fill="#181818" points="1368,496.4375,1378,500.4375,1368,504.4375,1372,500.4375" style="stroke:#181818;stroke-width:1.0;"/><line style="stroke:#181818;stroke-width:1.0;" x1="458.5" x2="1374" y1="500.4375" y2="500.4375"/><text fill="#000000" font-family="sans-serif" font-size="13" lengthAdjust="spacing" textLength="157" x="465.5" y="495.5811">guardar resultado agregado</text><polygon fill="#181818" points="469.5,526.7891,459.5,530.7891,469.5,534.7891,465.5,530.7891" style="stroke:#181818;stroke-width:1.0;"/><line style="stroke:#181818;stroke-width:1.0;stroke-dasharray:2.0,2.0;" x1="463.5" x2="1379" y1="530.7891" y2="530.7891"/><text fill="#000000" font-family="sans-serif" font-size="13" lengthAdjust="spacing" textLength="97" x="475.5" y="525.9326">reporte generado</text><polygon fill="#181818" points="251.5,557.1406,241.5,561.1406,251.5,565.1406,247.5,561.1406" style="stroke:#181818;stroke-width:1.0;"/><line style="stroke:#181818;stroke-width:1.0;stroke-dasharray:2.0,2.0;" x1="245.5" x2="457.5" y1="561.1406" y2="561.1406"/><text fill="#000000" font-family="sans-serif" font-size="13" lengthAdjust="spacing" textLength="194" x="257.5" y="556.2842">reporte con procesado y en curso</text><polygon fill="#181818" points="62.5,587.4922,52.5,591.4922,62.5,595.4922,58.5,591.4922" style="stroke:#181818;stroke-width:1.0;"/><line style="stroke:#181818;stroke-width:1.0;stroke-dasharray:2.0,2.0;" x1="56.5" x2="239.5" y1="591.4922" y2="591.4922"/><text fill="#000000" font-family="sans-serif" font-size="13" lengthAdjust="spacing" textLength="105" x="68.5" y="586.6357">muestra el reporte</text><!--SRC=[VPD1QmCX48Nl_eeXfmIQMw6GGw583xajWUOQ1dSIBAukenkQVzynw-x6Kd9Jvlavyvuccno1_jg-lO8EFWukeMy3a0EcFd0YQ0bw3krWZ0qUrcStV0VmWJjq6uKc1OQFjhFUniJO1bOzShB6zkWJh8wdmyY9Ay08nxggwwgkgplhh-GJiWsdtZgyQved6Ww6ObYaJxGcT7s8Diyqw_KJ_RAyI_T_bCMiU2gBk-ZmsQZA6jY-mn5sOkdPUh6L12TcLmwhOrPfKLt84oElbzhBT6IZT5OrZSXCYOsXp1y5w2Qb4iss0EUw784um3MueIDVM1MAOiAnCuCjGhP8FO1aAnHYcKeMDo0_mKUOhcaFPcUaAq2z44ih8EP1XqbwHrTGKeqaRiy3biP4RGQEuPyp- -hs9Jfvq-CBJwJsyztq8_cGDrP6UMJbkHBsE38bp9p9WDmAiu2a4xmmNMIXic12JdzdZB2zkrAodqevWsMUspnEpb-azRlPGJTGtZnyp5y0]--></g></svg>