<?xml version="1.0" encoding="us-ascii" standalone="no"?><svg xmlns="http://www.w3.org/2000/svg" xmlns:xlink="http://www.w3.org/1999/xlink" contentStyleType="text/css" height="630px" preserveAspectRatio="none" style="width:1263px;height:630px;background:#FFFFFF;" version="1.1" viewBox="0 0 1263 630" width="1263px" zoomAndPan="magnify"><defs/><g><text fill="#000000" font-family="Helvetica" font-size="14" font-weight="bold" lengthAdjust="spacing" textLength="470" x="395.75" y="29.5332">CU-85 Consultando el estado de la flota y los equipos (flujo normal)</text><line style="stroke:#9CC49A;stroke-width:0.5;stroke-dasharray:5.0,5.0;" x1="51" x2="51" y1="121.2188" y2="548.7891"/><line style="stroke:#9CC49A;stroke-width:0.5;stroke-dasharray:5.0,5.0;" x1="432" x2="432" y1="121.2188" y2="548.7891"/><line style="stroke:#9CC49A;stroke-width:0.5;stroke-dasharray:5.0,5.0;" x1="640.5" x2="640.5" y1="121.2188" y2="548.7891"/><line style="stroke:#9CC49A;stroke-width:0.5;stroke-dasharray:5.0,5.0;" x1="962.5" x2="962.5" y1="121.2188" y2="548.7891"/><line style="stroke:#9CC49A;stroke-width:0.5;stroke-dasharray:5.0,5.0;" x1="1161.5" x2="1161.5" y1="121.2188" y2="548.7891"/><text fill="#000000" font-family="Helvetica" font-size="14" lengthAdjust="spacing" textLength="87" x="5" y="118.1426">Administrador</text><ellipse cx="51.5" cy="52.1094" fill="#EAF3E7" rx="8" ry="8" style="stroke:#2E5E2A;stroke-width:0.5;"/><path d="M51.5,60.1094 L51.5,87.1094 M38.5,68.1094 L64.5,68.1094 M51.5,87.1094 L38.5,102.1094 M51.5,87.1094 L64.5,102.1094 " fill="none" style="stroke:#2E5E2A;stroke-width:0.5;"/><text fill="#000000" font-family="Helvetica" font-size="14" lengthAdjust="spacing" textLength="87" x="5" y="562.3223">Administrador</text><ellipse cx="51.5" cy="573.8984" fill="#EAF3E7" rx="8" ry="8" style="stroke:#2E5E2A;stroke-width:0.5;"/><path d="M51.5,581.8984 L51.5,608.8984 M38.5,589.8984 L64.5,589.8984 M51.5,608.8984 L38.5,623.8984 M51.5,608.8984 L64.5,623.8984 " fill="none" style="stroke:#2E5E2A;stroke-width:0.5;"/><rect fill="#EAF3E7" height="31.6094" rx="2.5" ry="2.5" style="stroke:#2E5E2A;stroke-width:0.5;" width="107" x="379" y="88.6094"/><text fill="#000000" font-family="Helvetica" font-size="14" lengthAdjust="spacing" textLength="93" x="386" y="110.1426">V_EstadoFlota</text><rect fill="#EAF3E7" height="31.6094" rx="2.5" ry="2.5" style="stroke:#2E5E2A;stroke-width:0.5;" width="107" x="379" y="547.7891"/><text fill="#000000" font-family="Helvetica" font-size="14" lengthAdjust="spacing" textLength="93" x="386" y="569.3223">V_EstadoFlota</text><rect fill="#EAF3E7" height="31.6094" rx="2.5" ry="2.5" style="stroke:#2E5E2A;stroke-width:0.5;" width="102" x="589.5" y="88.6094"/><text fill="#000000" font-family="Helvetica" font-size="14" lengthAdjust="spacing" textLength="88" x="596.5" y="110.1426">C_Maquinaria</text><rect fill="#EAF3E7" height="31.6094" rx="2.5" ry="2.5" style="stroke:#2E5E2A;stroke-width:0.5;" width="102" x="589.5" y="547.7891"/><text fill="#000000" font-family="Helvetica" font-size="14" lengthAdjust="spacing" textLength="88" x="596.5" y="569.3223">C_Maquinaria</text><rect fill="#EAF3E7" height="31.6094" rx="2.5" ry="2.5" style="stroke:#2E5E2A;stroke-width:0.5;" width="188" x="868.5" y="88.6094"/><text fill="#000000" font-family="Helvetica" font-size="14" lengthAdjust="spacing" textLength="174" x="875.5" y="110.1426">:mantenimiento_maquinaria</text><rect fill="#EAF3E7" height="31.6094" rx="2.5" ry="2.5" style="stroke:#2E5E2A;stroke-width:0.5;" width="188" x="868.5" y="547.7891"/><text fill="#000000" font-family="Helvetica" font-size="14" lengthAdjust="spacing" textLength="174" x="875.5" y="569.3223">:mantenimiento_maquinaria</text><rect fill="#EAF3E7" height="31.6094" rx="2.5" ry="2.5" style="stroke:#2E5E2A;stroke-width:0.5;" width="191" x="1066.5" y="88.6094"/><text fill="#000000" font-family="Helvetica" font-size="14" lengthAdjust="spacing" textLength="177" x="1073.5" y="110.1426">:mantenimiento_mantencion</text><rect fill="#EAF3E7" height="31.6094" rx="2.5" ry="2.5" style="stroke:#2E5E2A;stroke-width:0.5;" width="191" x="1066.5" y="547.7891"/><text fill="#000000" font-family="Helvetica" font-size="14" lengthAdjust="spacing" textLength="177" x="1073.5" y="569.3223">:mantenimiento_mantencion</text><polygon fill="#4B7A46" points="420.5,149.5703,430.5,153.5703,420.5,157.5703,424.5,153.5703" style="stroke:#4B7A46;stroke-width:1.0;"/><line style="stroke:#4B7A46;stroke-width:1.0;" x1="51.5" x2="426.5" y1="153.5703" y2="153.5703"/><text fill="#000000" font-family="Helvetica" font-size="13" lengthAdjust="spacing" textLength="223" x="130.5" y="148.7139">abre el estado de la flota y los equipos</text><polygon fill="#4B7A46" points="628.5,179.9219,638.5,183.9219,628.5,187.9219,632.5,183.9219" style="stroke:#4B7A46;stroke-width:1.0;"/><line style="stroke:#4B7A46;stroke-width:1.0;" x1="432.5" x2="634.5" y1="183.9219" y2="183.9219"/><text fill="#000000" font-family="Helvetica" font-size="13" lengthAdjust="spacing" textLength="131" x="471" y="179.0654">consultarEstadoFlota()</text><line style="stroke:#4B7A46;stroke-width:1.0;" x1="640.5" x2="682.5" y1="214.2734" y2="214.2734"/><line style="stroke:#4B7A46;stroke-width:1.0;" x1="682.5" x2="682.5" y1="214.2734" y2="227.2734"/><line style="stroke:#4B7A46;stroke-width:1.0;" x1="641.5" x2="682.5" y1="227.2734" y2="227.2734"/><polygon fill="#4B7A46" points="651.5,223.2734,641.5,227.2734,651.5,231.2734,647.5,227.2734" style="stroke:#4B7A46;stroke-width:1.0;"/><text fill="#000000" font-family="Helvetica" font-size="13" lengthAdjust="spacing" textLength="183" x="647.5" y="209.417">revisar_alertas_mantenimiento()</text><polygon fill="#4B7A46" points="950.5,253.625,960.5,257.625,950.5,261.625,954.5,257.625" style="stroke:#4B7A46;stroke-width:1.0;"/><line style="stroke:#4B7A46;stroke-width:1.0;" x1="640.5" x2="956.5" y1="257.625" y2="257.625"/><text fill="#000000" font-family="Helvetica" font-size="13" lengthAdjust="spacing" textLength="298" x="652.5" y="252.7686">obtenerActivos(maquinaria y vehiculos mantenibles)</text><polygon fill="#4B7A46" points="651.5,283.9766,641.5,287.9766,651.5,291.9766,647.5,287.9766" style="stroke:#4B7A46;stroke-width:1.0;"/><line style="stroke:#4B7A46;stroke-width:1.0;stroke-dasharray:2.0,2.0;" x1="645.5" x2="961.5" y1="287.9766" y2="287.9766"/><text fill="#000000" font-family="Helvetica" font-size="13" lengthAdjust="spacing" textLength="239" x="682" y="283.1201">activos con estado_operativo y horometro</text><polygon fill="#4B7A46" points="1150,314.3281,1160,318.3281,1150,322.3281,1154,318.3281" style="stroke:#4B7A46;stroke-width:1.0;"/><line style="stroke:#4B7A46;stroke-width:1.0;" x1="640.5" x2="1156" y1="318.3281" y2="318.3281"/><text fill="#000000" font-family="Helvetica" font-size="13" lengthAdjust="spacing" textLength="224" x="789.25" y="313.4717">obtenerProximaProgramada(por activo)</text><polygon fill="#4B7A46" points="651.5,344.6797,641.5,348.6797,651.5,352.6797,647.5,348.6797" style="stroke:#4B7A46;stroke-width:1.0;"/><line style="stroke:#4B7A46;stroke-width:1.0;stroke-dasharray:2.0,2.0;" x1="645.5" x2="1161" y1="348.6797" y2="348.6797"/><text fill="#000000" font-family="Helvetica" font-size="13" lengthAdjust="spacing" textLength="235" x="783.75" y="343.8232">proxima mantencion y su alerta si existe</text><polygon fill="#4B7A46" points="443.5,375.0313,433.5,379.0313,443.5,383.0313,439.5,379.0313" style="stroke:#4B7A46;stroke-width:1.0;"/><line style="stroke:#4B7A46;stroke-width:1.0;stroke-dasharray:2.0,2.0;" x1="437.5" x2="639.5" y1="379.0313" y2="379.0313"/><text fill="#000000" font-family="Helvetica" font-size="13" lengthAdjust="spacing" textLength="184" x="444.5" y="374.1748">listado de la flota con su estado</text><polygon fill="#4B7A46" points="62.5,405.3828,52.5,409.3828,62.5,413.3828,58.5,409.3828" style="stroke:#4B7A46;stroke-width:1.0;"/><line style="stroke:#4B7A46;stroke-width:1.0;stroke-dasharray:2.0,2.0;" x1="56.5" x2="431.5" y1="409.3828" y2="409.3828"/><text fill="#000000" font-family="Helvetica" font-size="13" lengthAdjust="spacing" textLength="357" x="63.5" y="404.5264">muestra el estado operativo, horometro y proxima mantencion</text><polygon fill="#4B7A46" points="420.5,435.7344,430.5,439.7344,420.5,443.7344,424.5,439.7344" style="stroke:#4B7A46;stroke-width:1.0;"/><line style="stroke:#4B7A46;stroke-width:1.0;" x1="51.5" x2="426.5" y1="439.7344" y2="439.7344"/><text fill="#000000" font-family="Helvetica" font-size="13" lengthAdjust="spacing" textLength="235" x="124.5" y="434.8779">filtra por estado operativo o tipo de activo</text><polygon fill="#4B7A46" points="628.5,466.0859,638.5,470.0859,628.5,474.0859,632.5,470.0859" style="stroke:#4B7A46;stroke-width:1.0;"/><line style="stroke:#4B7A46;stroke-width:1.0;" x1="432.5" x2="634.5" y1="470.0859" y2="470.0859"/><text fill="#000000" font-family="Helvetica" font-size="13" lengthAdjust="spacing" textLength="155" x="459" y="465.2295">consultarEstadoFlota(filtro)</text><polygon fill="#4B7A46" points="443.5,496.4375,433.5,500.4375,443.5,504.4375,439.5,500.4375" style="stroke:#4B7A46;stroke-width:1.0;"/><line style="stroke:#4B7A46;stroke-width:1.0;stroke-dasharray:2.0,2.0;" x1="437.5" x2="639.5" y1="500.4375" y2="500.4375"/><text fill="#000000" font-family="Helvetica" font-size="13" lengthAdjust="spacing" textLength="80" x="496.5" y="495.5811">listado filtrado</text><polygon fill="#4B7A46" points="62.5,526.7891,52.5,530.7891,62.5,534.7891,58.5,530.7891" style="stroke:#4B7A46;stroke-width:1.0;"/><line style="stroke:#4B7A46;stroke-width:1.0;stroke-dasharray:2.0,2.0;" x1="56.5" x2="431.5" y1="530.7891" y2="530.7891"/><text fill="#000000" font-family="Helvetica" font-size="13" lengthAdjust="spacing" textLength="266" x="109" y="525.9326">muestra el resultado sin modificar ningun dato</text><!--SRC=[dLJDRjf04BxxAKRfeI2LIqgQXaCbOe5wA2YHKgveiCUmpNh7dLsJzEqxYqsnaxI9QibQxFd-PWRvFQJVHvyl86NdQnlGvGnaWNn0_PKJM8J2Sa3u1POzqC_QL7gEz6tzWy6nb6WJVszSXO8bR32xtmhNBa_Pii2x-U7g8FnEfH-CsqA1rbEdabE16cBEBYon9FXATa_1PDXbQm9o6It8UzpIr9gjWunS8EcWRb2KPofquVffeDbq_d5s-HSmIqxI0izd5xFpQGSupGBBwteDx9zAnow-cK9lHptqLPgEhtg-8lpG5iVNbzFnfoG99bZwp-KDkhiR9Wd6m33DI-EC3w9aIQhJKE1ijPuTDETHx0pGmweFIDSBL767OffwsgzFIZt8cTBefdXTzi6BsrVGyIapx1hqyYv9Uc5Xz0LMC07S2Brb0CagCb9bPEtafDFVO9YanxhGtdYKDLgIW7xT2tO4BcuLoHijaEZkpPxzuDIXMkzfPx8w1cZv6qj-c2XlrFfWGujvslHhhaWmlbM17GkN58HRm-NToV56-D6KgCTM_okOuw3IYJI2wg7GeqdL8E4qJvNsDJJDWJT0ZpfIYYRjHArvFigOKLbDp3XAnVRNCO6oflZGMSQVTZwSkb7xvvbUNcrXRDIBhJqL18QWMuqPcwvVMUz1YeSlTDcOlAKfeOEkShnnK79k2lrC2JZzhDKESWoS_0O0]--></g></svg>